<svg t="1517907567635" class="icon" style="" viewBox="0 0 1024 1024" version="1.1" xmlns="http://www.w3.org/2000/svg" p-id="1789" xmlns:xlink="http://www.w3.org/1999/xlink" width="200" height="200"><defs><style type="text/css"></style></defs><path d="M884.392 476.688h-336.6v-336.6c0-19.422-15.891-35.312-35.313-35.312-19.421 0-35.311 15.89-35.311 35.312v336.6H140.567c-19.421 0-35.312 15.89-35.312 35.311 0 19.422 15.89 35.312 35.312 35.312h336.6v336.6c0 19.421 15.89 35.311 35.311 35.311 19.422 0 35.312-15.89 35.312-35.312V547.312h336.6c19.421 0 35.312-15.89 35.312-35.312 0.001-19.421-15.89-35.312-35.31-35.312z" p-id="1790" fill="#515151"></path></svg>