<?xml version="1.0" standalone="no"?><!DOCTYPE svg PUBLIC "-//W3C//DTD SVG 1.1//EN" "http://www.w3.org/Graphics/SVG/1.1/DTD/svg11.dtd"><svg t="1524626094626" class="icon" style="" viewBox="0 0 1026 1024" version="1.1" xmlns="http://www.w3.org/2000/svg" p-id="4514" xmlns:xlink="http://www.w3.org/1999/xlink" width="200.390625" height="200"><defs><style type="text/css"></style></defs><path d="M987.876267 631.466667l-140.8 140.8-40.533334-40.533334c-8.533333-8.533333-21.333333-8.533333-29.866666 0-8.533333 8.533333-8.533333 21.333333 0 29.866667l72.533333 72.533333 170.666667-170.666666c8.533333-8.533333 8.533333-21.333333 0-29.866667-10.666667-10.666667-23.466667-10.666667-32-2.133333z" fill="#666767" p-id="4515"></path><path d="M1024.142933 512c0-211.2-172.8-384-384-384-166.4 0-307.2 102.4-358.4 256h-21.333333C100.4096 384-25.457067 526.933333 4.4096 686.933333 27.876267 810.666667 138.8096 896 264.676267 896H661.476267c12.8 0 21.333333-8.533333 21.333333-21.333333s-8.533333-21.333333-21.333333-21.333334H262.542933C151.6096 853.333333 53.476267 770.133333 42.8096 659.2c-10.666667-128 89.6-234.666667 215.466667-234.666667h19.2l34.133333 2.133334 10.666667-32C369.2096 260.266667 492.942933 170.666667 640.142933 170.666667c187.733333 0 341.333333 153.6 341.333334 341.333333v10.666667c0 12.8 8.533333 21.333333 21.333333 21.333333s21.333333-8.533333 21.333333-21.333333v-2.133334-8.533333z" fill="#666767" p-id="4516"></path></svg>