<?xml version="1.0" standalone="no"?><!DOCTYPE svg PUBLIC "-//W3C//DTD SVG 1.1//EN" "http://www.w3.org/Graphics/SVG/1.1/DTD/svg11.dtd"><svg t="1517223448685" class="icon" style="" viewBox="0 0 1171 1024" version="1.1" xmlns="http://www.w3.org/2000/svg" p-id="19601" xmlns:xlink="http://www.w3.org/1999/xlink" width="146.375" height="128"><defs><style type="text/css"></style></defs><path d="M1130.094704 644.013105C998.169371 610.123581 887.650514 544.416914 837.742704 522.327771 773.13318 493.753295 735.976609 516.817676 586.472609 549.902629 436.968609 583.011962 372.456609 586.693486 372.456609 586.693486 350.97699 622.801676 378.746895 681.608533 428.28899 697.041676 477.831085 712.474819 660.078704 695.237486 707.450895 687.850057 730.320228 684.266057 733.294704 711.74339 706.207466 738.952533 677.194133 768.112152 603.344228 792.566248 547.877561 808.99901 467.615466 832.770438 353.829561 798.198248 353.829561 798.198248 353.829561 798.198248 195.84099 711.085105 93.294704 687.850057-9.275963 664.590629 0.232609 752.215771 0.232609 752.215771 0.232609 752.215771 191.793752 876.656152 251.478323 908.522057 311.162895 940.412343 402.810895 1024.989867 484.121371 1018.870248 565.431847 1012.750629 857.296228 936.974629 921.491276 945.312914 949.992609 949.018819 994.439085 960.55101 1036.30118 970.522819 1037.471466 970.79101 1038.641752 971.083581 1039.812037 971.351771 1043.225371 972.448914 1046.711847 973.521676 1050.490895 973.521676 1062.973942 973.521676 1073.457752 966.69501 1079.845561 956.942629 1081.284037 954.211962 1082.722514 951.115581 1084.16099 948.092343 1114.417752 884.458057 1145.162133 757.79901 1159.741942 692.945676 1164.618133 671.246629 1151.525561 649.5232 1130.094704 644.013105ZM158.230932 146.285714 641.802742 146.285714C682.20198 146.285714 714.945599 113.542095 714.945599 73.142857 714.945599 32.743619 682.20198 0 641.802742 0L158.230932 0C117.831694 0 85.088075 32.743619 85.088075 73.142857 85.088075 113.542095 117.831694 146.285714 158.230932 146.285714ZM158.230932 409.71459 641.802742 409.71459C682.20198 409.71459 714.945599 376.970971 714.945599 336.571733 714.945599 296.172495 682.20198 263.428876 641.802742 263.428876L158.230932 263.428876C117.831694 263.428876 85.088075 296.172495 85.088075 336.571733 85.088075 376.970971 117.831694 409.71459 158.230932 409.71459Z" p-id="19602"></path></svg>