<?xml version="1.0" standalone="no"?><!DOCTYPE svg PUBLIC "-//W3C//DTD SVG 1.1//EN" "http://www.w3.org/Graphics/SVG/1.1/DTD/svg11.dtd"><svg t="1517007647849" class="icon" style="" viewBox="0 0 1024 1024" version="1.1" xmlns="http://www.w3.org/2000/svg" p-id="1803" xmlns:xlink="http://www.w3.org/1999/xlink" width="128" height="128"><defs><style type="text/css"></style></defs><path d="M462.933333 110.933333H132.266667c-12.8 0-21.333333 8.533333-21.333334 21.333334v330.666666c0 12.8 8.533333 21.333333 21.333334 21.333334h330.666666c12.8 0 21.333333-8.533333 21.333334-21.333334V132.266667c0-10.666667-8.533333-21.333333-21.333334-21.333334z m-21.333333 332.8H153.6V153.6h288v290.133333zM881.066667 379.733333c-12.8 0-21.333333 8.533333-21.333334 21.333334v42.666666H571.733333V153.6h288v57.6c0 12.8 8.533333 21.333333 21.333334 21.333333s21.333333-8.533333 21.333333-21.333333V132.266667c0-12.8-8.533333-21.333333-21.333333-21.333334H550.4c-12.8 0-21.333333 8.533333-21.333333 21.333334v330.666666c0 12.8 8.533333 21.333333 21.333333 21.333334h330.666667c12.8 0 21.333333-8.533333 21.333333-21.333334v-64c0-10.666667-10.666667-19.2-21.333333-19.2zM881.066667 537.6H550.4c-12.8 0-21.333333 8.533333-21.333333 21.333333v330.666667c0 12.8 8.533333 21.333333 21.333333 21.333333h330.666667c12.8 0 21.333333-8.533333 21.333333-21.333333V558.933333c0-10.666667-10.666667-21.333333-21.333333-21.333333z m-21.333334 332.8H571.733333V580.266667h288v290.133333zM462.933333 537.6H132.266667c-12.8 0-21.333333 8.533333-21.333334 21.333333v330.666667c0 12.8 8.533333 21.333333 21.333334 21.333333h330.666666c12.8 0 21.333333-8.533333 21.333334-21.333333V558.933333c0-10.666667-8.533333-21.333333-21.333334-21.333333z m-21.333333 332.8H153.6V580.266667h288v290.133333z" p-id="1804"></path><path d="M881.066667 307.2m-32 0a32 32 0 1 0 64 0 32 32 0 1 0-64 0Z" p-id="1805"></path></svg>