<?xml version="1.0" standalone="no"?><!DOCTYPE svg PUBLIC "-//W3C//DTD SVG 1.1//EN" "http://www.w3.org/Graphics/SVG/1.1/DTD/svg11.dtd"><svg t="1517008163710" class="icon" style="" viewBox="0 0 1186 1024" version="1.1" xmlns="http://www.w3.org/2000/svg" p-id="2564" xmlns:xlink="http://www.w3.org/1999/xlink" width="74.125" height="64"><defs><style type="text/css"></style></defs><path d="M992.094316 610.681263c-9.539368 22.042947-34.708211 38.049684-59.877053 38.049684L398.767158 648.730947l37.429895 132.473263c1.670737 0.269474 3.287579 0.485053 4.931368 0.835368l491.708632 0c8.272842-1.778526 16.842105-2.802526 25.626947-2.802526 67.206737 0 121.856 54.891789 121.856 122.314105 0 67.476211-54.649263 122.314105-121.856 122.314105s-121.882947-54.837895-121.882947-122.314105c0-25.007158 7.545263-48.262737 20.426105-67.637895L516.931368 833.913263c12.907789 19.375158 20.426105 42.630737 20.426105 67.637895 0 67.476211-54.649263 122.314105-121.856 122.314105s-121.882947-54.837895-121.882947-122.314105c0-56.427789 38.319158-103.882105 90.165895-117.948632L219.162947 81.138526C215.713684 65.616842 198.117053 52.008421 181.463579 52.008421L39.316211 52.008421C25.061053 52.008421 13.473684 40.367158 13.473684 26.031158c0-14.309053 11.587368-25.923368 25.842526-25.923368l142.147368 0c40.798316 0 79.494737 30.639158 88.144842 69.739789l16.276211 72.946526 842.967579 0c15.063579 0 28.267789 7.006316 36.244211 19.213474 8.326737 12.692211 9.458526 29.130105 3.018105 43.897263L992.094316 610.681263zM958.437053 971.991579c38.750316 0 70.170947-31.528421 70.170947-70.413474 0-37.483789-29.184-67.988211-65.940211-70.197895-3.368421 1.643789-7.087158 2.586947-11.021474 2.586947L939.115789 833.967158c-29.345684 8.434526-50.849684 35.462737-50.849684 67.637895C888.266105 940.463158 919.686737 971.991579 958.437053 971.991579zM345.276632 901.578105c0 38.885053 31.420632 70.413474 70.170947 70.413474s70.170947-31.528421 70.170947-70.413474c0-32.148211-21.477053-59.203368-50.822737-67.637895l-13.231158 0c-3.934316 0-7.626105-0.943158-10.940632-2.533053C374.137263 833.940211 345.276632 864.363789 345.276632 901.578105zM297.472 194.694737l89.707789 402.162526 545.064421 0c5.066105 0 11.344842-4.311579 12.476632-6.898526l171.897263-395.264L297.472 194.694737z" p-id="2565"></path></svg>