<?xml version="1.0" standalone="no"?><!DOCTYPE svg PUBLIC "-//W3C//DTD SVG 1.1//EN" "http://www.w3.org/Graphics/SVG/1.1/DTD/svg11.dtd"><svg t="1517219489142" class="icon" style="" viewBox="0 0 1024 1024" version="1.1" xmlns="http://www.w3.org/2000/svg" p-id="1123" xmlns:xlink="http://www.w3.org/1999/xlink" width="128" height="128"><defs><style type="text/css"></style></defs><path d="M510.923 924.324c-227.877 0-413.283-185.407-413.283-413.284 0-227.876 185.406-413.282 413.283-413.282 227.878 0 413.287 185.407 413.287 413.282 0 227.877-185.408 413.284-413.287 413.284v0zM510.923 181.163c-181.911 0-329.878 147.968-329.878 329.877 0 181.912 147.968 329.876 329.878 329.876s329.875-147.963 329.875-329.876c-0.001-181.91-147.966-329.877-329.875-329.877v0zM510.984 780.939c-16.557 0-29.992-13.437-29.992-29.989v-299.884c0-16.558 13.434-29.994 29.992-29.994 16.614 0 29.991 13.435 29.991 29.994v299.884c-0.064 16.551-13.439 29.989-29.991 29.989v0zM630.876 541.027h-239.912c-16.549 0-29.984-13.434-29.984-29.988 0-16.556 13.434-29.992 29.984-29.992h239.912c16.555 0 29.991 13.434 29.991 29.992 0.002 16.552-13.434 29.988-29.991 29.988v0zM510.923 481.050c-7.679 0-15.356-2.938-21.171-8.752-11.696-11.697-11.696-30.711 0-42.406l119.95-119.958c11.695-11.694 30.709-11.694 42.406 0 11.699 11.695 11.699 30.711 0 42.405l-119.952 119.959c-5.882 5.814-13.554 8.753-21.233 8.753v0zM511.161 480.929c-7.672 0-15.352-2.937-21.233-8.759l-119.953-119.951c-11.694-11.695-11.694-30.709 0-42.404 11.696-11.695 30.711-11.695 42.408 0l119.949 119.957c11.695 11.692 11.695 30.703 0 42.398-5.813 5.822-13.492 8.759-21.171 8.759v0zM630.876 660.986h-239.912c-16.549 0-29.984-13.435-29.984-29.992 0-16.552 13.434-29.985 29.984-29.985h239.912c16.555 0 29.991 13.433 29.991 29.985 0.002 16.556-13.434 29.992-29.991 29.992v0z" p-id="1124"></path></svg>