<?xml version="1.0" standalone="no"?><!DOCTYPE svg PUBLIC "-//W3C//DTD SVG 1.1//EN" "http://www.w3.org/Graphics/SVG/1.1/DTD/svg11.dtd"><svg t="1525939661304" class="icon" style="" viewBox="0 0 1024 1024" version="1.1" xmlns="http://www.w3.org/2000/svg" p-id="3189" xmlns:xlink="http://www.w3.org/1999/xlink" width="200" height="200"><defs><style type="text/css"></style></defs><path d="M516.707105 66.513441c-243.848506 0-441.546917 197.698411-441.546917 441.546917s197.698411 441.546917 441.546917 441.546917 441.546917-197.698411 441.546917-441.546917S760.555611 66.513441 516.707105 66.513441z m227.066653 601.690816c18.419107 18.419107 18.419107 48.503647 0 66.922754s-48.503647 18.419107-66.922754 0L516.707105 574.983112 356.563206 735.127011c-18.419107 18.419107-48.503647 18.419107-66.922754 0s-18.419107-48.503647 0-66.922754l160.143899-160.143899L289.640452 347.916458c-18.419107-18.419107-18.419107-48.503647 0-66.922754 18.419107-18.419107 48.503647-18.419107 66.922754 0l160.143899 160.1439 160.143899-160.1439c18.419107-18.419107 48.503647-18.419107 66.922754 0 18.419107 18.419107 18.419107 48.503647 0 66.922754L583.629859 508.060358l160.143899 160.143899z" p-id="3190"></path></svg>