<?xml version="1.0" standalone="no"?><!DOCTYPE svg PUBLIC "-//W3C//DTD SVG 1.1//EN" "http://www.w3.org/Graphics/SVG/1.1/DTD/svg11.dtd"><svg t="1517220100605" class="icon" style="" viewBox="0 0 1024 1024" version="1.1" xmlns="http://www.w3.org/2000/svg" p-id="4808" xmlns:xlink="http://www.w3.org/1999/xlink" width="128" height="128"><defs><style type="text/css"></style></defs><path d="M928.1 333.4c-22.7-53.8-55.3-102.1-96.8-143.5-41.5-41.5-89.8-74-143.5-96.8C632.1 69.6 573 57.7 512 57.7S391.9 69.6 336.2 93.1c-53.8 22.7-102.1 55.3-143.5 96.8-41.5 41.5-74 89.8-96.8 143.5-23.5 55.7-35.5 114.8-35.5 175.8 0 61 11.9 120.1 35.5 175.8 22.7 53.8 55.3 102.1 96.8 143.5 41.5 41.5 89.8 74 143.5 96.8 55.7 23.5 114.8 35.5 175.8 35.5s120.1-11.9 175.8-35.5c53.8-22.7 102.1-55.3 143.5-96.8s74-89.8 96.8-143.5c23.5-55.7 35.5-114.8 35.5-175.8-0.1-61-12-120.1-35.5-175.8z m29.4 175.8c0 245.7-199.9 445.5-445.5 445.5-245.7 0-445.5-199.9-445.5-445.5S266.3 63.7 512 63.7s445.5 199.8 445.5 445.5z" fill="" p-id="4809"></path><path d="M509.5 832c-27.2 0-50.1-16.7-58.5-42.6-5.3-16.4-17.6-29.2-33.8-35.1-16.2-5.9-33.8-4-48.4 5.1-23 14.4-51.3 12.5-72.1-5-20.8-17.5-27.6-45-17.4-70.2 6.5-16 5.3-33.7-3.3-48.6-8.6-14.9-23.3-24.8-40.4-27.2-26.9-3.7-47.4-23.4-52.1-50.2-4.7-26.8 7.8-52.3 31.8-65 15.2-8.1 25.7-22.4 28.7-39.4s-1.9-34-13.5-46.8c-18.2-20.2-21.2-48.4-7.6-71.9 13.6-23.5 39.5-35 66.1-29.3 16.8 3.6 34.1-0.7 47.3-11.7s20.4-27.3 19.8-44.5c-1-27.1 14.8-50.7 40.4-60 25.5-9.3 52.8-1.4 69.5 20 10.6 13.6 26.5 21.4 43.7 21.4 17.2 0 33.2-7.8 43.7-21.4l2.4 1.8-2.4-1.8c16.7-21.4 44-29.3 69.5-20s41.4 32.8 40.4 60c-0.6 17.2 6.6 33.4 19.8 44.5 13.2 11.1 30.4 15.3 47.3 11.7 26.6-5.7 52.5 5.8 66.1 29.3 13.6 23.5 10.6 51.8-7.6 71.9-11.6 12.8-16.5 29.8-13.5 46.8 3 17 13.4 31.3 28.7 39.4 24 12.7 36.5 38.2 31.8 65s-25.2 46.5-52.1 50.2c-17.1 2.4-31.8 12.3-40.4 27.2-8.6 14.9-9.8 32.6-3.3 48.6 10.2 25.2 3.4 52.7-17.4 70.2-20.8 17.5-49.1 19.4-72.1 5-14.6-9.2-32.2-11-48.4-5.1-16.2 5.9-28.5 18.7-33.8 35.1-8.8 25.9-31.7 42.6-58.9 42.6z m-111.3-87c7.1 0 14.2 1.2 21.1 3.7 17.9 6.5 31.6 20.7 37.4 38.9 7.5 23.3 28.2 38.4 52.7 38.4 24.5 0 45.2-15.1 52.7-38.4 5.9-18.2 19.5-32.3 37.4-38.9 17.9-6.5 37.5-4.5 53.7 5.7 20.8 13 46.3 11.3 65.1-4.5 18.8-15.8 24.9-40.6 15.7-63.3-7.2-17.7-5.8-37.3 3.7-53.8s25.9-27.5 44.8-30.1c24.3-3.4 42.7-21.1 47-45.3 4.3-24.1-7-47.1-28.7-58.6-16.9-8.9-28.5-24.8-31.8-43.6-3.3-18.8 2.1-37.7 14.9-51.9 16.4-18.2 19.1-43.7 6.9-64.9s-35.7-31.6-59.6-26.5c-18.7 4-37.8-0.7-52.4-13-14.6-12.3-22.6-30.2-21.9-49.3 0.9-24.5-13.4-45.7-36.4-54.1-23-8.4-47.6-1.3-62.7 18.1-11.7 15.1-29.4 23.7-48.5 23.7s-36.8-8.6-48.5-23.7c-15.1-19.4-39.7-26.4-62.7-18.1-23 8.4-37.3 29.6-36.4 54.1 0.7 19.1-7.3 37.1-21.9 49.3-14.6 12.3-33.7 17-52.4 13-24-5.1-47.4 5.2-59.6 26.5-12.3 21.2-9.6 46.7 6.9 64.9 12.8 14.2 18.2 33.1 14.9 51.9s-14.9 34.7-31.8 43.6c-21.7 11.5-32.9 34.5-28.7 58.6 4.3 24.1 22.7 41.9 47 45.3 18.9 2.6 35.2 13.6 44.8 30.1 9.5 16.5 10.9 36.2 3.7 53.8-9.2 22.7-3.1 47.6 15.7 63.3 18.8 15.8 44.3 17.5 65.1 4.5 10.2-6.3 21.4-9.4 32.8-9.4z" fill="" p-id="4810"></path><path d="M566 719.8c-12.8 0-25-6-33.2-16.9-6.7-8.9-16.9-14.2-28.1-14.4-11.1-0.2-21.6 4.7-28.6 13.3-11.6 14.4-30.4 19.4-47.7 12.8-17.3-6.7-27.8-22.9-26.8-41.4 0.6-11.1-3.9-21.7-12.3-29.1-8.4-7.3-19.5-10.3-30.5-8.2-18.2 3.6-35.7-4.6-44.7-20.8-9-16.2-6.6-35.4 6.1-49 7.6-8.1 11-19.1 9.3-30.2-1.7-11-8.3-20.4-18.1-25.8-16.2-9-24.4-26.5-20.9-44.7s17.7-31.4 36.2-33.6c11.1-1.3 20.7-7.6 26.5-17.1 5.8-9.6 6.8-21 2.7-31.4-6.7-17.3-1.7-36 12.8-47.7s33.8-12.6 49.3-2.5c9.3 6.1 20.8 7.5 31.3 3.9s18.7-11.8 22.3-22.3c6-17.5 21.9-28.6 40.4-28.3 18.5 0.3 34 12 39.3 29.8 3.2 10.7 11.1 19.1 21.5 23.1s21.9 3 31.4-2.8c15.9-9.6 35.2-7.9 49.2 4.3s18.3 31.1 11 48.1c-4.4 10.3-3.8 21.7 1.6 31.5s14.8 16.4 25.9 18.1c18.3 2.9 32 16.6 34.9 34.9 2.9 18.3-5.9 35.6-22.5 43.9-10 5-16.9 14.2-19 25.2-2.1 11 0.8 22.1 8.2 30.5 12.2 14 13.9 33.3 4.3 49.2s-27.4 23.4-45.5 19.2c-10.9-2.5-22.1 0-30.8 7S608 665.9 608.2 677c0.3 18.5-10.8 34.4-28.3 40.4-4.6 1.7-9.3 2.4-13.9 2.4z m-62-37.2h0.8c13 0.2 25 6.4 32.8 16.8 9.5 12.7 25.4 17.6 40.4 12.4 15-5.2 24.5-18.8 24.2-34.6-0.2-13 5.4-25.2 15.6-33.4 10.1-8.2 23.2-11.2 35.9-8.2 15.5 3.6 30.8-2.8 38.9-16.4 8.2-13.6 6.7-30.1-3.7-42.1-8.6-9.8-12-22.8-9.5-35.6s10.6-23.5 22.2-29.4c14.2-7.2 21.7-21.9 19.3-37.6-2.5-15.7-14.2-27.4-29.9-29.9-12.9-2-23.9-9.7-30.2-21.1-6.3-11.4-7-24.8-1.9-36.8 6.3-14.6 2.5-30.8-9.4-41.2-12-10.4-28.5-11.9-42.1-3.7-11.2 6.7-24.5 7.9-36.7 3.2-12.2-4.7-21.3-14.5-25.1-27-4.6-15.2-17.8-25.2-33.7-25.5-15.9-0.3-29.5 9.2-34.6 24.3-4.2 12.3-13.7 21.8-26 26-12.3 4.2-25.6 2.6-36.5-4.6-13.3-8.7-29.9-7.9-42.2 2.1-12.4 10-16.6 26-10.9 40.8 4.7 12.2 3.5 25.5-3.2 36.7-6.7 11.2-18 18.4-30.9 20-15.8 1.9-27.9 13.2-31 28.8s4 30.6 17.9 38.3c11.4 6.3 19.1 17.3 21.1 30.2 2 12.9-1.9 25.7-10.8 35.2-10.9 11.6-12.9 28.1-5.2 42 7.7 13.9 22.7 20.9 38.3 17.9 12.8-2.5 25.8 1 35.6 9.5 9.8 8.6 15 20.9 14.3 33.9-0.9 15.9 8.1 29.8 23 35.5 14.8 5.7 30.9 1.4 40.8-10.9 7.9-10 19.7-15.6 32.4-15.6z" fill="" p-id="4811"></path></svg>