<?xml version="1.0" standalone="no"?><!DOCTYPE svg PUBLIC "-//W3C//DTD SVG 1.1//EN" "http://www.w3.org/Graphics/SVG/1.1/DTD/svg11.dtd"><svg t="1517220858271" class="icon" style="" viewBox="0 0 1024 1024" version="1.1" xmlns="http://www.w3.org/2000/svg" p-id="11352" xmlns:xlink="http://www.w3.org/1999/xlink" width="128" height="128"><defs><style type="text/css"></style></defs><path d="M512 0C229.218 0 0 229.218 0 512s229.218 512 512 512 512-229.218 512-512S794.782 0 512 0zM512 944c-238.594 0-432-193.406-432-432S273.406 80 512 80s432 193.406 432 432S750.594 944 512 944z" p-id="11353"></path><path d="M736 432c0-44.188-35.812-80-80-80L368 352c-44.188 0-80 35.812-80 80l0 160c0 44.188 35.812 80 80 80l288 0c44.188 0 80-35.812 80-80L736 432zM367.188 384l288 0c20.876 0 38.438 13.438 45.062 32L322.156 416C328.782 397.438 346.376 384 367.188 384zM704 592c0 26.468-22.312 48-48.812 48l-288 0C340.75 640 320 618.468 320 592l0-112 384 0L704 592z" p-id="11354"></path><path d="M367.188 544l128 0c8.876 0 16-7.156 16-16s-7.124-16-16-16l-128 0c-8.812 0-16 7.156-16 16S358.376 544 367.188 544z" p-id="11355"></path><path d="M623.188 544l32 0c8.876 0 16-7.156 16-16s-7.124-16-16-16l-32 0c-8.812 0-16 7.156-16 16S614.376 544 623.188 544z" p-id="11356"></path><path d="M367.188 608l64 0c8.876 0 16-7.156 16-16s-7.124-16-16-16l-64 0c-8.812 0-16 7.156-16 16S358.376 608 367.188 608z" p-id="11357"></path></svg>