<?xml version="1.0" standalone="no"?><!DOCTYPE svg PUBLIC "-//W3C//DTD SVG 1.1//EN" "http://www.w3.org/Graphics/SVG/1.1/DTD/svg11.dtd"><svg t="1532489512336" class="icon" style="" viewBox="0 0 1024 1024" version="1.1" xmlns="http://www.w3.org/2000/svg" p-id="2998" xmlns:xlink="http://www.w3.org/1999/xlink" width="200" height="200"><defs><style type="text/css"></style></defs><path d="M512 0C229.24001 0 0 229.24001 0 512c0 282.828724 229.24001 512 512 512 282.828724 0 512-229.171276 512-512C1023.997852 229.24001 794.826576 0 512 0zM749.226015 323.037979l-190.259371 190.328105 168.412772 187.595937c13.312872 13.312872 13.312872 35.019856 0 48.263994-13.244138 13.312872-34.95327 13.312872-48.19526 0l-168.412772-187.595937-187.664671 187.595937c-13.312872 13.312872-34.95327 13.312872-48.263994 0-13.312872-13.244138-13.312872-34.95327 0-48.263994l190.259371-190.259371-168.346186-187.664671c-13.312872-13.312872-13.312872-34.95327 0-48.263994s34.95327-13.312872 48.263994 0l168.412772 187.664671 187.595937-187.664671c13.312872-13.312872 34.95327-13.312872 48.263994 0C762.605473 288.084709 762.536739 309.725107 749.226015 323.037979z" p-id="2999" fill="#6c757d"></path></svg>