<?xml version="1.0" standalone="no"?><!DOCTYPE svg PUBLIC "-//W3C//DTD SVG 1.1//EN" "http://www.w3.org/Graphics/SVG/1.1/DTD/svg11.dtd"><svg t="1517564917086" class="icon" style="" viewBox="0 0 1024 1024" version="1.1" xmlns="http://www.w3.org/2000/svg" p-id="3635" xmlns:xlink="http://www.w3.org/1999/xlink" width="200" height="200"><defs><style type="text/css"></style></defs><path d="M826.88 286.72H197.12c-12.8 0-20.48-10.24-20.48-20.48 0-12.8 10.24-20.48 20.48-20.48h629.76c12.8 0 20.48 10.24 20.48 20.48s-10.24 20.48-20.48 20.48zM826.88 532.48H197.12c-12.8 0-20.48-10.24-20.48-20.48s10.24-20.48 20.48-20.48h629.76c12.8 0 20.48 10.24 20.48 20.48s-10.24 20.48-20.48 20.48zM826.88 780.8H197.12c-12.8 0-20.48-10.24-20.48-20.48s10.24-20.48 20.48-20.48h629.76c12.8 0 20.48 10.24 20.48 20.48s-10.24 20.48-20.48 20.48z" fill="#515151" p-id="3636"></path></svg>