<?xml version="1.0" standalone="no"?><!DOCTYPE svg PUBLIC "-//W3C//DTD SVG 1.1//EN" "http://www.w3.org/Graphics/SVG/1.1/DTD/svg11.dtd"><svg t="1517222935207" class="icon" style="" viewBox="0 0 1024 1024" version="1.1" xmlns="http://www.w3.org/2000/svg" p-id="15971" xmlns:xlink="http://www.w3.org/1999/xlink" width="128" height="128"><defs><style type="text/css"></style></defs><path d="M571.644392 782.119379a14.001632 14.001632 0 0 1-10.167181-4.349465c-72.969235-76.482186-128.3215-167.097061-140.231335-203.129634L354.093334 371.442046c-7.478458-22.612507-3.44435-44.922969 11.058985-61.196601 14.791047-16.58899 38.254404-24.41045 59.961796-19.950406 20.567808 4.267554 36.457485 19.072936 43.565297 40.601149l46.982002 136.403026c0.947094 2.730702 3.169949 5.022158 6.119763 6.297919 11.649767 4.994513 32.573888 12.047035 41.987489 2.840258 11.855568-11.663078 9.179132-47.557426-6.353209-85.360296-15.202649-36.937687-55.666597-77.538836-78.224838-93.332266-6.353208-4.459021-7.89006-13.21324-3.444351-19.579759 4.486665-6.353208 13.21324-7.89006 19.579759-3.444351 26.015902 18.235398 70.540579 63.063145 88.076664 105.667014 16.438479 39.983746 25.082119 91.480058 0.0686 116.081974-11.058985 10.880829-32.684467 20.198186-72.818724 2.936504-10.194826-4.404755-18.043931-12.775017-21.555858-22.969844l-47.036268-136.567872c-5.104068-15.436095-15.134049-20.499208-22.653463-22.050395-11.827923-2.524901-25.150719 2.017054-33.274225 11.127586-5.488025 6.160718-10.867519 17.000592-5.365159 33.685827l67.151519 203.198234c8.932376 26.989617 58.877502 113.913386 133.89246 192.536516 5.350825 5.611915 5.145024 14.503336-0.466892 19.868495a14.008799 14.008799 0 0 1-9.700289 3.884621z" p-id="15972"></path><path d="M618.612059 928.840098a14.056922 14.056922 0 0 1-11.581166-6.078807l-83.712865-121.378534a14.047707 14.047707 0 0 1 3.594862-19.538804l227.182747-156.668789c6.366519-4.418065 15.107428-2.812613 19.538804 3.594862l83.712864 121.364199a14.047707 14.047707 0 0 1-3.594861 19.538804L626.57072 926.357176a14.013918 14.013918 0 0 1-7.958661 2.482922z m-64.188394-131.833427l67.768921 98.243845 204.049083-140.739181-67.768922-98.230534-204.049082 140.72587zM332.674676 435.478906C238.903163 435.478906 162.626778 359.202521 162.626778 265.445342c0-93.771514 76.276385-170.047899 170.047898-170.047899 93.757179 0 170.033564 76.276385 170.033565 170.047899 0 41.548243-20.787944 79.459645-29.72032 93.840114-4.102708 6.586654-12.747372 8.589374-19.360647 4.51431-6.586654-4.102708-8.603708-12.760683-4.514311-19.360647 15.971587-25.658566 25.493721-55.20073 25.493721-78.992753 0-78.265794-63.666213-141.946342-141.933031-141.946342S190.728334 187.179548 190.728334 265.445342s63.680548 141.933032 141.946342 141.933032c13.487641 0 30.584479-2.853568 45.760507-7.64228 7.367879-2.332411 15.298895 1.770298 17.617995 9.165821 2.346745 7.395524-1.755963 15.285584-9.165821 17.617995-18.016286 5.692802-37.774201 8.958997-54.212681 8.958996z" p-id="15973"></path><path d="M722.248708 678.043483c-2.401011 0-4.802022-0.548803-6.887676-1.660742-8.75422-4.638201-19.648359-10.413938-18.070553-216.439119 1.536852-200.275041-253.499672-287.830547-256.079863-288.694706-7.354568-2.456301-11.320076-10.413938-8.863775-17.78284 2.456301-7.341258 10.387317-11.292431 17.78284-8.863775 11.306766 3.773017 276.949718 95.101541 275.262355 315.561457-1.152895 149.849713 4.898267 185.840306 7.245013 194.101012 0.521158 0.548803 1.00136 1.13856 1.440606 1.783609 4.404755 6.394164 2.799302 15.134049-3.594861 19.538803-2.375414 1.633097-5.311917 2.456301-8.234086 2.456301z" p-id="15974"></path></svg>