<?xml version="1.0" standalone="no"?><!DOCTYPE svg PUBLIC "-//W3C//DTD SVG 1.1//EN" "http://www.w3.org/Graphics/SVG/1.1/DTD/svg11.dtd"><svg t="1517220638273" class="icon" style="" viewBox="0 0 1024 1024" version="1.1" xmlns="http://www.w3.org/2000/svg" p-id="9162" xmlns:xlink="http://www.w3.org/1999/xlink" width="128" height="128"><defs><style type="text/css"></style></defs><path d="M942.154 858.519l-113.17-167.647c62.63-73.015 100.485-167.902 100.485-271.64C929.469 188.672 742.556 1.764 512 1.764S94.537 188.672 94.537 419.232c0 103.736 37.853 198.623 100.482 271.638L81.845 858.519c-7.002 10.37-4.521 24.423 5.592 31.752l35.137 25.512c5.123 3.732 11.571 5.124 17.79 4.034l66.494-12.126 11.873 69.784a23.275 23.275 0 0 0 9.231 14.865l35.137 25.537a23.578 23.578 0 0 0 13.635 4.36c1.348 0 2.691-0.117 4.014-0.37 6.19-1.09 11.688-4.636 15.193-9.858l125.077-185.284a418.812 418.812 0 0 0 90.983 9.973c31.259 0 61.706-3.463 91.004-9.977l125.081 185.289c3.503 5.222 9.001 8.768 15.191 9.858 1.324 0.253 2.667 0.37 4.015 0.37 4.846 0 9.624-1.527 13.614-4.36l35.134-25.537a23.267 23.267 0 0 0 9.231-14.865l11.878-69.784 66.494 12.126c6.214 1.09 12.661-0.302 17.785-4.034l35.137-25.512c10.109-7.329 12.592-21.382 5.589-31.753zM270.938 966.18l-8.072-5.868-14.218-83.607a23.136 23.136 0 0 0-9.552-15.099 23.282 23.282 0 0 0-17.465-3.806L141.8 872.388l-8.973-6.491 95.064-140.832c41.702 38.758 91.336 69.085 146.205 88.284L270.938 966.18zM512 790.314c-204.927 0-371.081-166.131-371.081-371.082C140.919 214.301 307.05 48.151 512 48.151c204.956 0 371.082 166.126 371.082 371.081 0 204.951-166.15 371.082-371.082 371.082z m370.201 82.074L802.373 857.8a23.27 23.27 0 0 0-17.463 3.806 23.124 23.124 0 0 0-9.557 15.099l-14.218 83.607-8.068 5.868-103.163-152.832c54.87-19.199 104.503-49.525 146.206-88.282l95.069 140.83-8.978 6.492zM367.5 210.512c-17.5 0-29-0.5-44-2.5 2.5 15.5 3 33.5 3 85.5 0 122-4 197-13 247-5.5 31.5-13.5 53.5-29 78 10.5 7.5 16.5 13.5 25.5 25 25.5-42 35-80.5 42-169.5h67.5v120c0 13-2.5 15-17.5 15-10 0-23.5-2-37.5-5 4.5 12 6.5 20.5 6.5 32 16 1.5 25.5 2 37.5 2 30.5 0 40-9.5 40-40.5v-339c0-25 0.5-38.5 2-50.5-12 2-22 2.5-38.5 2.5h-44.5z m52 235h-66c0.5-12 1-17.5 1-52.5 0.5-8 0.5-21 1-37h64v89.5z m0-118h-64l0.5-16v-72.5h63.5v88.5z m276.5 112.5c4.5-9 6-12 10.5-19.5l-18-20.5c-9.5 1.5-20 2-38.5 2H517.5c-19 0-31.5-0.5-45.5-2.5v32.5c13.5-1.5 27-2.5 39.5-2.5 17.5 38.5 20 43 31.5 62 12 19 22.5 32.5 39 50-39.5 35-73 55-124.5 74 11.5 10.5 16.5 18 21.5 29 56.5-27 80.5-42.5 124.5-81.5 38 35 75.5 57.5 128.5 79 5.5-12.5 10-19.5 19.5-31-51-16-88-36.5-126.5-69.5 28.5-29.5 52.5-64 71-101.5z m-153.5-10.5h124c-18.5 38.5-33 59.5-63 91.5-27.5-28-40-47-61-91.5z m-57.5-40.5c22-15.5 35-31 46.5-55.5 12.5-26.5 18.5-56 19-97h82v99c0 25.5 11 31 61 31 15 0 26-0.5 46.5-2.5l1.5-31c-11.5 3-28 4.5-45.5 4.5-26 0-33.5-2.5-33.5-11.5v-71.5c0-21 0.5-34 2-47.5-12.5 1.5-23.5 2-42.5 2h-63.5c-13 0-25.5-0.5-40.5-2 1.5 11 2.5 20 2.5 31 0 29.5-4.5 55.5-12.5 74-10.5 24.5-24.5 40-51 54.5 12 6 18.5 11 28 22.5z" fill="" p-id="9163"></path></svg>