<?xml version="1.0" standalone="no"?><!DOCTYPE svg PUBLIC "-//W3C//DTD SVG 1.1//EN" "http://www.w3.org/Graphics/SVG/1.1/DTD/svg11.dtd"><svg t="1517906614138" class="icon" style="" viewBox="0 0 1024 1024" version="1.1" xmlns="http://www.w3.org/2000/svg" p-id="3369" xmlns:xlink="http://www.w3.org/1999/xlink" width="200" height="200"><defs><style type="text/css"></style></defs><path d="M255.855714 991.192803c-4.087085 0-8.207939-0.789992-12.132318-2.416026-11.853979-4.909823-19.583011-16.477276-19.583011-29.30749l0-121.619942c-55.774281-39.102576-102.30606-89.583295-135.219681-146.865929C51.851437 626.470101 32.258193 553.431621 32.258193 479.764831c0-60.693314 12.797467-119.56412 38.038338-174.97615 24.296359-53.339836 59.029418-101.198843 103.234199-142.245701 44.037982-40.892339 95.28004-72.982198 152.302755-95.378278C384.74113 44.029796 447.277418 32.298614 511.705799 32.298614c64.428382 0 126.963647 11.731182 185.871291 34.867112 57.023738 22.396079 108.265796 54.485939 152.303778 95.378278 44.204781 41.046858 78.93784 88.905866 103.234199 142.245701 25.239847 55.412031 38.038338 114.282836 38.038338 174.97615 0 60.694337-12.798491 119.56412-38.038338 174.97615-24.296359 53.339836-59.029418 101.198843-103.234199 142.245701-44.037982 40.892339-95.28004 72.981175-152.303778 95.378278-58.906621 23.134907-121.44291 34.866089-185.871291 34.866089-53.151547 0-105.150852-8.019651-154.878416-23.863501l-78.533634 78.532611C272.225543 987.969389 264.111748 991.192803 255.855714 991.192803zM511.705799 95.743598c-56.456826 0-111.189382 10.253528-162.678056 30.476105-49.606815 19.482727-94.126774 47.346331-132.325771 82.816171-78.027098 72.453149-120.998795 168.600953-120.998795 270.728958 0 62.591547 16.676821 124.700093 48.227398 179.611727 30.721699 53.467749 75.390038 100.142791 129.177058 134.982274 9.027607 5.847172 14.476713 15.869433 14.476713 26.625404l0 61.900815 38.346353-38.346353c8.718569-8.719592 21.696138-11.595083 33.282011-7.378038 48.535413 17.668405 99.840916 26.626427 152.491043 26.626427 56.456826 0 111.189382-10.253528 162.678056-30.475082 49.606815-19.482727 94.126774-47.347354 132.325771-82.817194 78.027098-72.454172 120.998795-168.600953 120.998795-270.728958s-42.971697-198.275809-120.998795-270.728958c-38.197974-35.469839-82.718957-63.333444-132.325771-82.816171C622.895181 105.997126 568.162626 95.743598 511.705799 95.743598z" p-id="3370" fill="#515151"></path><path d="M447.745069 690.831968c-13.094226 0-26.188452-4.995781-36.178991-14.986319L283.644617 547.925211c-19.981077-19.981077-19.981077-52.377928 0-72.359005s52.377928-19.981077 72.359005 0l91.741447 91.741447 219.662909-219.662909c19.9821-19.981077 52.376904-19.981077 72.359005 0 19.981077 19.981077 19.981077 52.377928 0 72.359005L483.924059 675.845649C473.933521 685.836187 460.839295 690.831968 447.745069 690.831968z" p-id="3371" fill="#515151"></path></svg>