<?xml version="1.0" standalone="no"?><!DOCTYPE svg PUBLIC "-//W3C//DTD SVG 1.1//EN" "http://www.w3.org/Graphics/SVG/1.1/DTD/svg11.dtd"><svg t="1517899506505" class="icon" style="" viewBox="0 0 1024 1024" version="1.1" xmlns="http://www.w3.org/2000/svg" p-id="5621" xmlns:xlink="http://www.w3.org/1999/xlink" width="128" height="128"><defs><style type="text/css"></style></defs><path d="M727.466667 309.333333c-12.8-6.4-14.933333-21.333333-6.4-32 6.4-8.533333 12.8-17.066667 17.066666-25.6 40.533333-70.4 38.4-151.466667-8.533333-177.066666-10.666667-6.4-21.333333-8.533333-34.133333-8.533334-12.8 0-23.466667 2.133333-36.266667 8.533334-2.133333 2.133333-6.4 2.133333-8.533333 2.133333-6.4 0-12.8-2.133333-17.066667-8.533333-27.733333-38.4-72.533333-64-123.733333-64s-96 25.6-123.733334 64c-4.266667 6.4-10.666667 8.533333-17.066666 8.533333-2.133333 0-6.4 0-8.533334-2.133333-10.666667-8.533333-23.466667-10.666667-34.133333-10.666667-12.8 0-23.466667 2.133333-34.133333 8.533333-44.8 25.6-49.066667 106.666667-8.533334 177.066667 6.4 8.533333 10.666667 19.2 17.066667 25.6 8.533333 10.666667 6.4 25.6-6.4 32C145.066667 386.133333 42.666667 544 42.666667 725.333333c0 91.733333 29.866667 177.066667 78.933333 247.466667 23.466667 32 61.866667 51.2 102.4 51.2h576c40.533333 0 78.933333-19.2 102.4-51.2C951.466667 902.4 981.333333 817.066667 981.333333 725.333333c0-181.333333-102.4-339.2-253.866666-416z m140.8 637.866667c-14.933333 21.333333-40.533333 34.133333-68.266667 34.133333h-576c-27.733333 0-53.333333-12.8-68.266667-34.133333C110.933333 883.2 85.333333 806.4 85.333333 725.333333c0-160 87.466667-305.066667 230.4-379.733333 17.066667-8.533333 27.733333-23.466667 32-42.666667 4.266667-19.2 0-38.4-12.8-53.333333-4.266667-6.4-10.666667-14.933333-14.933333-21.333333-14.933333-27.733333-21.333333-57.6-21.333333-81.066667 0-19.2 6.4-32 14.933333-36.266667 4.266667-4.266667 8.533333-4.266667 12.8-4.266666 6.4 0 12.8 2.133333 21.333333 4.266666 8.533333 4.266667 17.066667 4.266667 25.6 4.266667 21.333333 0 40.533333-10.666667 53.333334-27.733333 17.066667-27.733333 51.2-44.8 85.333333-44.8s68.266667 17.066667 87.466667 46.933333c12.8 17.066667 32 27.733333 53.333333 27.733333 8.533333 0 17.066667-2.133333 25.6-4.266666 8.533333-2.133333 14.933333-4.266667 21.333333-4.266667 4.266667 0 8.533333 0 12.8 2.133333 19.2 10.666667 25.6 61.866667-6.4 119.466667-4.266667 8.533333-8.533333 14.933333-14.933333 21.333333-12.8 14.933333-17.066667 34.133333-12.8 53.333334 4.266667 19.2 14.933333 34.133333 32 42.666666C851.2 420.266667 938.666667 565.333333 938.666667 725.333333c0 81.066667-25.6 157.866667-70.4 221.866667zM512 448c0 117.333333-96 213.333333-213.333333 213.333333 117.333333 0 213.333333 96 213.333333 213.333334 0-117.333333 96-213.333333 213.333333-213.333334-117.333333 0-213.333333-96-213.333333-213.333333z m0 285.866667c-19.2-27.733333-42.666667-53.333333-72.533333-72.533334 27.733333-19.2 53.333333-42.666667 72.533333-72.533333 19.2 27.733333 42.666667 53.333333 72.533333 72.533333-29.866667 19.2-53.333333 42.666667-72.533333 72.533334z" fill="#666767" p-id="5622"></path></svg>