<?xml version="1.0" standalone="no"?><!DOCTYPE svg PUBLIC "-//W3C//DTD SVG 1.1//EN" "http://www.w3.org/Graphics/SVG/1.1/DTD/svg11.dtd"><svg t="1517222391040" class="icon" style="" viewBox="0 0 1024 1024" version="1.1" xmlns="http://www.w3.org/2000/svg" p-id="10918" xmlns:xlink="http://www.w3.org/1999/xlink" width="128" height="128"><defs><style type="text/css"></style></defs><path d="M277.333333 896v-53.333333c40.106667-19.626667 74.24-50.346667 98.56-87.466667 24.32-37.12 36.693333-78.933333 37.12-125.866667l-0.853333-41.813333-3.84-32.853333H298.666667v-85.333334h102.4a763.733333 763.733333 0 0 1-11.52-117.333333c1.28-69.973333 21.76-124.586667 61.866666-163.84C490.666667 149.333333 544.853333 128 610.986667 128c30.293333 0 56.32 2.986667 77.226666 8.533333 21.333333 5.12 37.12 11.52 50.346667 19.2l-23.466667 74.24c-11.093333-5.973333-24.32-11.52-41.386666-16.64-17.493333-4.266667-38.4-6.4-62.72-6.826666-45.653333 0.853333-77.653333 14.933333-98.986667 42.24-21.333333 26.88-30.293333 61.866667-29.866667 104.533333l4.266667 63.573333 8.533333 52.48h166.4v85.333334h-158.293333c3.84 42.666667 2.133333 85.333333-5.973333 126.293333-12.8 51.2-38.826667 94.72-77.653334 129.706667H768v85.333333H277.333333z" fill="" p-id="10919"></path></svg>