<?xml version="1.0" standalone="no"?><!DOCTYPE svg PUBLIC "-//W3C//DTD SVG 1.1//EN" "http://www.w3.org/Graphics/SVG/1.1/DTD/svg11.dtd"><svg t="1517006674224" class="icon" style="" viewBox="0 0 1200 1024" version="1.1" xmlns="http://www.w3.org/2000/svg" p-id="1024" xmlns:xlink="http://www.w3.org/1999/xlink" width="56.25" height="48"><defs><style type="text/css"></style></defs><path d="M450.909239 885.555409 450.909239 632.409264 497.32675 632.409264 497.32675 908.568694C497.32675 946.698295 466.155867 977.634614 427.687452 977.634614L288.460982 977.634614C249.992568 977.634614 218.821685 946.698295 218.821685 908.568694L218.821685 517.316773 265.239196 517.316773 265.239196 563.343344 265.239196 609.369916 265.239196 885.555409C265.239196 910.992517 286.03716 931.608043 311.656707 931.608043L404.491728 931.608043C430.111275 931.608043 450.909239 910.992517 450.909239 885.555409Z" p-id="1025"></path><path d="M938.254009 977.634614 799.001476 977.634614C760.559124 977.634614 729.388241 946.698295 729.388241 908.568694L729.388241 678.540087 775.805752 678.540087 775.805752 885.555409C775.805752 910.992517 796.577653 931.608043 822.223263 931.608043L915.058285 931.608043C940.677832 931.608043 961.475795 910.992517 961.475795 885.555409L961.475795 609.369916 961.475795 563.343344 961.475795 517.316773 1007.893306 517.316773 1007.893306 908.568694C1007.893306 946.698295 976.722423 977.634614 938.254009 977.634614Z" p-id="1026"></path><path d="M729.388241 931.842606 729.388241 931.608043 729.388241 655.42255C729.388241 629.985442 708.61634 609.369916 682.97073 609.369916L543.744261 609.369916C518.098651 609.369916 497.32675 629.985442 497.32675 655.42255L497.32675 931.608043 497.32675 931.842606 450.909239 931.842606 450.909239 632.409264C450.909239 594.253601 482.080122 563.343344 520.522474 563.343344L706.192517 563.343344C744.634869 563.343344 775.805752 594.253601 775.805752 632.409264L775.805752 931.842606 729.388241 931.842606Z" p-id="1027"></path><path d="M1122.516671 471.290201 628.604123 83.530669C612.679868 67.476101 586.825757 67.476101 570.901502 83.530669L76.988954 471.290201 0.026063 471.290201 561.284398 15.715755C582.525426-5.681649 616.980199-5.681649 638.221227 15.715755L1199.479562 471.290201 1122.516671 471.290201Z" p-id="1028"></path><path d="M1007.789056 197.189717 1007.789056 86.423619C1007.789056 72.037058 996.139068 60.361008 981.726444 60.361008L871.768287 60.361008 871.768287 5.7859 1010.238941 5.7859C1039.038127 5.7859 1062.364164 29.137999 1062.364164 57.911122L1062.364164 197.189717 1007.789056 197.189717Z" p-id="1029"></path></svg>