<?xml version="1.0" standalone="no"?><!DOCTYPE svg PUBLIC "-//W3C//DTD SVG 1.1//EN" "http://www.w3.org/Graphics/SVG/1.1/DTD/svg11.dtd"><svg t="1517222768333" class="icon" style="" viewBox="0 0 1024 1024" version="1.1" xmlns="http://www.w3.org/2000/svg" p-id="14136" xmlns:xlink="http://www.w3.org/1999/xlink" width="128" height="128"><defs><style type="text/css"></style></defs><path d="M478.904743 602.27505c5.169743 3.943822 11.564383 6.15621 18.018376 6.15621 6.604418 0 13.148461-2.330068 18.348903-6.455015l207.951169-166.354795c12.609179-10.130731 14.672164-28.656667 4.602831-41.327244-9.773598-12.163017-29.136597-14.284331-41.297568-4.572132l-189.843766 151.891386-136.263453-106.083084c-12.459776-9.680477-31.644721-7.290033-41.237193 5.14109-4.840238 6.184863-6.962575 13.894452-5.976108 21.694091 0.956791 7.768941 4.900613 14.70184 11.116175 19.542078L478.904743 602.27505z" p-id="14137"></path><path d="M784.123212 88.954985 239.875764 88.954985c-16.196891 0-29.40368 13.178137-29.40368 29.374004l0 787.311323c0 11.17655 6.215562 21.157879 16.105816 26.178219 4.094248 2.152013 8.725732 3.225461 13.297864 3.225461 6.335289 0 12.311397-1.971911 17.391089-5.736655L512.014838 742.482325l254.778684 186.885388c8.695033 6.334265 21.095457 7.291057 30.598902 2.51017 9.950629-5.079692 16.135492-15.061021 16.135492-26.237571L813.527916 481.311047l0-3.437286L813.527916 118.328989C813.526893 102.133122 800.349779 88.954985 784.123212 88.954985zM754.749208 477.873762l0 3.437286 0 366.29757-225.342258-165.247578c-10.130731-7.531534-24.653493-7.531534-34.753525 0L269.280468 847.608617 269.280468 147.702993l485.46874 0L754.749208 477.873762z" p-id="14138"></path></svg>