<?xml version="1.0" standalone="no"?><!DOCTYPE svg PUBLIC "-//W3C//DTD SVG 1.1//EN" "http://www.w3.org/Graphics/SVG/1.1/DTD/svg11.dtd"><svg t="1517223308553" class="icon" style="" viewBox="0 0 1024 1024" version="1.1" xmlns="http://www.w3.org/2000/svg" p-id="18301" xmlns:xlink="http://www.w3.org/1999/xlink" width="128" height="128"><defs><style type="text/css"></style></defs><path d="M953.6 403.2L806.4 128c-12.8-19.2-32-38.4-57.6-38.4H275.2c-25.6 0-44.8 12.8-57.6 38.4L70.4 403.2c-12.8 25.6-6.4 57.6 12.8 76.8l384 435.2c12.8 12.8 32 25.6 51.2 25.6 19.2 0 38.4-6.4 51.2-25.6l377.6-435.2c12.8-19.2 19.2-51.2 6.4-76.8zM512 870.4L128 435.2l147.2-281.6h473.6L896 435.2l-384 435.2z" p-id="18302"></path><path d="M518.4 614.4H512L268.8 352c-12.8-12.8-32-12.8-44.8 0-12.8 12.8-12.8 32 0 44.8l236.8 262.4c12.8 12.8 32 25.6 51.2 25.6 19.2 0 38.4-6.4 51.2-25.6l236.8-262.4c12.8-12.8 12.8-32 0-44.8-12.8-12.8-32-12.8-44.8 0L518.4 614.4z" p-id="18303"></path></svg>