<?xml version="1.0" standalone="no"?><!DOCTYPE svg PUBLIC "-//W3C//DTD SVG 1.1//EN" "http://www.w3.org/Graphics/SVG/1.1/DTD/svg11.dtd"><svg t="1517901193377" class="icon" style="" viewBox="0 0 1024 1024" version="1.1" xmlns="http://www.w3.org/2000/svg" p-id="1873" xmlns:xlink="http://www.w3.org/1999/xlink" width="200" height="200"><defs><style type="text/css"></style></defs><path d="M805.69344 973.0048a93.184 93.184 0 0 1-4.66944-0.1024H203.264c-40.0384 0-63.08864-16.8704-75.3664-31.01696-26.92608-31.0016-24.76032-73.0368-23.552-84.70016v-359.5264h64v363.90912l-0.29696 1.88416c-0.76288 6.4-0.83456 26.27584 8.28928 36.608 1.93024 2.18624 7.80288 8.83712 26.9312 8.83712h600.30976l0.74752 0.08192c2.1504 0.0768 22.31808 0.4352 34.9952-11.55584 8.45312-7.99232 12.74368-21.21216 12.74368-39.29088v-360.7552h64v360.7552c0 45.8752-18.24768 72.3712-33.55648 86.528-27.53536 25.46176-62.4128 28.34944-76.81536 28.34944zM136.35072 527.6928H37.9904A32 32 0 0 1 16.76288 471.7568l472.2176-419.09248a32 32 0 0 1 42.22464-0.22528l478.78144 415.79008a32 32 0 0 1-20.06528 56.14592l-104.93952 3.01568a32 32 0 0 1-1.83808-63.9744l22.9376-0.66048-395.62752-343.5776L122.2656 463.68768h14.08a32 32 0 0 1 0 64z m266.6496 413.51168a26.99776 26.99776 0 0 1-27.00288-26.99776v-225.8432c0-4.86912 1.23904-24.90368 20.0192-43.99616 22.80448-23.17312 61.46048-34.92352 114.90304-34.92352 52.63872 0 90.88 11.90912 113.65376 35.39968 19.2256 19.82976 20.46464 40.704 20.4288 46.24384v222.25408a26.99776 26.99776 0 1 1-54.00064 0v-221.93664c-0.1792-1.16224-1.31072-6.10304-8.01792-11.54048-7.56736-6.13376-26.99776-16.41984-72.064-16.41984-52.2752 0-70.84544 13.14304-76.40576 18.7904-2.72896 2.77504-3.87584 5.14048-4.35712 6.6304a7.8848 7.8848 0 0 0-0.1536 0.54784v224.7936a26.99776 26.99776 0 0 1-27.00288 26.99776z m6.99904-215.19872L400.9984 931.9936l-237.99808-12.99968-16.9984-254.0032 4.99712-165.99552-70.99904-22.99904 429.0048-389.00224 422.99392 368.9984-42.99776 41.00096-18.00192 370.00192-16.9984 57.00096-224 7.99744-3.99872-148.99712-14.0032-100.00384-28.00128-22.99904-54.99904-9.00096-67.9936 6.00064-42.00448 6.00064z" p-id="1874" fill="#515151"></path></svg>