<?xml version="1.0" standalone="no"?><!DOCTYPE svg PUBLIC "-//W3C//DTD SVG 1.1//EN" "http://www.w3.org/Graphics/SVG/1.1/DTD/svg11.dtd"><svg t="1523258064716" class="icon" style="" viewBox="0 0 1059 1024" version="1.1" xmlns="http://www.w3.org/2000/svg" p-id="55007" xmlns:xlink="http://www.w3.org/1999/xlink" width="132.375" height="128"><defs><style type="text/css"></style></defs><path d="M648.490101 1013.692421 648.490101 943.34831C844.095194 897.066596 989.80068 721.769482 989.80068 512 989.80068 302.264649 844.095194 126.967535 648.490101 80.65169L648.490101 34.165189 648.490101 10.341711C882.151323 57.783881 1058.062796 264.345044 1058.062796 512 1058.062796 759.689087 882.151323 966.25025 648.490101 1013.692421ZM68.262116 716.786348C30.547297 716.786348 0 686.239051 0 648.524232L0 375.475768C0 337.79508 30.547297 307.213652 68.262116 307.213652L238.917406 307.213652 546.096927 0.034131 546.096927 1023.965869 238.917406 716.786348 68.262116 716.786348ZM477.834811 853.34471 477.834811 170.723552 273.048463 375.509899 68.262116 375.509899 68.262116 648.558363 273.048463 648.558363 477.834811 853.34471ZM819.14539 494.934471C819.14539 612.550097 749.040197 713.543897 648.490101 759.108859L648.490101 681.392441C709.926005 641.936938 750.883274 573.401773 750.883274 494.934471 750.883274 416.5013 709.926005 347.966136 648.490101 308.510633L648.490101 230.794214C749.040197 276.359176 819.14539 377.352976 819.14539 494.934471Z" p-id="55008"></path></svg>