<?xml version="1.0" standalone="no"?><!DOCTYPE svg PUBLIC "-//W3C//DTD SVG 1.1//EN" "http://www.w3.org/Graphics/SVG/1.1/DTD/svg11.dtd"><svg t="1520406410327" class="icon" style="" viewBox="0 0 1024 1024" version="1.1" xmlns="http://www.w3.org/2000/svg" p-id="3309" xmlns:xlink="http://www.w3.org/1999/xlink" width="128" height="128"><defs><style type="text/css"></style></defs><path d="M512.002558 608.259344c-105.96438 0-192.141088-86.173638-192.141088-192.132902 0-105.96438 86.175685-192.141088 192.141088-192.141088 105.960287 0 192.134949 86.176708 192.134949 192.141088C704.137507 522.086729 617.962845 608.259344 512.002558 608.259344L512.002558 608.259344zM512.002558 288.032042c-70.647013 0-128.095423 57.44841-128.095423 128.095423 0 70.640873 57.44841 128.089283 128.095423 128.089283 70.640873 0 128.089283-57.44841 128.089283-128.089283C640.091842 345.480452 582.643432 288.032042 512.002558 288.032042L512.002558 288.032042zM512.002558 960.517153c-7.945973 0-15.920598-2.946099-22.096251-8.839319-12.778024-12.230556-13.262048-32.504298-1.061169-45.281299 86.591147-90.782609 311.3624-355.838358 311.3624-490.270093 0-158.898986-129.278365-288.210098-288.206004-288.210098-158.898986 0-288.210098 129.310088-288.210098 288.210098 0 75.6694 72.595388 206.224852 204.40439 367.68722 11.209296 13.739932 9.157567 33.911344-4.548596 45.056172-13.706163 11.175527-33.911344 9.155521-45.057195-4.549619C233.36856 646.466528 159.746796 509.117346 159.746796 416.127466c0-194.22147 158.033269-352.254739 352.254739-352.254739 194.217377 0 352.250646 158.034293 352.250646 352.254739 0 187.491185-315.6521 520.403391-329.070714 534.461571C528.873808 957.185268 520.455067 960.517153 512.002558 960.517153L512.002558 960.517153zM512.002558 960.517153" p-id="3310"></path></svg>