<?xml version="1.0" standalone="no"?><!DOCTYPE svg PUBLIC "-//W3C//DTD SVG 1.1//EN" "http://www.w3.org/Graphics/SVG/1.1/DTD/svg11.dtd"><svg t="1517556195069" class="icon" style="" viewBox="0 0 1024 1024" version="1.1" xmlns="http://www.w3.org/2000/svg" p-id="7904" xmlns:xlink="http://www.w3.org/1999/xlink" width="128" height="128"><defs><style type="text/css"></style></defs><path d="M379.78112 779.392c-29.49632-32.15872-60.73344-54.76864-92.89728-67.24608-32.74752-12.67712-74.49088-14.75072-111.6672-5.56032-44.22656 10.93632-76.61568 36.09088-91.1872 70.83008-4.8128 11.4688 0.5888 24.6528 12.0576 29.47072 11.47392 4.8128 24.66304-0.58368 29.47072-12.05248 12.06272-28.70272 43.04896-40.22272 60.45696-44.53376 28.11904-6.93248 60.53888-5.47328 84.60288 3.84 59.18208 22.94272 105.7792 87.55712 134.43072 137.71264 4.15232 7.2704 11.75552 11.37152 19.58912 11.37152 3.7632 0 7.60832-0.9728 11.136-2.9696 10.8032-6.1696 14.57152-19.92704 8.40192-30.73024C424.13056 834.44224 402.46784 804.096 379.78112 779.392L379.78112 779.392zM972.01152 777.41568c-14.57152-34.7392-46.97088-59.89376-91.19232-70.83008-37.18144-9.1904-78.94016-7.1168-111.6928 5.56032-32.128 12.47744-63.37536 35.08736-92.8768 67.24608-22.69184 24.704-44.34944 55.02464-64.39424 90.13248-6.17472 10.8032-2.41152 24.56064 8.3968 30.73024 3.5328 2.00192 7.35232 2.9696 11.14112 2.9696 7.8336 0 15.44192-4.10112 19.58912-11.37152 28.65152-50.16064 75.25376-114.76992 134.4256-137.70752 24.07936-9.3184 56.49408-10.7776 84.608-3.84512 17.41312 4.31104 48.39424 15.83104 60.46208 44.53376 4.80768 11.4688 17.9968 16.87552 29.47072 12.0576C971.4176 802.06848 976.8192 788.88448 972.01152 777.41568L972.01152 777.41568zM855.71072 491.90912c13.37856-38.7584 13.63456-78.83264 13.91104-117.62688 0.02048-6.56896 0.08192-13.3888 0.18944-19.97312 0.16896-9.22624 0.3328-18.4832 0.49664-27.71968 0.77824-40.704 1.55648-82.77504 1.664-124.25728 0.03072-13.55776-5.62688-26.95168-15.5392-36.7616-9.7792-9.72288-22.6048-15.06304-36.03968-15.06304l-1.48992 0c-47.56992 1.39776-87.56736 14.40768-128.50688 31.50336-8.83712-25.14944-21.74464-48.51712-39.16288-70.784-14.40768-18.43712-33.18784-36.87424-51.52256-50.60096C573.22496 40.80128 548.12672 30.72 525.1328 30.72c-35.59424 0-74.70592 24.38144-119.5776 74.51136-19.2768 21.56032-34.432 46.23872-45.15328 73.68704-37.86752-16.90112-73.40032-27.25888-118.22592-28.41088-0.41472-0.01024-0.82432-0.01536-1.23904-0.01536-28.02176 0-51.74784 23.68512-51.74784 51.7632 0 22.24128-0.86016 45.19936-1.80736 69.46304-2.96448 77.69088-6.0672 158.00832 18.8928 230.13376 20.16768 58.40384 59.38688 109.1328 113.4336 146.7136 49.85856 34.67776 109.75232 56.76544 173.17888 63.83104l0.91648 0.11264 21.4272 0.74752 0 280.6016c0 3.52256 2.85696 6.37952 6.37952 6.37952l25.50784 0c3.52256 0 6.37952-2.85696 6.37952-6.37952l0-279.51616C690.88256 707.47648 812.20096 618.27584 855.71072 491.90912L855.71072 491.90912zM716.48768 617.58976c-23.84896 17.45408-50.10432 31.34464-78.0288 41.28256-28.43648 10.12224-58.0864 15.9488-88.1408 17.3312l-53.6064-1.88416c-56.96-6.41536-110.60224-26.17856-155.15136-57.1648-47.3344-32.91648-81.60256-77.1072-99.11296-127.81568-22.5792-65.24928-19.65568-141.824-16.82944-215.8848l0.01024-0.24576c0.85504-22.13888 1.82784-47.23712 1.82784-70.94272 0-6.9376 6.54848-13.49632 13.47584-13.49632 0.08704 0 0.17408 0 0.256 0 35.712 0.91648 65.72544 8.18688 103.6032 25.09312l36.64384 16.3584 14.60224-37.376c9.00608-23.05536 21.80608-43.95008 38.02112-62.08512 36.1728-40.40704 67.6608-61.76256 91.06944-61.76256 14.32064 0 32.16896 7.70048 51.6352 22.27712 15.75936 11.79648 31.90272 27.65824 44.31872 43.5456 14.848 18.97472 25.70752 38.55872 33.19808 59.88352l13.43488 38.25152 37.41696-15.62112c33.56672-14.01856 70.64064-27.16672 114.34496-28.54912l0.90624 0c3.33824 0 6.46656 1.36192 9.05728 3.93728l0.03584 0.03072 0.03584 0.03584c2.63168 2.60096 4.18816 6.13888 4.18304 9.45664-0.10752 39.65952-0.80896 79.45216-1.65888 123.62752l0 0.04608-0.03072 1.85856c-0.1536 8.60672-0.3072 17.23904-0.46592 25.84064l-0.00512 0.03584 0 0.04096c-0.1024 6.21568-0.15872 13.09696-0.19456 20.44928l0 0 0 0.1792c-0.26624 37.2224-0.51712 72.38144-11.82208 105.13408-9.45152 27.44832-23.22432 53.33504-40.94464 76.94336C761.17504 579.584 740.28544 600.17152 716.48768 617.58976L716.48768 617.58976z" p-id="7905"></path></svg>