<?xml version="1.0" standalone="no"?><!DOCTYPE svg PUBLIC "-//W3C//DTD SVG 1.1//EN" "http://www.w3.org/Graphics/SVG/1.1/DTD/svg11.dtd"><svg t="1517899994432" class="icon" style="" viewBox="0 0 1024 1024" version="1.1" xmlns="http://www.w3.org/2000/svg" p-id="7986" xmlns:xlink="http://www.w3.org/1999/xlink" width="128" height="128"><defs><style type="text/css"></style></defs><path d="M779.288 894.577H176.933c-62.28 0-112.944-50.668-112.944-112.943V242.366c0-62.28 50.663-112.944 112.944-112.944h602.355c62.276 0 112.944 50.664 112.944 112.944v88.519c0 10.681-8.657 19.331-19.333 19.331-10.677 0-19.333-8.65-19.333-19.331v-88.519c0-40.958-33.321-74.278-74.279-74.278H176.933c-40.958 0-74.277 33.321-74.277 74.278v539.268c0 40.956 33.32 74.277 74.277 74.277h602.355c40.958 0 74.279-33.321 74.279-74.277V676.831c0-10.676 8.656-19.332 19.333-19.332 10.676 0 19.333 8.656 19.333 19.332v104.803c0 62.276-50.669 112.943-112.945 112.943z m0 0" p-id="7987"></path><path d="M877.983 632.062H607.332c-44.886 0-81.401-36.515-81.401-81.4v-91.57c0-44.884 36.515-81.4 81.4-81.4h270.652c44.884 0 81.4 36.516 81.4 81.4v91.57c0 44.886-36.515 81.4-81.4 81.4zM607.332 416.358c-23.562 0-42.735 19.167-42.735 42.734v91.57c0 23.568 19.172 42.736 42.735 42.736h270.65c23.566 0 42.74-19.167 42.74-42.735v-91.571c0-23.567-19.173-42.734-42.74-42.734h-270.65z m0 0" p-id="7988"></path><path d="M657.188 541.507c-20.196 0-36.63-16.43-36.63-36.631 0-20.197 16.434-36.626 36.63-36.626 20.198 0 36.633 16.429 36.633 36.626 0 20.202-16.435 36.631-36.633 36.631z m0-38.665a2.035 2.035 0 0 0-2.033 2.034c0 1.126 0.913 2.04 2.033 2.04a2.036 2.036 0 1 0 0-4.073z m0 0" p-id="7989"></path></svg>