<?xml version="1.0" standalone="no"?><!DOCTYPE svg PUBLIC "-//W3C//DTD SVG 1.1//EN" "http://www.w3.org/Graphics/SVG/1.1/DTD/svg11.dtd"><svg t="1517906379429" class="icon" style="" viewBox="0 0 1024 1024" version="1.1" xmlns="http://www.w3.org/2000/svg" p-id="2662" xmlns:xlink="http://www.w3.org/1999/xlink" width="200" height="200"><defs><style type="text/css"></style></defs><path d="M512 1024c-281.6 0-512-230.4-512-512s230.4-512 512-512 512 230.4 512 512S793.6 1024 512 1024zM512 64C262.4 64 64 262.4 64 512s198.4 448 448 448 448-198.4 448-448S761.6 64 512 64z" p-id="2663" fill="#515151"></path><path d="M787.2 339.2 236.8 339.2c-19.2 0-32-12.8-32-32s12.8-32 32-32l550.4 0c19.2 0 32 12.8 32 32S806.4 339.2 787.2 339.2z" p-id="2664" fill="#515151"></path><path d="M787.2 544 236.8 544C217.6 544 204.8 531.2 204.8 512s12.8-32 32-32l550.4 0c19.2 0 32 12.8 32 32S806.4 544 787.2 544z" p-id="2665" fill="#515151"></path><path d="M787.2 748.8 236.8 748.8c-19.2 0-32-12.8-32-32s12.8-32 32-32l550.4 0c19.2 0 32 12.8 32 32S806.4 748.8 787.2 748.8z" p-id="2666" fill="#515151"></path></svg>