<?xml version="1.0" standalone="no"?><!DOCTYPE svg PUBLIC "-//W3C//DTD SVG 1.1//EN" "http://www.w3.org/Graphics/SVG/1.1/DTD/svg11.dtd"><svg t="1517205888150" class="icon" style="" viewBox="0 0 1024 1024" version="1.1" xmlns="http://www.w3.org/2000/svg" p-id="3474" xmlns:xlink="http://www.w3.org/1999/xlink" width="128" height="128"><defs><style type="text/css"></style></defs><path d="M807.28626 393.9647l-59.057047 0 0-78.729086c0-130.193201-105.96438-236.099253-236.229213-236.099253S275.770787 185.042413 275.770787 315.235614l0 78.729086-59.057047 0c-32.616862 0-59.057047 26.425859-59.057047 59.025325L157.656693 885.838314c0 32.598442 26.441209 59.025325 59.057047 59.025325l590.57252 0c32.616862 0 59.057047-26.425859 59.057047-59.025325L866.343307 452.989001C866.343307 420.390559 839.903122 393.9647 807.28626 393.9647zM334.827835 315.235614c0-97.644901 79.473029-177.074951 177.172165-177.074951s177.172165 79.43005 177.172165 177.074951l0 78.729086L334.827835 393.9647 334.827835 315.235614zM807.28626 885.838314 216.71374 885.838314 216.71374 452.989001l590.57252 0L807.28626 885.838314z" p-id="3475"></path><path d="M512 777.635963c16.302291 0 29.528524-13.219069 29.528524-29.512151L541.528524 590.723969c0-16.293081-13.226233-29.512151-29.528524-29.512151s-29.528524 13.219069-29.528524 29.512151l0 157.399843C482.471476 764.416893 495.697709 777.635963 512 777.635963z" p-id="3476"></path></svg>