<?xml version="1.0" standalone="no"?><!DOCTYPE svg PUBLIC "-//W3C//DTD SVG 1.1//EN" "http://www.w3.org/Graphics/SVG/1.1/DTD/svg11.dtd"><svg t="1517898998056" class="icon" style="" viewBox="0 0 1024 1024" version="1.1" xmlns="http://www.w3.org/2000/svg" p-id="1214" xmlns:xlink="http://www.w3.org/1999/xlink" width="128" height="128"><defs><style type="text/css"></style></defs><path d="M899.9 93.8l0 312.8L587 406.6 587 93.8 899.9 93.8M430.6 93.8l0 312.8L117.8 406.6 117.8 93.8 430.6 93.8M430.6 563l0 312.8L117.8 875.8 117.8 563 430.6 563M899.9 41.6 587 41.6c-28.8 0-52.1 23.3-52.1 52.1l0 312.8c0 28.8 23.3 52.1 52.1 52.1l312.8 0c28.8 0 52.1-23.3 52.1-52.1L951.9 93.8C952 65 928.7 41.6 899.9 41.6L899.9 41.6zM430.6 41.6 117.8 41.6C89 41.6 65.6 65 65.6 93.8l0 312.8c0 28.8 23.3 52.1 52.1 52.1l312.8 0c28.8 0 52.1-23.3 52.1-52.1L482.6 93.8C482.7 65 459.4 41.6 430.6 41.6L430.6 41.6zM912.9 510.9c-21.6 0-39.1 17.5-39.1 39.1l0 182.5c0 21.6 17.5 39.1 39.1 39.1 21.6 0 39.1-17.5 39.1-39.1L952 550C952 528.4 934.5 510.9 912.9 510.9L912.9 510.9zM756.5 510.9c-21.6 0-39.1 17.5-39.1 39.1l0 338.9c0 21.6 17.5 39.1 39.1 39.1 21.6 0 39.1-17.5 39.1-39.1L795.6 550C795.6 528.4 778.1 510.9 756.5 510.9L756.5 510.9zM600.1 510.9c-21.6 0-39.1 17.5-39.1 39.1l0 52.1c0 21.6 17.5 39.1 39.1 39.1s39.1-17.5 39.1-39.1L639.2 550C639.2 528.4 621.7 510.9 600.1 510.9L600.1 510.9zM430.6 510.9 117.8 510.9c-28.8 0-52.1 23.3-52.1 52.1l0 312.8c0 28.8 23.3 52.1 52.1 52.1l312.8 0c28.8 0 52.1-23.3 52.1-52.1L482.7 563C482.7 534.2 459.4 510.9 430.6 510.9L430.6 510.9zM600.1 693.4c-21.6 0-39.1 17.5-39.1 39.1l0 156.4c0 21.6 17.5 39.1 39.1 39.1s39.1-17.5 39.1-39.1L639.2 732.5C639.2 710.9 621.7 693.4 600.1 693.4L600.1 693.4zM912.9 823.7c-21.6 0-39.1 17.5-39.1 39.1l0 26.1c0 21.6 17.5 39.1 39.1 39.1 21.6 0 39.1-17.5 39.1-39.1l0-26.1C952 841.2 934.5 823.7 912.9 823.7L912.9 823.7z" p-id="1215"></path></svg>