<?xml version="1.0" standalone="no"?><!DOCTYPE svg PUBLIC "-//W3C//DTD SVG 1.1//EN" "http://www.w3.org/Graphics/SVG/1.1/DTD/svg11.dtd"><svg t="1517039633963" class="icon" style="" viewBox="0 0 1024 1024" version="1.1" xmlns="http://www.w3.org/2000/svg" p-id="3467" xmlns:xlink="http://www.w3.org/1999/xlink" width="128" height="128"><defs><style type="text/css"></style></defs><path d="M391.529412 540.611765h240.941176v-60.235294h-240.941176zM391.529412 661.082353h240.941176v-60.235294h-240.941176z" fill="#222222" p-id="3468"></path><path d="M542.117647 757.458824v-301.176471h-60.235294v301.176471z" fill="#222222" p-id="3469"></path><path d="M367.435294 390.023529l126.494118 126.494118 42.164706-42.164706-126.494118-126.494117z" fill="#222222" p-id="3470"></path><path d="M614.4 347.858824l-126.494118 126.494117 42.164706 42.164706 126.494118-126.494118z" fill="#222222" p-id="3471"></path><path d="M271.058824 88.847059h-60.235295c-66.258824 0-120.470588 54.211765-120.470588 120.470588v662.588235c0 66.258824 54.211765 120.470588 120.470588 120.470589h602.352942c66.258824 0 120.470588-54.211765 120.470588-120.470589v-662.588235c0-66.258824-54.211765-120.470588-120.470588-120.470588h-54.211765v60.235294h54.211765c36.141176 0 60.235294 24.094118 60.235294 60.235294v662.588235c0 30.117647-24.094118 60.235294-60.235294 60.235294h-602.352942c-36.141176 0-60.235294-24.094118-60.235294-60.235294v-662.588235c0-30.117647 24.094118-60.235294 60.235294-60.235294h60.235295v-60.235294z" fill="#222222" p-id="3472"></path><path d="M391.529412 149.082353h240.941176v-60.235294h-240.941176v60.235294z m-60.235294-60.235294c0-36.141176 30.117647-60.235294 60.235294-60.235294h240.941176c30.117647 0 60.235294 24.094118 60.235294 60.235294v60.235294c0 36.141176-30.117647 60.235294-60.235294 60.235294h-240.941176c-30.117647 0-60.235294-24.094118-60.235294-60.235294v-60.235294z" fill="#222222" p-id="3473"></path></svg>