<?xml version="1.0" standalone="no"?><!DOCTYPE svg PUBLIC "-//W3C//DTD SVG 1.1//EN" "http://www.w3.org/Graphics/SVG/1.1/DTD/svg11.dtd"><svg t="1517305236600" class="icon" style="" viewBox="0 0 1024 1024" version="1.1" xmlns="http://www.w3.org/2000/svg" p-id="4386" xmlns:xlink="http://www.w3.org/1999/xlink" width="128" height="128"><defs><style type="text/css"></style></defs><path d="M517.870933 148.093156c-19.6608 0-38.923378 1.649778-57.730844 4.687644 8.248889 3.106133 18.545778 4.778667 32.585956 4.107378 48.310044-2.298311 78.244978 6.906311 43.702044 20.730311s-28.114489 28.501333-11.992178 29.650489c16.122311 1.149156 53.703111-16.054044 66.173156-0.9216 12.868267 15.621689-14.4384 41.244444 1.8432 68.926578 24.223289 41.198933-58.629689 50.631111-79.5648 81.521778-20.195556 29.7984-31.584711 61.713067-8.556089 104.493511 23.028622 42.780444 28.444444 16.941511 68.937956 21.629156 79.826489 9.238756 55.933156 71.736889 154.282667 91.306667 37.626311 7.486578 11.764622 89.224533-54.260622 128.6144-63.635911 37.956267-43.542756 81.499022-133.973333 110.535111-21.731556 6.974578-38.263467 2.9696-21.447111-21.208178 32.620089-46.887822 29.787022-99.145956 0-122.538667-29.787022-23.392711-63.1808-28.489956-55.125333-64.512 8.055467-36.022044 39.230578-48.628622 41.449244-81.009778 2.139022-31.232-47.4112-137.534578-109.340444-116.485689-35.373511 12.026311-103.788089-32.9728-100.169956-91.898311 4.1984-68.460089 56.638578-78.9504 44.862578-119.671467-0.034133-0.113778 0.011378-0.261689 0-0.386844-107.576889 61.8496-180.076089 177.846044-180.076089 310.840889 0 197.9392 160.4608 358.4 358.4 358.4s358.4-160.4608 358.4-358.4S715.810133 148.093156 517.870933 148.093156z" p-id="4387"></path></svg>