<?xml version="1.0" standalone="no"?><!DOCTYPE svg PUBLIC "-//W3C//DTD SVG 1.1//EN" "http://www.w3.org/Graphics/SVG/1.1/DTD/svg11.dtd"><svg t="1517221628857" class="icon" style="" viewBox="0 0 1024 1024" version="1.1" xmlns="http://www.w3.org/2000/svg" p-id="1069" xmlns:xlink="http://www.w3.org/1999/xlink" width="128" height="128"><defs><style type="text/css"></style></defs><path d="M595.406618 465.880613c-8.227382 38.529525-42.400692 67.451228-83.385129 67.451228s-75.157747-28.921703-83.385128-67.451228c-110.464881-8.423857-212.922391-33.045627-300.596196-70.39221v521.833972c0 35.344996 28.652574 63.996546 63.996546 63.996547h639.969557c35.344996 0 63.996546-28.652574 63.996546-63.996547V395.488403c-87.674828 37.347606-190.131315 61.968353-300.596196 70.39221z" p-id="1070"></path><path d="M832.005244 42.689265H192.036711c-35.344996 0-63.996546 28.652574-63.996546 63.996546v201.829751c88.385003 60.241013 191.797257 99.782587 303.288514 112.937189 11.211343-34.042327 42.895973-58.779731 80.69281-58.779731s69.481468 24.737404 80.692811 58.779731c111.49228-13.154601 214.903511-52.696176 303.288514-112.937189V106.685811c0-35.344996-28.652574-63.996546-63.99757-63.996546z" p-id="1071"></path></svg>