<?xml version="1.0" standalone="no"?><!DOCTYPE svg PUBLIC "-//W3C//DTD SVG 1.1//EN" "http://www.w3.org/Graphics/SVG/1.1/DTD/svg11.dtd"><svg t="1524213441409" class="icon" style="" viewBox="0 0 1024 1024" version="1.1" xmlns="http://www.w3.org/2000/svg" p-id="2068" xmlns:xlink="http://www.w3.org/1999/xlink" width="200" height="200"><defs><style type="text/css"></style></defs><path d="M853.333333 512c-6.4 0-14.933333-2.133333-21.333333-2.133333V384c0-177.066667-142.933333-320-320-320S192 206.933333 192 384v125.866667c-6.4 0-14.933333 2.133333-21.333333 2.133333-46.933333 0-85.333333-38.4-85.333334-85.333333 0-40.533333 27.733333-74.666667 66.133334-83.2C172.8 162.133333 326.4 21.333333 512 21.333333s339.2 140.8 360.533333 322.133334c38.4 8.533333 66.133333 42.666667 66.133334 83.2 0 46.933333-38.4 85.333333-85.333334 85.333333zM149.333333 390.4c-12.8 6.4-21.333333 21.333333-21.333333 36.266667s8.533333 29.866667 21.333333 36.266666v-72.533333z m725.333334 0v72.533333c12.8-6.4 21.333333-21.333333 21.333333-36.266666s-8.533333-29.866667-21.333333-36.266667z m-552.533334 196.266667l-19.2-19.2c-6.4-6.4-12.8-14.933333-17.066666-21.333334-4.266667-8.533333-10.666667-14.933333-14.933334-23.466666-4.266667-6.4-8.533333-14.933333-10.666666-23.466667 0 0 0-2.133333-2.133334-2.133333-6.4-14.933333-12.8-32-17.066666-49.066667 0-2.133333 0-4.266667-2.133334-4.266667-2.133333-6.4-2.133333-14.933333-4.266666-21.333333v-6.4c-4.266667-44.8 0-93.866667 27.733333-147.2C309.333333 172.8 405.333333 106.666667 512 106.666667c153.6 0 277.333333 123.733333 277.333333 277.333333 0 12.8 0 23.466667-2.133333 36.266667 0 6.4-2.133333 14.933333-4.266667 21.333333 0 2.133333-2.133333 4.266667-2.133333 6.4-4.266667 17.066667-8.533333 32-17.066667 46.933333 0 2.133333-2.133333 2.133333-2.133333 4.266667-4.266667 6.4-6.4 14.933333-10.666667 21.333333v2.133334c-4.266667 8.533333-8.533333 14.933333-14.933333 23.466666-6.4 6.4-10.666667 14.933333-17.066667 21.333334l-19.2 19.2c81.066667 46.933333 147.2 125.866667 177.066667 219.733333 17.066667 49.066667 23.466667 89.6 19.2 136.533333-2.133333 32-32 57.6-64 57.6L192 1002.666667c-34.133333 0-61.866667-25.6-64-57.6v-25.6c0-145.066667 78.933333-268.8 194.133333-332.8zM512 149.333333c-130.133333 0-234.666667 104.533333-234.666667 234.666667s104.533333 234.666667 234.666667 234.666667 234.666667-104.533333 234.666667-234.666667S642.133333 149.333333 512 149.333333zM170.666667 940.8c0 10.666667 10.666667 19.2 21.333333 19.2h635.733333c10.666667 0 23.466667-10.666667 23.466667-21.333333 2.133333-40.533333-4.266667-78.933333-17.066667-117.333334-29.866667-89.6-93.866667-162.133333-172.8-204.8-10.666667 6.4-21.333333 12.8-32 17.066667-12.8 6.4-23.466667 10.666667-38.4 14.933333-10.666667 4.266667-21.333333 6.4-34.133333 8.533334-2.133333 0-6.4 0-8.533333 2.133333-10.666667 2.133333-23.466667 2.133333-36.266667 2.133333-14.933333 0-29.866667-2.133333-42.666667-4.266666h-4.266666c-12.8-2.133333-23.466667-4.266667-36.266667-8.533334-25.6-8.533333-51.2-19.2-72.533333-34.133333C245.333333 669.866667 170.666667 785.066667 170.666667 917.333333v23.466667z" fill="#575962" p-id="2069"></path></svg>