<?xml version="1.0" standalone="no"?><!DOCTYPE svg PUBLIC "-//W3C//DTD SVG 1.1//EN" "http://www.w3.org/Graphics/SVG/1.1/DTD/svg11.dtd"><svg t="1517051293606" class="icon" style="" viewBox="0 0 1024 1024" version="1.1" xmlns="http://www.w3.org/2000/svg" p-id="21243" xmlns:xlink="http://www.w3.org/1999/xlink" width="128" height="128"><defs><style type="text/css"></style></defs><path d="M859.553531 223.46735c-131.266167-0.273397-251.874989-45.271187-347.712244-120.449085-95.882309 75.019185-216.28634 120.176713-347.417344 120.449085-87.404969 286.237962 63.019433 593.928847 347.531004 697.515408C796.534098 817.396197 946.982051 509.705312 859.553531 223.46735zM201.448179 514.182052l310.551821 0L512 160.980375c92.522706 64.419182 199.064407 101.307233 311.691485 107.939403 19.76237 82.987619 18.331902 166.81181-1.178574 245.262275L512 514.182052 512 871.126293c-0.015359 0.006144-0.029695 0.012287-0.045054 0.018431C352.376368 807.140244 240.559241 671.464918 201.448179 514.182052z" p-id="21244"></path></svg>