<?xml version="1.0" standalone="no"?><!DOCTYPE svg PUBLIC "-//W3C//DTD SVG 1.1//EN" "http://www.w3.org/Graphics/SVG/1.1/DTD/svg11.dtd"><svg t="1517205908928" class="icon" style="" viewBox="0 0 1024 1024" version="1.1" xmlns="http://www.w3.org/2000/svg" p-id="3604" xmlns:xlink="http://www.w3.org/1999/xlink" width="128" height="128"><defs><style type="text/css"></style></defs><path d="M789.485849 958.547289 231.866858 958.547289c-56.011688 0-101.387132-50.151213-101.387132-112.022353L130.479727 566.468542c0-61.871139 45.376467-112.022353 101.387132-112.022353l0-84.015486c0-170.142052 124.805494-308.061214 278.808984-308.061214 153.977907 0 278.810007 137.920186 278.810007 308.061214l0 1.749854-0.318248 0c-0.873903 14.600533-11.588943 26.254967-25.035186 26.254967-13.418614 0-24.160259-11.655458-25.009603-26.254967l-0.317225 0 0-1.749854c0-139.206482-102.131075-252.05055-228.128721-252.05055-125.998669 0-228.102115 112.844068-228.102115 252.05055l0 84.015486 506.912122 0c55.984059 0 101.388155 50.151213 101.388155 112.022353l0 280.057417C890.874003 908.396075 845.470931 958.547289 789.485849 958.547289L789.485849 958.547289M840.166111 566.468542c0-30.93557-22.673395-56.011688-50.680263-56.011688L231.866858 510.456854c-28.005844 0-50.707892 25.076118-50.707892 56.011688l0 280.057417c0 30.93557 22.702048 56.010665 50.707892 56.010665l557.620014 0c27.978215 0 50.680263-25.075095 50.680263-56.010665L840.167135 566.468542 840.166111 566.468542M536.003693 728.84063l0 89.678462c0 15.462157-11.32493 28.005844-25.327852 28.005844-14.002922 0-25.352411-12.544711-25.352411-28.005844l0-89.678462c-29.385261-11.603269-50.682309-41.890063-50.682309-78.342276 0-46.408983 34.026978-84.029812 76.03472-84.029812 41.981137 0 76.033697 37.620829 76.033697 84.029812C586.711586 686.950568 565.388954 717.237361 536.003693 728.84063L536.003693 728.84063M510.675842 622.479207c-14.002922 0-25.352411 12.543687-25.352411 28.019147 0 15.44783 11.349489 27.992541 25.352411 27.992541 14.002922 0 25.327852-12.544711 25.327852-27.992541C536.003693 635.022894 524.678764 622.479207 510.675842 622.479207L510.675842 622.479207M510.675842 622.479207 510.675842 622.479207z" p-id="3605"></path></svg>