<?xml version="1.0" standalone="no"?><!DOCTYPE svg PUBLIC "-//W3C//DTD SVG 1.1//EN" "http://www.w3.org/Graphics/SVG/1.1/DTD/svg11.dtd"><svg t="1517218515027" class="icon" style="" viewBox="0 0 1024 1024" version="1.1" xmlns="http://www.w3.org/2000/svg" p-id="2337" xmlns:xlink="http://www.w3.org/1999/xlink" width="128" height="128"><defs><style type="text/css"></style></defs><path d="M608.929951 671.715102c-34.230808 0-60.892995-2.580212-68.461616-3.440282-17.545439-2.064169-30.274483-17.717453-28.210314-35.262893 1.892155-17.545439 17.545439-30.102469 35.262893-28.210314 79.642533 8.77272 201.772552 1.204099 223.102301-43.175542 7.568621-15.825298 26.662187-22.705863 42.659499-14.965228 15.997312 7.568621 22.705863 26.834201 14.965228 42.659499C794.361162 659.330086 683.412061 671.715102 608.929951 671.715102z" p-id="2338" fill="#515151"></path><path d="M896.021502 639.892491c-17.717453 0-31.994625-14.277171-31.994625-31.994625l0-110.261045-42.831514-15.309256c-12.729044-4.472367-21.32975-16.685369-21.32975-30.102469 0-158.769024-129.182597-287.951621-287.951621-287.951621-158.769024 0-287.951621 129.182597-287.951621 287.951621 0 10.320847-4.988409 19.953637-13.417101 25.974131l-18.577524 13.245087 0 116.281539c0 17.717453-14.277171 31.994625-31.994625 31.994625s-31.994625-14.277171-31.994625-31.994625l0-132.794893c0-10.320847 4.988409-19.953637 13.417101-25.974131l18.921552-13.589115c8.77272-186.291282 163.069377-335.255501 351.596842-335.255501C698.377289 100.284226 851.469847 245.980178 863.338821 429.519234l43.51957 15.48127c12.729044 4.472367 21.32975 16.685369 21.32975 30.102469l0 132.794893C928.016126 625.61532 913.738955 639.892491 896.021502 639.892491z" p-id="2339" fill="#515151"></path><path d="M639.892491 783.696288 639.892491 774.063497c28.0383-21.845792 50.400134-43.003528 63.645221-72.761969-29.070385 4.644381-61.581052 2.92424-87.727196 2.92424-31.994625 0-59.344868 0.860071-76.030237-1.032085-35.090879-3.956325-60.376953-38.703175-56.592642-73.794053 3.956325-35.090879 35.778935-60.720981 70.697799-56.592642 71.213842 7.568621 149.82429-0.688056 181.302873-13.933143 1.376113-29.242399 1.032085-60.032925 1.032085-83.426844 0-136.923232-83.254829-218.113892-216.737779-221.038132-0.688056 0-18.749538 0-19.437594 0-133.48295 2.752226-213.469511 84.974971-213.469511 222.070217 0 84.630942 1.376113 222.758273 97.359987 297.756425l0 9.63279c-127.978498 19.953637-226.026541 72.589955-226.026541 142.083655 0 17.717453 14.793214 34.230808 32.510667 34.230808l628.023518 0c17.717453 0 39.907274-16.513355 39.907274-34.230808C858.522426 856.286242 768.043004 803.821939 639.892491 783.696288z" p-id="2340" fill="#515151"></path></svg>