<?xml version="1.0" standalone="no"?><!DOCTYPE svg PUBLIC "-//W3C//DTD SVG 1.1//EN" "http://www.w3.org/Graphics/SVG/1.1/DTD/svg11.dtd"><svg t="1517039846075" class="icon" style="" viewBox="0 0 1024 1024" version="1.1" xmlns="http://www.w3.org/2000/svg" p-id="4371" xmlns:xlink="http://www.w3.org/1999/xlink" width="128" height="128"><defs><style type="text/css"></style></defs><path d="M753.4592 958.1056H232.43264c-18.7136 0-52.54656-8.22784-52.54656-48.08192v-97.24416h-26.55744c-14.10048 0-25.52832-10.55232-25.52832-23.552 0-13.02528 11.42784-23.54176 25.52832-23.54176h26.5984v-96.63488h-26.5984c-14.10048 0-25.52832-10.51648-25.52832-23.58272 0-12.95872 11.42784-23.51616 25.52832-23.51616h26.5984v-97.35168h-26.0608c-14.10048 0-25.53344-10.5216-25.53344-23.58784 0-12.99456 11.43296-23.552 25.52832-23.552h26.0608V380.68224h-28.49792c-14.10048 0-25.52832-10.55232-25.52832-23.58272 0-12.99456 11.42784-23.552 25.52832-23.552h28.50304V237.824c0-24.08448 16.3072-49.64864 53.80096-49.64864h519.74144c43.24864 0 78.2336 32.31232 78.2336 72.20736v625.59744c-0.04608 39.85408-35.0208 72.13056-78.2336 72.13056zM232.1664 236.3392a8.36608 8.36608 0 0 0-0.11776 1.4848v95.7184h25.30304c14.10048 0 25.52832 10.5216 25.52832 23.552s-11.42784 23.58272-25.52832 23.58272h-25.30304v96.8192h27.74016c14.10048 0 25.53344 10.55744 25.53344 23.552 0 13.03552-11.43296 23.58784-25.53344 23.58784h-27.74016v97.3568h27.17184c14.09536 0 25.52832 10.55232 25.52832 23.51104 0 13.06624-11.43296 23.58784-25.52832 23.58784H232.0384v96.62976h27.17184c14.09536 0 25.52832 10.51648 25.52832 23.552 0 12.98944-11.43296 23.54688-25.52832 23.54688H232.0384v97.23904H649.216V236.30336H233.6768c-0.60416 0-1.1008 0-1.52064 0.03584z m547.4048 24.04352c0-13.29664-11.73504-24.07936-26.1376-24.07936h-52.13184v673.75616h52.13184c14.40256 0 26.1376-10.78272 26.1376-24.07936V260.38272z m-276.85888 449.16736h-46.08a11.136 11.136 0 0 1-11.136-11.136v-39.0656a11.136 11.136 0 0 0-11.13088-11.136H377.76384a11.136 11.136 0 0 1-11.136-11.136v-21.54496c0-6.14912 4.98688-11.136 11.136-11.136h56.59648a11.13088 11.13088 0 0 0 9.73312-16.5376l-4.17792-7.5264a11.136 11.136 0 0 0-9.73824-5.72416h-51.08224a11.136 11.136 0 0 1-11.12576-10.71104l-0.896-23.296a11.136 11.136 0 0 1 11.12576-11.56096h27.56608a11.136 11.136 0 0 0 10.21952-15.55456L392.04864 452.3008a11.136 11.136 0 0 1 10.21952-15.55456h46.91456c4.77696 0 9.02144 3.0464 10.5472 7.57248l13.96736 59.33056c3.38432 10.0352 17.55136 10.11712 21.05344 0.12288l15.3088-59.57632a11.136 11.136 0 0 1 10.50624-7.4496h45.2608a11.136 11.136 0 0 1 10.21952 15.55456l-23.936 61.18912a11.136 11.136 0 0 0 10.21952 15.55456h17.4848c6.14912 0 11.136 4.98688 11.136 11.136v23.296a11.136 11.136 0 0 1-11.136 11.13088h-50.65728c-4.0448 0-7.77216 2.19136-9.73312 5.72928l-4.18304 7.5264a11.136 11.136 0 0 0 9.73312 16.5376h54.84544c6.14912 0 11.136 4.98688 11.136 11.136v21.54496a11.136 11.136 0 0 1-11.136 11.13088h-54.84544a11.136 11.136 0 0 0-11.13088 11.136v39.0656a11.136 11.136 0 0 1-11.136 11.14112z" fill="#272636" p-id="4372"></path></svg>