<?xml version="1.0" standalone="no"?><!DOCTYPE svg PUBLIC "-//W3C//DTD SVG 1.1//EN" "http://www.w3.org/Graphics/SVG/1.1/DTD/svg11.dtd"><svg t="1522825238715" class="icon" style="" viewBox="0 0 1024 1024" version="1.1" xmlns="http://www.w3.org/2000/svg" p-id="2728" xmlns:xlink="http://www.w3.org/1999/xlink" width="200" height="200"><defs><style type="text/css"></style></defs><path d="M211.2 358.8H288v281.6h-76.8V358.8z" fill="#29CCB6" p-id="2729"></path><path d="M815.3 833.7c-11.4 0-22.8-5.1-30.3-14.8-13-16.7-10-40.8 6.7-53.9 78.5-61.2 123.5-153.3 123.5-252.6 0-98.3-44.3-189.8-121.4-250.9-16.6-13.2-19.4-37.3-6.3-53.9 13.2-16.6 37.3-19.4 53.9-6.3C937.1 277 992 390.4 992 512.4c0 123.2-55.8 237.4-153.1 313.2-7 5.4-15.4 8.1-23.6 8.1z" fill="#29CCB6" p-id="2730"></path><path d="M749.3 675.7c-9.7 0-19.3-3.6-26.8-10.9-15.2-14.8-15.6-39.1-0.8-54.3 25.7-26.5 39.9-61.3 39.9-98.2 0-37-14.3-71.9-40.1-98.4-14.8-15.2-14.5-39.5 0.6-54.3 15.2-14.8 39.5-14.5 54.3 0.6 40 40.9 62 94.9 62 152.1 0 57-21.9 110.8-61.6 151.7-7.5 7.8-17.5 11.7-27.5 11.7zM620.8 922c-8.3 0-16.5-2-24.1-6L224 717.2H83.2c-28.3 0-51.2-23-51.2-51.2V358.8c0-28.3 22.9-51.2 51.2-51.2H224l372.7-198.8c15.9-8.4 35-8 50.5 1.3C662.6 119.3 672 136 672 154v716.8c0 18-9.4 34.7-24.8 43.9-8.2 4.8-17.3 7.3-26.4 7.3zM134.4 614.8h102.4c8.4 0 16.7 2.1 24.1 6l308.7 164.6V239.3L260.9 403.9c-7.4 4-15.7 6-24.1 6H134.4v204.9z" fill="#4585F5" p-id="2731"></path></svg>