<?xml version="1.0" standalone="no"?><!DOCTYPE svg PUBLIC "-//W3C//DTD SVG 1.1//EN" "http://www.w3.org/Graphics/SVG/1.1/DTD/svg11.dtd"><svg t="1517050987121" class="icon" style="" viewBox="0 0 1024 1024" version="1.1" xmlns="http://www.w3.org/2000/svg" p-id="19343" xmlns:xlink="http://www.w3.org/1999/xlink" width="128" height="128"><defs><style type="text/css"></style></defs><path d="M890.393 720.928h-64.604v-56.966c0-6.303-5.211-11.151-11.391-11.151h-140.24v-45.693h64.481c10.544 0 18.787-8.487 18.787-18.908V436.575c0-8.076-4.841-14.925-11.84-17.699a18.42 18.42 0 0 0-8.352-1.999H672.63V359.911c0-6.303-5.212-11.151-11.392-11.151H521v-45.694h64.482c10.544 0 18.786-8.487 18.786-18.908V132.525c0-10.547-8.242-19.028-18.786-19.028H433.853c-10.667 0-19.154 8.481-19.154 19.028v151.633c0 10.421 8.487 18.908 19.154 18.908h64.237v45.694H357.853c-6.303 0-11.15 4.848-11.15 11.151V416.877H282.1c-10.666 0-19.031 8.487-19.031 19.035v151.627c0 9.867 7.496 17.986 17.34 18.83a19.47 19.47 0 0 0 5.318 0.748h64.237v45.693H209.726c-6.303 0-11.15 4.849-11.15 11.151v56.966H133.973c-10.666 0-19.031 8.486-19.031 19.034v151.625c0 10.427 8.365 18.915 19.031 18.915h151.753c10.182 0 18.785-8.488 18.785-18.915V739.962c0-10.548-8.604-19.034-18.785-19.034H221.12v-45.574h278.74v45.574h-64.602c-10.666 0-19.031 8.486-19.031 19.034v151.625c0 10.427 8.365 18.915 19.031 18.915H589.109c10.425 0 18.666-8.488 18.666-18.915V739.962c0-10.548-8.241-19.034-18.666-19.034h-64.606v-45.574H802.88v45.574h-64.24c-10.665 0-19.15 8.486-19.15 19.034v151.625c0 10.427 8.485 18.915 19.15 18.915H890.393c10.425 0 18.667-8.488 18.667-18.915V739.962c0-10.548-8.243-19.034-18.667-19.034zM266.571 758.99v113.57H152.758V758.99h113.813z m339.226-303.387h112.289v112.908H605.797V455.603zM452.639 265.25V151.554h113.692V265.25H452.639z m-37.941 303.261H304.511V455.603h110.188v112.908zM567.855 758.99v113.57H456.142V758.99h111.713z m83.393-106.179H372.873v-45.693h64.481c10.544 0 18.787-8.487 18.787-18.908V436.575c0-9.998-7.412-18.127-17.166-18.947a18.216 18.216 0 0 0-5.124-0.75h-64.605v-45.575h280.475v45.575h-64.24c-10.666 0-19.151 8.487-19.151 19.035v151.626c0 8.021 5.03 14.877 12.203 17.621a19.303 19.303 0 0 0 8.475 1.957h64.239v45.694z m219.996 219.75H757.427V758.99h113.817v113.571z" fill="" p-id="19344"></path></svg>