<?xml version="1.0" standalone="no"?><!DOCTYPE svg PUBLIC "-//W3C//DTD SVG 1.1//EN" "http://www.w3.org/Graphics/SVG/1.1/DTD/svg11.dtd"><svg t="1517039698963" class="icon" style="" viewBox="0 0 1024 1024" version="1.1" xmlns="http://www.w3.org/2000/svg" p-id="3787" xmlns:xlink="http://www.w3.org/1999/xlink" width="128" height="128"><defs><style type="text/css"></style></defs><path d="M745.630052 229.718817C732.696487 216.607165 711.5264 216.4736 698.414748 229.451687L512.002226 413.83847 325.567443 229.451687C312.478052 216.4736 291.307965 216.607165 278.352139 229.718817 265.374052 242.83047 265.507617 263.978296 278.61927 276.934122L452.009183 448.431861 329.129183 448.431861C310.697183 448.431861 295.737878 463.391165 295.737878 481.823165 295.737878 500.255165 310.697183 515.21447 329.129183 515.21447L478.610922 515.21447 478.610922 613.963687 329.129183 613.963687C310.697183 613.963687 295.737878 628.922991 295.737878 647.354991 295.737878 665.786991 310.697183 680.746296 329.129183 680.746296L478.610922 680.746296 478.610922 833.255513C478.610922 851.687513 493.570226 866.646817 512.002226 866.646817 530.434226 866.646817 545.39353 851.687513 545.39353 833.255513L545.39353 680.746296 694.87527 680.746296C713.30727 680.746296 728.266574 665.786991 728.266574 647.354991 728.266574 628.922991 713.30727 613.963687 694.87527 613.963687L545.39353 613.963687 545.39353 515.21447 694.87527 515.21447C713.30727 515.21447 728.266574 500.255165 728.266574 481.823165 728.266574 463.391165 713.30727 448.431861 694.87527 448.431861L571.973009 448.431861 745.362922 276.934122C758.474574 263.956035 758.608139 242.83047 745.630052 229.718817ZM33.391304 394.284522 187.191652 394.284522C205.623652 394.284522 220.582957 379.325217 220.582957 360.893217 220.582957 342.461217 205.623652 327.501913 187.191652 327.501913L107.074783 327.501913C178.688 169.894957 335.872 66.782609 512 66.782609 757.426087 66.782609 957.106087 266.50713 957.106087 512 957.106087 530.432 972.065391 545.391304 990.497391 545.391304 1008.929391 545.391304 1023.888696 530.432 1023.888696 512 1023.888696 229.665391 794.267826 0 512 0 324.808348 0 156.338087 101.353739 66.782609 259.717565L66.782609 104.20313C66.782609 85.77113 51.823304 70.811826 33.391304 70.811826 14.959304 70.811826 0 85.77113 0 104.20313L0 360.893217C0 379.325217 14.959304 394.284522 33.391304 394.284522ZM990.608696 615.132383 836.786087 615.132383C818.354087 615.132383 803.394783 630.091687 803.394783 648.523687 803.394783 666.955687 818.354087 681.914991 836.786087 681.914991L923.225043 681.914991C855.173565 845.955339 692.246261 957.215165 512 957.215165 266.573913 957.215165 66.893913 757.512904 66.893913 511.997774 66.893913 493.565774 51.934609 478.60647 33.502609 478.60647 15.070609 478.60647 0.111304 493.565774 0.111304 511.997774 0.111304 794.332383 229.732174 1023.997774 512 1023.997774 697.811478 1023.997774 867.617391 921.152557 957.217391 763.968557L957.217391 905.213774C957.217391 923.645774 972.176696 938.605078 990.608696 938.605078 1009.040696 938.605078 1024 923.645774 1024 905.213774L1024 648.523687C1024 630.091687 1009.040696 615.132383 990.608696 615.132383Z" p-id="3788"></path></svg>