<?xml version="1.0" standalone="no"?><!DOCTYPE svg PUBLIC "-//W3C//DTD SVG 1.1//EN" "http://www.w3.org/Graphics/SVG/1.1/DTD/svg11.dtd"><svg t="1523258207874" class="icon" style="" viewBox="0 0 1024 1024" version="1.1" xmlns="http://www.w3.org/2000/svg" p-id="57563" xmlns:xlink="http://www.w3.org/1999/xlink" width="128" height="128"><defs><style type="text/css"></style></defs><path d="M723.2 960h-512C128 960 64 902.4 64 832V192c0-70.4 64-128 147.2-128h262.4c12.8 0 19.2 6.4 19.2 19.2s-6.4 19.2-12.8 19.2H217.6c-64 0-115.2 38.4-115.2 89.6v640c0 51.2 51.2 89.6 108.8 89.6h512c57.6 0 108.8-38.4 108.8-89.6V627.2c0-12.8 6.4-19.2 19.2-19.2s19.2 6.4 19.2 19.2V832c0 70.4-64 128-147.2 128z" fill="" p-id="57564"></path><path d="M620.8 665.6c-6.4 0-6.4 0-12.8-6.4s-6.4-19.2 0-25.6l300.8-422.4c6.4-12.8 12.8-19.2 6.4-32 0-12.8-6.4-19.2-19.2-32l-51.2-38.4c-19.2-12.8-51.2-12.8-64 12.8L480 550.4c-6.4 6.4-19.2 6.4-32 0-6.4-6.4-6.4-12.8 0-25.6l307.2-428.8c25.6-38.4 76.8-44.8 115.2-19.2l51.2 38.4c19.2 12.8 32 32 32 51.2 6.4 19.2 0 44.8-12.8 64L640 652.8c-6.4 6.4-12.8 12.8-19.2 12.8z" fill="" p-id="57565"></path><path d="M889.6 294.4c-6.4 0-6.4 0-12.8-6.4l-153.6-108.8c-6.4-6.4-12.8-19.2-6.4-25.6s19.2-12.8 25.6-6.4L896 256c6.4 6.4 12.8 19.2 6.4 25.6-6.4 6.4-6.4 12.8-12.8 12.8zM448 742.4c-12.8 0-19.2-12.8-19.2-19.2l12.8-185.6c0-12.8 12.8-19.2 19.2-19.2 12.8 0 19.2 12.8 19.2 19.2l-12.8 185.6c0 12.8-12.8 19.2-19.2 19.2z" fill="" p-id="57566"></path><path d="M448 742.4c-6.4 0-12.8-6.4-19.2-12.8-6.4-12.8 0-19.2 12.8-25.6l172.8-76.8c12.8-6.4 19.2 0 25.6 12.8 6.4 12.8 0 19.2-12.8 25.6l-172.8 76.8H448z" fill="" p-id="57567"></path></svg>