<?xml version="1.0" standalone="no"?><!DOCTYPE svg PUBLIC "-//W3C//DTD SVG 1.1//EN" "http://www.w3.org/Graphics/SVG/1.1/DTD/svg11.dtd"><svg t="1517220919285" class="icon" style="" viewBox="0 0 1024 1024" version="1.1" xmlns="http://www.w3.org/2000/svg" p-id="11564" xmlns:xlink="http://www.w3.org/1999/xlink" width="128" height="128"><defs><style type="text/css"></style></defs><path d="M866.86724 150.420895l-33.229822-16.613376C787.988752 205.482955 659.924028 257.152754 508.762259 257.152754c-147.540288 0-272.979208-49.27117-321.370335-118.275777l-31.550577 19.738553c43.438325 61.421908 130.887003 103.56575 230.835366 123.495662-117.743658 43.970444-201.799052 157.976988-201.799052 292.105824 0 172.267459 138.354068 311.881217 309.062008 311.881217 170.708963 0 318.132594-139.649574 318.132594-311.881217 0-66.722634-22.292726-128.412648-59.3272-179.12975l-30.903847 15.624862c33.56956 45.341674 53.880141 100.783381 53.880141 160.835082 0 152.684448-129.936351 276.448216-280.370549 276.448216-150.437268 0-272.371364-123.763768-272.371364-276.448216 0-152.680355 121.934097-276.444123 272.371364-276.444123 3.122107 0 5.296633-0.076748 7.583722-0.192382C651.461285 298.30399 801.975301 253.798357 866.86724 150.420895L866.86724 150.420895zM470.923466 438.756859l-106.004289 106.004289c-14.633279 14.634302-14.633279 38.369889 0 53.004191l106.004289 106.004289c14.634302 14.634302 38.373982 14.634302 53.004191 0l106.004289-106.004289c14.634302-14.634302 14.634302-38.369889 0-53.004191l-106.004289-106.004289C509.297448 424.12358 485.557768 424.12358 470.923466 438.756859L470.923466 438.756859zM594.040505 595.018785l-71.331605 71.295789c-13.107529 13.107529-34.408671 13.107529-47.556109 0l-71.291696-71.295789c-13.107529-13.142322-13.107529-34.404578 0-47.550992l71.291696-71.291696c13.147438-13.147438 34.408671-13.147438 47.556109 0l71.331605 71.291696C607.186919 560.614208 607.186919 581.876464 594.040505 595.018785L594.040505 595.018785zM594.040505 595.018785" p-id="11565"></path></svg>