<?xml version="1.0" standalone="no"?><!DOCTYPE svg PUBLIC "-//W3C//DTD SVG 1.1//EN" "http://www.w3.org/Graphics/SVG/1.1/DTD/svg11.dtd"><svg t="1520317990403" class="icon" style="" viewBox="0 0 1024 1024" version="1.1" xmlns="http://www.w3.org/2000/svg" p-id="27595" xmlns:xlink="http://www.w3.org/1999/xlink" width="128" height="128"><defs><style type="text/css"></style></defs><path d="M311.19 257h620.24c20.29 5.95 26.15 19.42 23.91 37.11L769.94 728c-10.19 14-24.6 23.33-45.17 25.76H82.41Q57.05 751.22 67 710.17l179.2-419.3c15.15-20.67 36.91-31.84 65-33.91z" fill="#00908C" p-id="27596"></path><path d="M311.82 257h183.4c-28.09 2.08-49.85 13.24-65 33.91L251.05 710.17q-10 41 15.38 43.55H83q-25.36-2.5-15.38-43.55l179.2-419.3c15.18-20.68 36.91-31.87 65-33.87z" fill="#E60012" p-id="27597"></path><path d="M495.22 257h225.72c-28.09 2.08-49.85 13.24-65 33.91L476.78 710.17q-10 41 15.38 43.55H266.44q-25.36-2.5-15.38-43.55l179.17-419.3c15.15-20.67 36.91-31.84 65-33.91z" fill="#00508E" p-id="27598"></path><path d="M335.16 436.6H367l0.36 14.31h28.42v27.74H354c-6.83 11.53-20.17 16.17-34.24 12.7l-0.14-22.39c11.78-1.43 16.64-11.31 15.52-32.35z m399 48.46h-23.62l-19.67-29.51c-1.72 1-2.18 4.5-3.9 5.48-2.87 1.64-5.42 0.43-8.29 2.07l0.19 129.38c8.2 5.34 5.5 12.22 6.1 20.45 6.56-1.31 10.7 0.71 17.25-0.61 3.73-12.79 12.08-27.47 16.41-41.08 1-3.14-0.48-6.51 0.39-9.46h-26.19l0.45-25 30.87 0.3c0-5.25 0.61-15.33 0.61-20.58h-31.93V491l92.76 1.51-0.3 24.06-30.57 1.06-0.61 20.73 29.21-0.45 0.15 22.7-30.9 0.43c-2.76 0-1 6.06-2.7 8.65v2c3.94 0.48 8.69-1.49 12.3 1.52 3.32 2.77 1.26 9.68 4 14.25 4.78 7.93 6.26 18.42 19.89 19.82l-0.19 29.34h-20.25c-9.76-12.77-19.62-20.15-23.62-39.43l-3.93 2c-4.34 15.86-11.55 27.39-21.64 37.38h-29.5c-1.12-2.53 0.57-7.69 0.11-8.79-0.76-1.83-3.72 1.14-8-1-1.27 7.15 1.06 6-2.09 9.84-9.57-0.09-18.33 0.31-26.4-1-5-0.81 0.29-7.3-4.76-8.23-12.9-2.38-38.34-0.55-57.25-0.6v-25.66c7.15-1.27 6 1.52 9.84-1.62V441.78c8.52 0.66 17.05 0.1 25.57 0.76 0.66 3.28-0.5 8.68 0.15 12 1.63-1.09 6.48 2.27 6.67 0.22 1.18-12.45 26.59-15.61 50.84-13.16 5.21 0.53-0.46-4.35 5.28-4.63 9.42-0.46 19.43-1.61 29.52-1 4.46 10.17 6.86 17.34 17.71 21.64v27.54z m25.57-47.21h27.54v3.93c6.31 17.16-9.76 32.85-18 42.22l-23.15 0.15-0.17-26.15c10-1.85 10.42-3.63 13.77-10.29v-9.84z m-348 2h22l0.73 15.74c15.75-15.55 37.32-17.21 77.56-14.5l0.2 82.48c0 11.21-10.14 15.59-11.19 17.12l-69.75-0.69 0.32 59.33c1.94 3.45 4.37 6.12 7.51 6.1l20-0.13-0.3 27.51-42.93-0.17c-3.8-0.48-5-3.56-5-7.82l0.88-185.06z m218.39 24.7c-4.73 10-5.11 21-4.77 37.63 11.54-1.23 18-5.3 24.22-11.8-0.66-8.52 0.54-17-0.11-25.5-5.9 0-13.44-0.33-19.34-0.33z m-193.31 4.18v24.9c2-2 4.83-2.82 6.8-4.79 16.22-13.73 22.67-6.56 36.49-10.28v-9.84z m-119 30.14h80.66v21.64H367v23.71h29.51v25.47h-13.82c-6.32 12.2-16.57 26.52-13.77 41.31h21.64v23.61l-37.38 2c-18.79-10.78-17-36.72-15.74-66.89h-21.63v-25.54h21.64v-23.71h-19.68v-21.64z m162.3 20.75l0.49-11.76-42 0.18v11.85l41.49-0.27z m145-3V550c8.52-2 16-3.93 24.49-5.9v-27.57zM496 548h19.45c-0.66 9.18-0.19 19.93-0.85 29.11-7.59 3.18-16.65 2.83-29.06 2.59v6.12c3.09 9.73 1 18.84 10.87 22.71 4.17-4.26 9-3.47 18-3.49-0.66 9.18 0.25 18.36-0.4 27.54-16.31 0.4-29.29 1.68-36.89-3.36-20.19-13.39-15.25-47-24.77-77.3 0.66-1.31 2-2.62 2.64-3.93h21.64c2 5.25 1.92 10.94 3.89 16.18 8.88-0.42 10.38-1.84 15.52-4.38V548z m130.72 17.71v31.48h21.68c-0.66-10.49 0-20.45-0.62-30.94-6.56 0-14.47-0.54-21-0.54z" fill="#FFFFFF" p-id="27599"></path></svg>