<?xml version="1.0" standalone="no"?><!DOCTYPE svg PUBLIC "-//W3C//DTD SVG 1.1//EN" "http://www.w3.org/Graphics/SVG/1.1/DTD/svg11.dtd"><svg t="1517221765622" class="icon" style="" viewBox="0 0 1024 1024" version="1.1" xmlns="http://www.w3.org/2000/svg" p-id="2982" xmlns:xlink="http://www.w3.org/1999/xlink" width="128" height="128"><defs><style type="text/css"></style></defs><path d="M512 65C265.146 65 65 265.146 65 512c0 246.854 200.146 447 447 447 246.854 0 447-200.146 447-447C959 265.146 758.854 65 512 65zM512 921.75c-225.944 0-409.75-183.82-409.75-409.75S286.056 102.25 512 102.25 921.75 286.07 921.75 512 737.944 921.75 512 921.75z" p-id="2983"></path><path d="M537.537 499.981l-10.666-3.347L526.871 309.73l20.327 7.144c21.317 7.508 38.399 22.859 50.607 45.34 1.936 2.867 6.242 4.453 12.514 4.7 4.831-0.204 8.425-2.518 10.753-6.592 2.474-6.563 2.925-11.917 1.252-14.711-21.012-34.747-48.992-55.773-83.188-62.496l-12.266-2.459 0-35.46c0-5.34-1.223-9.517-3.42-12.179-0.814-0.815-3.551-2.692-11.451-2.692-5.166 0-8.949 1.164-11.452 3.419-1.877 1.877-3.157 6.228-3.419 11.452l0 36.653-13.619 1.484c-27.763 2.91-50.709 13.707-68.287 32.172-20.429 20.386-30.993 48.148-31.4 82.459 0 55.074 33.481 91.801 102.321 112.288l10.986 3.216 0 201.703-19.498-5.617c-24.983-7.231-45.893-23.281-62.132-47.639-3.405-4.977-8.57-7.436-16.107-7.712-5.035 0-7.421 1.499-8.993 5.325-2.197 7.916-1.819 14.26 1.077 19.28 22.292 35.198 53.532 56.312 92.805 62.714l12.848 2.037 0 35.242c0 5.907 1.15 10.083 3.419 12.179 0.815 0.814 3.551 2.691 11.452 2.691 4.205 0 7.974-1.31 11.495-3.986 2.241-1.731 3.376-5.384 3.376-10.884l0-35.111 12.659-2.153c24.634-4.249 46.591-15.221 65.245-32.623 23.078-21.812 34.995-49.473 35.402-82.168C640.178 563.35 606.595 521.88 537.537 499.981zM497.129 489.999l-21.651-10.054c-40.48-18.844-61.317-46.403-61.943-81.979 0-25.508 7.857-46.577 23.238-62.51 10.025-11.292 24.402-18.479 42.707-21.404l17.65-2.808L497.13 489.999zM583.096 689.083c-9.982 8.891-22.03 15.934-35.824 20.896l-20.4 7.318L526.872 520.964l22.176 11.131c40.188 20.4 60.865 52.223 61.418 94.653C610.465 651.717 601.27 672.685 583.096 689.083z" p-id="2984"></path></svg>