<?xml version="1.0" standalone="no"?><!DOCTYPE svg PUBLIC "-//W3C//DTD SVG 1.1//EN" "http://www.w3.org/Graphics/SVG/1.1/DTD/svg11.dtd"><svg t="1517220452308" class="icon" style="" viewBox="0 0 1024 1024" version="1.1" xmlns="http://www.w3.org/2000/svg" p-id="8945" xmlns:xlink="http://www.w3.org/1999/xlink" width="128" height="128"><defs><style type="text/css"></style></defs><path d="M512 64C511.872 64 511.68 64 511.552 64c0 0-0.064 0-0.128 0C511.296 64 511.168 64 511.04 64c0 0-0.064 0-0.128 0C510.784 64 510.656 64 510.528 64 510.464 64 510.464 64 510.4 64 510.272 64 510.144 64 510.016 64 509.952 64 509.952 64 509.888 64 509.76 64 509.568 64 509.44 64c0 0 0 0-0.064 0C509.248 64 509.12 64 508.992 64 508.928 64 508.928 64 508.864 64 508.736 64 508.608 64 508.416 64l0 0C508.224 64 508.096 64 507.968 64c0 0-0.064 0-0.128 0C507.712 64 507.584 64 507.456 64c0 0-0.064 0-0.064 0C507.2 64 507.008 64 506.88 64c0 0-0.064 0-0.064 0C506.688 64 506.56 64 506.432 64c0 0-0.064 0-0.064 0C506.176 64 505.984 64 505.856 64l0 0c-0.128 0-0.256 0-0.448 0 0 0-0.064 0-0.128 0-0.128 0-0.256 0-0.384 0 0 0-0.064 0-0.064 0-0.128 0-0.256 0-0.448 0 0 0-0.064 0-0.128 0-0.064 0-0.192 0-0.32 0 0 0-0.064 0-0.128 0-0.128 0-0.32 0-0.448 0 0 0-0.064 0-0.064 0-0.128 0-0.256 0-0.384 0-0.064 0-0.064 0-0.128 0-0.128 0-0.256 0-0.384 0 0 0 0 0-0.064 0-0.128 0-0.32 0-0.448 0-0.064 0-0.064 0-0.128 0-0.064 0-0.192 0-0.32 0 0 0-0.064 0-0.064 0-0.128 0-0.32 0-0.448 0 0 0-0.064 0-0.064 0-0.128 0-0.256 0-0.384 0 0 0-0.064 0-0.128 0-0.128 0-0.256 0-0.448 0 0 0-0.064 0-0.064 0-0.128 0-0.256 0-0.384 0 0 0-0.064 0-0.128 0-0.128 0-0.192 0-0.32 0 0 0-0.064 0-0.128 0-0.128 0-0.256 0-0.448 0 0 0-0.064 0-0.128 0-0.128 0-0.192 0-0.32 0 0 0-0.064 0-0.128 0-0.128 0-0.256 0-0.448 0-0.064 0-0.064 0-0.128 0-0.128 0-0.192 0-0.32 0 0 0-0.064 0-0.128 0-0.128 0-0.192 0-0.32 0 0 0-0.064 0-0.064 0-0.128 0-0.256 0-0.448 0-0.064 0-0.064 0-0.128 0-0.064 0-0.192 0-0.32 0 0 0-0.064 0-0.128 0-0.128 0-0.256 0-0.384 0-0.064 0-0.064 0-0.128 0-0.064 0-0.192 0-0.32 0-0.064 0-0.064 0-0.128 0-0.128 0-0.256 0-0.384 0 0 0-0.064 0-0.128 0-0.128 0-0.192 0-0.32 0-0.064 0-0.064 0-0.128 0-0.128 0-0.192 0-0.32 0-0.064 0-0.064 0-0.128 0-0.128 0-0.256 0-0.384 0-0.064 0-0.064 0-0.128 0-0.064 0-0.192 0-0.32 0-0.064 0-0.064 0-0.128 0-0.128 0-0.256 0-0.384 0-0.064 0-0.064 0-0.128 0-0.064 0-0.192 0-0.32 0-0.064 0-0.064 0-0.128 0-0.128 0-0.256 0-0.32 0-0.064 0-0.128 0-0.128 0-0.128 0-0.256 0-0.384 0-0.064 0-0.128 0-0.192 0-0.064 0-0.192 0-0.256 0-0.064 0-0.064 0-0.128 0-0.128 0-0.256 0-0.384 0 0 0-0.128 0-0.128 0-0.064 0-0.192 0-0.32 0 0 0-0.064 0-0.128 0-0.128 0-0.256 0-0.384 0-0.064 0-0.128 0-0.192 0-0.064 0-0.192 0-0.256 0-0.064 0-0.128 0-0.192 0s-0.128 0-0.256 0c-0.064 0-0.128 0-0.192 0-0.128 0-0.256 0-0.384 0-0.064 0-0.128 0-0.192 0s-0.128 0-0.256 0c-0.064 0-0.128 0-0.192 0-0.128 0-0.256 0-0.384 0-0.064 0-0.128 0-0.192 0s-0.128 0-0.256 0c-0.064 0-0.128 0-0.192 0-0.064 0-0.192 0-0.256 0-0.064 0-0.192 0-0.256 0-0.064 0-0.192 0-0.256 0-0.064 0-0.128 0-0.192 0-0.064 0-0.128 0-0.192 0-0.064 0-0.128 0-0.192 0-0.128 0-0.256 0-0.384 0-0.064 0-0.128 0-0.192 0s-0.128 0-0.192 0c-0.064 0-0.128 0-0.192 0-0.064 0-0.192 0-0.256 0-0.128 0-0.192 0-0.32 0-0.064 0-0.128 0-0.192 0-0.064 0-0.128 0-0.192 0s-0.128 0-0.192 0c-0.128 0-0.256 0-0.32 0-0.064 0-0.192 0-0.256 0-0.064 0-0.128 0-0.256 0-0.064 0-0.128 0-0.192 0-0.064 0-0.128 0-0.256 0 0 0-0.064 0-0.128 0-0.192 0-0.32 0-0.448 0-0.064 0-0.128 0-0.192 0-0.064 0-0.128 0-0.256 0-0.064 0-0.128 0-0.192 0-0.128 0-0.256 0-0.384 0-0.064 0-0.128 0-0.192 0-0.064 0-0.128 0-0.256 0-0.064 0-0.128 0-0.192 0-0.128 0-0.256 0-0.384 0-0.064 0-0.128 0-0.192 0-0.064 0-0.128 0-0.256 0-0.064 0-0.128 0-0.192 0-0.064 0-0.128 0-0.256 0-0.064 0-0.064 0-0.128 0-0.128 0-0.32 0-0.512 0-0.064 0-0.064 0-0.128 0-0.064 0-0.128 0-0.256 0-0.064 0-0.128 0-0.192 0-0.128 0-0.32 0-0.448 0.064 0 0-0.064 0-0.128 0-0.064 0-0.128 0-0.256 0 0 0-0.064 0-0.128 0-0.32 0-0.64 0.064-0.896 0.064-0.064 0-0.064 0-0.128 0-0.064 0-0.128 0-0.256 0 0 0-0.064 0-0.064 0-0.192 0-0.384 0-0.576 0.064 0 0-0.064 0-0.064 0-0.128 0-0.192 0-0.32 0 0 0-0.064 0-0.064 0-0.192 0-0.448 0-0.64 0.064l0 0c-0.064 0-0.192 0-0.256 0 0 0-0.064 0-0.128 0-0.32 0-0.64 0.064-0.96 0.064 0 0-0.064 0-0.064 0-0.064 0-0.192 0-0.32 0 0 0 0 0-0.064 0-0.192 0-0.384 0.064-0.64 0.064l0 0c-0.128 0-0.192 0-0.32 0 0 0-0.064 0-0.064 0-0.32 0-0.64 0.064-0.96 0.064 0 0 0 0-0.064 0-0.128 0-0.192 0-0.32 0 0 0 0 0-0.064 0-0.192 0-0.384 0.064-0.64 0.064l0 0c-0.128 0-0.192 0-0.32 0l0 0c-0.32 0-0.704 0.064-1.024 0.064 0 0-0.064 0-0.064 0-0.32 0-0.704 0.064-1.024 0.128l0 0c-0.448 0-0.96 0.064-1.408 0.128l0 0c-0.32 0-0.704 0.064-1.024 0.064 0 0 0 0 0 0C434.816 69.888 409.792 74.944 385.6 82.112 368.704 87.104 359.04 104.832 364.032 121.728c4.096 13.952 16.896 22.976 30.72 22.976 2.944 0 6.016-0.384 9.024-1.28C438.72 133.184 475.136 128 512 128c17.664 0 32-14.336 32-32S529.664 64 512 64L512 64 512 64zM286.976 129.984c-5.888 0-11.904 1.664-17.216 5.056C267.008 136.832 264.256 138.688 261.568 140.48c0 0 0 0 0 0-3.712 2.56-7.424 5.12-11.008 7.744l0 0C248.832 149.376 247.232 150.592 245.568 151.808l0 0c-0.256 0.192-0.512 0.384-0.832 0.64l0 0C244.544 152.576 244.224 152.768 243.968 152.96c0 0 0 0 0 0C242.56 154.112 241.152 155.136 239.68 156.224c0 0 0 0 0 0C239.488 156.416 239.36 156.544 239.168 156.672l0 0c-0.64 0.448-1.28 0.96-1.856 1.408l0 0C236.992 158.336 236.8 158.528 236.48 158.72c0 0 0 0 0 0C236.224 158.912 235.968 159.104 235.712 159.296c0 0 0 0-0.064 0.064C235.392 159.552 235.136 159.744 234.944 159.936c0 0-0.064 0-0.064 0.064C234.624 160.192 234.368 160.384 234.112 160.576c0 0 0 0 0 0C233.856 160.768 233.6 161.024 233.344 161.216c0 0 0 0-0.064 0.064C233.024 161.408 232.832 161.6 232.576 161.792c0 0 0 0-0.064 0.064C232.256 162.048 232 162.24 231.808 162.432c0 0 0 0-0.064 0.064C231.488 162.688 231.232 162.88 230.976 163.072c0 0-0.064 0-0.064 0C230.656 163.328 230.464 163.52 230.208 163.712c0 0-0.064 0.064-0.064 0.064C229.888 163.968 229.696 164.16 229.44 164.352c0 0-0.064 0-0.064 0.064C229.312 164.48 229.248 164.544 229.12 164.608c0 0 0 0-0.064 0C228.928 164.736 228.8 164.864 228.672 164.992c-0.064 0-0.064 0.064-0.128 0.064C228.48 165.12 228.416 165.184 228.352 165.248c0 0 0 0.064-0.064 0.064C228.16 165.376 228.032 165.504 227.904 165.568c0 0-0.064 0.064-0.128 0.064C227.712 165.76 227.648 165.824 227.584 165.824S227.52 165.952 227.456 165.952C227.328 166.016 227.264 166.144 227.136 166.208c-0.064 0-0.064 0.064-0.128 0.128S226.88 166.464 226.816 166.528c0 0-0.064 0.064-0.128 0.128C226.56 166.656 226.496 166.784 226.368 166.848 226.304 166.912 226.304 166.912 226.24 166.976 226.176 167.04 226.112 167.04 226.048 167.104c0 0-0.064 0.064-0.128 0.128C225.792 167.36 225.664 167.424 225.6 167.488c0 0-0.064 0.064-0.128 0.128-0.064 0-0.128 0.064-0.192 0.128-0.064 0-0.064 0.064-0.128 0.128C225.024 168 224.96 168.064 224.832 168.128 224.768 168.192 224.768 168.192 224.704 168.256 224.64 168.32 224.576 168.384 224.512 168.384c0 0.064-0.064 0.064-0.128 0.128C224.256 168.64 224.128 168.704 224.064 168.768c0 0-0.064 0.064-0.128 0.128C223.872 168.96 223.808 169.024 223.744 169.088c-0.064 0-0.128 0.064-0.192 0.128C223.488 169.28 223.424 169.344 223.36 169.408c-0.064 0-0.128 0.064-0.192 0.128-0.064 0-0.128 0.064-0.192 0.128C222.912 169.728 222.848 169.792 222.784 169.856 222.72 169.92 222.656 169.984 222.592 170.048 222.528 170.112 222.464 170.176 222.4 170.24c-0.064 0-0.128 0.064-0.128 0.128C222.144 170.432 222.08 170.432 222.016 170.496S221.888 170.624 221.824 170.688 221.696 170.816 221.632 170.816C221.568 170.88 221.504 170.944 221.44 171.008 221.376 171.072 221.312 171.072 221.312 171.136 221.248 171.2 221.184 171.264 221.056 171.328 220.992 171.392 220.928 171.456 220.864 171.52S220.736 171.584 220.672 171.648c-0.064 0-0.128 0.064-0.192 0.128 0 0-0.064 0.064-0.128 0.128C220.288 172.032 220.16 172.096 220.096 172.16 220.032 172.224 219.968 172.224 219.968 172.288 219.904 172.352 219.84 172.416 219.776 172.48c-0.064 0-0.064 0.064-0.128 0.064C219.52 172.672 219.392 172.736 219.328 172.8c0 0.064-0.064 0.064-0.128 0.128C219.072 172.992 219.008 173.056 218.944 173.12c0 0-0.064 0.064-0.128 0.064C218.752 173.312 218.688 173.376 218.56 173.44c0 0-0.064 0.064-0.128 0.128C218.368 173.632 218.304 173.696 218.24 173.76c0 0-0.064 0.064-0.128 0.128C217.984 173.952 217.92 174.08 217.792 174.144c-0.064 0-0.064 0.064-0.128 0.064C217.6 174.336 217.536 174.4 217.472 174.464c-0.064 0-0.064 0.064-0.128 0.064C217.28 174.656 217.152 174.72 217.024 174.784c0 0-0.064 0.064-0.064 0.064C216.832 174.976 216.768 175.04 216.704 175.104c0 0-0.064 0.064-0.064 0.128C216.512 175.296 216.384 175.36 216.256 175.488c0 0-0.064 0.064-0.064 0.064C216.064 175.616 216 175.68 215.936 175.808c0 0-0.064 0-0.064 0.064C215.744 175.936 215.616 176 215.552 176.128c0 0-0.064 0.064-0.064 0.064C215.36 176.256 215.296 176.384 215.168 176.448c0 0-0.064 0.064-0.064 0.064C214.976 176.64 214.848 176.704 214.784 176.832c0 0 0 0-0.064 0C214.656 176.96 214.528 177.024 214.464 177.152c0 0-0.064 0-0.064 0.064C214.272 177.28 214.144 177.344 214.016 177.472c0 0-0.064 0-0.064 0.064C213.888 177.6 213.76 177.664 213.696 177.792c0 0-0.064 0-0.064 0.064C213.504 177.92 213.376 178.048 213.312 178.176c0 0 0 0-0.064 0C213.12 178.304 213.056 178.368 212.928 178.432c0 0 0 0-0.064 0.064C212.736 178.624 212.608 178.688 212.544 178.816c0 0 0 0 0 0C212.352 178.944 212.288 179.008 212.16 179.136c0 0 0 0-0.064 0.064C211.904 179.392 211.648 179.584 211.456 179.84c0 0 0 0-0.064 0C211.136 180.032 210.88 180.288 210.688 180.48c0 0 0 0 0 0C210.432 180.736 210.176 180.928 209.92 181.184l0 0c-0.192 0.192-0.448 0.448-0.704 0.64l0 0c-0.256 0.192-0.512 0.448-0.704 0.64 0 0 0 0 0 0C208.192 182.72 208 182.976 207.744 183.168l0 0c-12.096 11.2-23.552 23.04-34.368 35.52C161.792 232.064 163.2 252.288 176.576 263.872 182.656 269.12 190.08 271.68 197.504 271.68c8.96 0 17.856-3.776 24.192-11.072 24-27.712 51.84-51.904 82.688-71.744 14.848-9.536 19.136-29.376 9.536-44.224C307.84 135.168 297.536 129.984 286.976 129.984L286.976 129.984zM133.44 307.264c-12.096 0-23.744 6.912-29.12 18.688-17.472 38.208-29.696 79.36-35.84 122.432C65.984 465.92 78.144 482.112 95.68 484.608c1.536 0.192 3.008 0.32 4.544 0.32 15.68 0 29.376-11.52 31.68-27.52C137.024 421.184 147.328 385.856 162.56 352.576c7.36-16.064 0.256-35.072-15.808-42.432C142.4 308.224 137.92 307.264 133.44 307.264L133.44 307.264zM100.224 539.456c-1.472 0-3.008 0.064-4.544 0.32C78.208 542.272 66.048 558.528 68.544 576c0.832 5.888 1.792 11.776 2.88 17.536l0 0c0.064 0.32 0.128 0.64 0.192 1.024l0 0C71.68 594.88 71.744 595.2 71.808 595.52l0 0.064c0 0.192 0.064 0.32 0.064 0.448 0 0.064 0 0.064 0 0.064 0 0.128 0.064 0.32 0.064 0.448 0 0.064 0 0.064 0 0.064 0 0.128 0.064 0.32 0.064 0.448l0 0.064c0 0.128 0.064 0.32 0.064 0.448 0 0.064 0 0.064 0 0.064 0 0.128 0.064 0.256 0.064 0.448l0 0.064C72.32 598.4 72.384 598.656 72.448 598.976l0 0.064c0 0.192 0.064 0.32 0.064 0.448 0 0 0 0 0 0 0 0.192 0 0.32 0.064 0.448 0 0.064 0 0.128 0 0.128 0 0.128 0.064 0.256 0.064 0.384 0 0.064 0 0.064 0 0.128 0 0.128 0.064 0.256 0.064 0.384 0 0.064 0 0.128 0 0.128 0 0.128 0 0.256 0.064 0.384 0 0 0 0.064 0 0.128 0 0.128 0 0.256 0.064 0.384 0 0.064 0 0.128 0 0.128 0 0.128 0 0.256 0.064 0.384 0 0 0 0.064 0 0.128 0 0.128 0.064 0.256 0.064 0.384 0 0.064 0 0.128 0 0.128 0 0.128 0 0.256 0.064 0.32 0 0.064 0 0.128 0 0.192 0 0.128 0 0.192 0.064 0.32 0 0.064 0 0.128 0 0.192 0 0.128 0.064 0.256 0.064 0.32 0 0.064 0 0.128 0.064 0.192 0 0.128 0 0.192 0 0.32 0 0.064 0 0.064 0 0.128 0 0.128 0.064 0.256 0.064 0.384 0 0.064 0 0.128 0 0.192 0 0.064 0 0.192 0.064 0.256s0 0.128 0 0.192c0 0.128 0.064 0.256 0.064 0.384 0 0.064 0 0.128 0 0.192 0 0.064 0 0.192 0.064 0.256 0 0.064 0 0.128 0 0.192 0 0.128 0.064 0.192 0.064 0.32 0 0.128 0.064 0.192 0.064 0.256 0 0.064 0 0.192 0.064 0.256 0 0.064 0 0.128 0 0.192 0 0.128 0 0.192 0.064 0.256 0 0.128 0 0.256 0.064 0.32s0 0.192 0.064 0.256c0 0.064 0 0.128 0 0.192 0 0.064 0 0.192 0.064 0.256s0 0.192 0.064 0.32c0 0.064 0 0.192 0.064 0.256 0 0.064 0 0.128 0 0.192 0 0.064 0 0.128 0.064 0.192 0 0.128 0 0.192 0 0.256 0 0.128 0.064 0.256 0.064 0.384 0 0.064 0 0.128 0.064 0.192 0 0.064 0 0.128 0 0.192 0 0.128 0 0.192 0.064 0.256 0 0.064 0 0.128 0 0.192 0 0.128 0.064 0.256 0.064 0.448 0 0 0 0.064 0 0.128 0 0.064 0 0.192 0.064 0.256 0 0.064 0 0.128 0 0.192 0 0.128 0.064 0.256 0.064 0.384 0 0.064 0 0.128 0.064 0.192 0 0.128 0 0.192 0 0.256 0 0.064 0 0.128 0.064 0.192 0 0.128 0.064 0.32 0.064 0.448 0 0.064 0 0.064 0 0.128 0 0.128 0 0.192 0.064 0.256 0 0.064 0 0.128 0 0.192 0 0.192 0.064 0.384 0.128 0.576l0 0c0 0.128 0.064 0.192 0.064 0.256 0 0.064 0 0.128 0 0.128 0.064 0.32 0.128 0.64 0.192 0.896 0 0.064 0 0.128 0 0.192 0 0.064 0 0.128 0.064 0.256 0 0 0 0.064 0 0.128 0 0.128 0.064 0.32 0.128 0.448 0 0.064 0 0.128 0 0.192 0 0.064 0 0.128 0.064 0.256 0 0 0 0.064 0 0.128 0 0.128 0.064 0.32 0.064 0.448 0 0.064 0 0.128 0 0.192C76.8 618.688 76.8 618.752 76.8 618.88c0 0 0 0.064 0.064 0.128 0.064 0.32 0.128 0.576 0.192 0.896 0 0 0 0.064 0 0.128 0.064 0.256 0.128 0.576 0.192 0.896 0 0 0 0.064 0 0.128 0 0.064 0.064 0.128 0.064 0.256l0 0.064c0 0.192 0.064 0.384 0.128 0.576l0 0.064c0 0.128 0.064 0.192 0.064 0.32l0 0.064c0.064 0.192 0.064 0.384 0.128 0.576 0 0.064 0 0.064 0 0.064 0 0.128 0.064 0.192 0.064 0.32l0 0.064C78.016 623.488 78.08 623.744 78.08 623.936l0 0c0 0.128 0.064 0.192 0.064 0.32 0 0 0 0.064 0 0.064C78.272 624.64 78.4 624.96 78.464 625.28l0 0.064C78.528 625.6 78.656 625.92 78.72 626.24l0 0.064c0 0.128 0.064 0.192 0.064 0.32 0 0 0 0 0 0.064 0.064 0.192 0.128 0.384 0.128 0.576 0 0.064 0 0.064 0 0.064 0 0.128 0 0.192 0.064 0.32 0 0 0 0 0 0.064 0.064 0.32 0.128 0.64 0.256 0.96 0 0 0 0 0 0.064 0.064 0.32 0.192 0.64 0.256 0.896 0 0.064 0 0.064 0 0.128 0.064 0.32 0.128 0.64 0.256 0.96 0 0 0 0 0 0.064 0.064 0.32 0.128 0.64 0.256 0.96l0 0c0 0.128 0.064 0.256 0.064 0.32 0 0.064 0 0.064 0 0.064C80.32 632.32 80.448 632.64 80.512 632.96l0 0.064C80.64 633.344 80.704 633.6 80.832 633.92l0 0.064c0.064 0.32 0.192 0.64 0.256 0.96 0 0 0 0 0 0.064 0.064 0.32 0.192 0.64 0.256 0.96l0 0C81.472 636.416 81.6 636.8 81.728 637.248c0 0.064 0 0.064 0 0.064 0.064 0.32 0.192 0.64 0.256 0.96 0 0 0 0 0 0.064 0.064 0.32 0.192 0.64 0.256 0.96 0 0 0 0 0 0.064 0.064 0.32 0.192 0.64 0.256 0.96 0 0 0 0 0 0 0.064 0.384 0.192 0.704 0.256 1.024l0 0c0 0.128 0.064 0.256 0.064 0.32l0 0C83.136 641.92 83.2 642.24 83.328 642.56c0 0 0 0 0 0.064 0.064 0.256 0.192 0.64 0.256 0.96 0 0 0 0 0 0 0.064 0.32 0.192 0.64 0.256 0.96 0 0.064 0 0.064 0 0.064 0.128 0.32 0.192 0.64 0.32 0.96 0 0 0 0 0 0.064 0 0.064 0.064 0.192 0.064 0.32l0 0c0.128 0.32 0.192 0.64 0.32 1.024l0 0c0.064 0.32 0.192 0.64 0.32 0.96 0 0 0 0 0 0.064 0.128 0.32 0.192 0.64 0.32 0.96l0 0c0.128 0.32 0.192 0.64 0.32 1.024l0 0c0.128 0.448 0.256 0.896 0.448 1.344l0 0c0.192 0.64 0.384 1.28 0.64 1.92 0 0 0 0 0 0 0.32 1.152 0.704 2.176 1.088 3.264l0 0c0.064 0.32 0.192 0.64 0.32 1.024l0 0c0.128 0.32 0.192 0.64 0.32 0.96l0 0c4.736 13.76 10.112 27.136 16.128 40.256 5.376 11.712 16.96 18.56 29.056 18.56 4.48 0 9.024-0.96 13.312-2.944 16.064-7.36 23.104-26.304 15.744-42.368-15.232-33.344-25.6-68.544-30.784-104.832C129.6 550.976 115.968 539.456 100.224 539.456L100.224 539.456zM197.76 752.64c-7.424 0-14.912 2.56-20.992 7.808-13.312 11.648-14.72 31.808-3.2 45.12 0 0.064 0 0.064 0 0.064 0.064 0.128 0.192 0.256 0.32 0.32 0 0.064 0 0.064 0 0.064 0.064 0.128 0.128 0.192 0.256 0.32 0 0 0 0.064 0 0.064 0.064 0.128 0.192 0.256 0.32 0.384l0 0c0.064 0.128 0.192 0.192 0.32 0.32 0 0 0 0.064 0 0.064 0.064 0.128 0.192 0.256 0.32 0.384l0 0c0.064 0.128 0.192 0.192 0.32 0.32 0 0.064 0 0.064 0 0.064 0.192 0.256 0.384 0.448 0.64 0.704l0 0.064c0.192 0.256 0.448 0.512 0.64 0.704 0 0 0 0.064 0 0.064 0.192 0.256 0.448 0.448 0.64 0.704 0 0 0 0.064 0.064 0.064 0.192 0.256 0.384 0.448 0.64 0.704 0 0 0 0 0 0.064 0.192 0.256 0.384 0.448 0.64 0.704 0 0 0 0 0.064 0.064 0.192 0.256 0.384 0.448 0.64 0.704 0 0 0 0 0 0.064 0.192 0.192 0.448 0.448 0.64 0.704 0 0 0 0 0 0 0.192 0.256 0.448 0.512 0.64 0.768 0 0 0 0 0 0 0.192 0.256 0.384 0.512 0.64 0.704 0 0.064 0 0.064 0 0.064 0.192 0.256 0.448 0.512 0.64 0.704l0 0.064c0.192 0.192 0.448 0.448 0.64 0.704 0 0 0 0 0 0 0.192 0.256 0.448 0.512 0.64 0.768l0 0c0.192 0.256 0.448 0.512 0.64 0.768 0 0 0 0 0 0 0.192 0.256 0.448 0.448 0.64 0.704l0 0c25.28 27.008 53.824 50.816 85.12 70.912 5.312 3.456 11.328 5.056 17.28 5.056 10.56 0 20.864-5.184 26.944-14.656 9.536-14.848 5.248-34.688-9.6-44.224-30.784-19.84-58.688-43.904-82.688-71.616C215.616 756.288 206.72 752.64 197.76 752.64L197.76 752.64zM395.072 879.296c-13.824 0.064-26.624 9.152-30.72 23.04-4.928 16.96 4.8 34.688 21.696 39.68 0.448 0.128 0.896 0.256 1.344 0.384l0 0c0.128 0 0.192 0.064 0.32 0.064 0 0 0 0 0.064 0.064 0.32 0.064 0.576 0.128 0.896 0.256 0 0 0.064 0 0.064 0 0.064 0.064 0.192 0.064 0.256 0.128l0 0c0.192 0 0.32 0.064 0.576 0.128 0 0 0.064 0.064 0.128 0.064s0.128 0 0.256 0.064c0.064 0 0.064 0 0.128 0.064 0.128 0 0.256 0.064 0.384 0.064 0.064 0.064 0.128 0.064 0.192 0.064 0.064 0 0.128 0.064 0.192 0.064s0.128 0.064 0.192 0.064 0.128 0.064 0.192 0.064c0.128 0 0.256 0.064 0.384 0.128 0.064 0 0.064 0 0.192 0 0.064 0.064 0.128 0.064 0.192 0.064 0.064 0.064 0.128 0.064 0.192 0.064 0.064 0.064 0.192 0.064 0.256 0.064 0.064 0.064 0.128 0.064 0.192 0.064 0.064 0.064 0.192 0.064 0.256 0.128 0.064 0 0.064 0 0.192 0 0.064 0.064 0.128 0.064 0.256 0.128 0.064 0 0.064 0 0.128 0 0.128 0.064 0.256 0.064 0.384 0.128 0.064 0 0.064 0 0.128 0.064 0.128 0 0.192 0 0.32 0.064 0 0 0.064 0 0.128 0 0.128 0.064 0.256 0.128 0.384 0.128 0 0 0.064 0 0.064 0 0.128 0.064 0.256 0.064 0.384 0.128 0 0 0.064 0 0.128 0 0.128 0.064 0.256 0.128 0.384 0.128l0 0c0.128 0.064 0.256 0.128 0.448 0.128 0 0 0.064 0 0.064 0.064 0.128 0 0.256 0.064 0.384 0.064l0.064 0c0.128 0.064 0.256 0.128 0.448 0.128l0 0c0.128 0.064 0.256 0.128 0.384 0.128 0 0 0.064 0 0.064 0 0.32 0.128 0.64 0.192 0.896 0.256l0.064 0c0.128 0.064 0.256 0.128 0.448 0.128l0 0c0.32 0.128 0.64 0.192 0.96 0.256l0 0c0.256 0.064 0.576 0.192 0.896 0.256 0 0 0 0 0 0 25.344 6.464 51.456 10.752 78.272 12.608 0 0 0 0 0 0 0.32 0.064 0.64 0.064 0.96 0.128l0 0c0.512 0 1.024 0.064 1.472 0.064l0 0c0.32 0.064 0.64 0.064 1.024 0.064l0 0c0.512 0.064 1.024 0.064 1.472 0.128 0 0 0 0 0 0 0.32 0 0.64 0 0.96 0.064 0 0 0 0 0 0 0.32 0 0.64 0 1.024 0.064 0 0 0 0 0 0 0.128 0 0.32 0 0.448 0l0 0c0.32 0 0.64 0.064 1.024 0.064l0 0c0.32 0 0.64 0.064 1.024 0.064 0 0 0 0 0 0 0.128 0 0.32 0 0.448 0 0 0 0 0 0 0 0.192 0 0.32 0 0.512 0.064l0 0c0.128 0 0.32 0 0.448 0 0 0 0.064 0 0.064 0 0.32 0 0.64 0 0.96 0.064 0 0 0 0 0.064 0 0.32 0 0.64 0 0.96 0 0 0 0 0 0.064 0 0.128 0.064 0.256 0.064 0.448 0.064l0 0c0.128 0 0.32 0 0.512 0l0 0c0.128 0 0.32 0 0.448 0 0 0 0 0 0.064 0 0.32 0.064 0.64 0.064 0.96 0.064 0 0 0.064 0 0.064 0 0.128 0 0.256 0 0.384 0 0 0 0.064 0 0.064 0 0.128 0 0.32 0.064 0.448 0.064 0 0 0 0 0.064 0 0.128 0 0.256 0 0.384 0 0.064 0 0.064 0 0.128 0 0.32 0 0.64 0 0.896 0 0.064 0 0.064 0 0.128 0 0.128 0.064 0.256 0.064 0.384 0.064 0 0 0 0 0.064 0 0.128 0 0.32 0 0.448 0 0 0 0.064 0 0.064 0 0.128 0 0.256 0 0.384 0 0 0 0.064 0 0.064 0 0.128 0 0.32 0 0.448 0l0 0c0.128 0 0.256 0.064 0.448 0.064 0 0 0.064 0 0.064 0 0.128 0 0.256 0 0.448 0l0 0c0.128 0 0.32 0 0.448 0 0 0 0.064 0 0.064 0 0.128 0 0.256 0 0.384 0 0.064 0 0.064 0 0.064 0 0.128 0 0.32 0 0.448 0l0.064 0c0.128 0 0.256 0 0.384 0 0 0.064 0.064 0.064 0.128 0.064 0.128 0 0.256 0 0.448 0l0 0c0.128 0 0.32 0 0.448 0 0 0 0.064 0 0.128 0 0.128 0 0.192 0 0.32 0 0 0 0.064 0 0.128 0 0.128 0 0.256 0 0.448 0 0 0 0.064 0 0.128 0 0.064 0 0.192 0 0.32 0 0 0 0.064 0 0.128 0 0.128 0 0.32 0 0.448 0 0 0 0 0 0.064 0 0.128 0 0.256 0 0.384 0 0.064 0 0.064 0 0.128 0C506.56 959.936 506.688 960 506.816 960c0 0 0.064 0 0.064 0 0.128 0 0.32 0 0.448 0 0.064 0 0.064 0 0.128 0 0.128 0 0.256 0 0.384 0 0 0 0.064 0 0.064 0 0.128 0 0.32 0 0.448 0 0 0 0 0 0.064 0 0.128 0 0.256 0 0.384 0 0 0 0.064 0 0.128 0 0.128 0 0.256 0 0.384 0l0 0c0.128 0 0.32 0 0.448 0 0 0 0.064 0 0.128 0 0.128 0 0.256 0 0.32 0 0.064 0 0.064 0 0.128 0 0.128 0 0.256 0 0.448 0 0 0 0.064 0 0.128 0 0.128 0 0.192 0 0.32 0 0.064 0 0.064 0 0.128 0C511.68 960 511.872 960 512 960c17.664 0 32-14.336 32-32S529.664 896 512 896c-36.736 0-73.024-5.184-107.904-15.36C401.088 879.744 398.08 879.296 395.072 879.296L395.072 879.296zM737.28 829.76c-5.952 0-11.968 1.664-17.344 5.12-30.784 19.968-64.256 35.264-99.328 45.568-16.96 4.992-26.624 22.72-21.696 39.744 4.096 13.952 16.896 22.912 30.656 22.912 3.008 0 6.016-0.384 8.96-1.28 41.536-12.224 80.64-30.336 116.16-53.312 14.72-9.536 19.008-29.312 9.408-44.096C758.08 834.944 747.776 829.76 737.28 829.76L737.28 829.76zM890.752 652.288c-12.096 0-23.744 6.976-29.12 18.752-15.168 33.344-35.072 64.256-59.072 92.032-11.584 13.376-10.112 33.6 3.264 45.184 6.08 5.184 13.504 7.744 20.864 7.744 9.024 0 17.92-3.776 24.256-11.072 0.128-0.128 0.192-0.256 0.32-0.384l0 0c0.128-0.128 0.256-0.256 0.32-0.384l0 0c0.128-0.128 0.256-0.256 0.32-0.384l0.064 0c0.064-0.128 0.192-0.256 0.256-0.32s0.064-0.064 0.064-0.064c0.128-0.128 0.192-0.256 0.32-0.384l0 0c0.128-0.128 0.192-0.192 0.32-0.32 0-0.064 0-0.064 0-0.064 0.128-0.128 0.256-0.256 0.32-0.384l0.064 0c0.064-0.128 0.128-0.256 0.256-0.32 0-0.064 0.064-0.064 0.064-0.128 0.064-0.064 0.192-0.192 0.256-0.32 0.064 0 0.064 0 0.064-0.064 0.064-0.064 0.192-0.192 0.256-0.256 0-0.064 0.064-0.064 0.064-0.128 0.128-0.064 0.192-0.192 0.32-0.32l0-0.064c0.128-0.064 0.192-0.192 0.256-0.256s0.064-0.128 0.128-0.128c0.064-0.128 0.192-0.192 0.256-0.32l0.064-0.064c0.064-0.128 0.128-0.192 0.192-0.256s0.064-0.128 0.128-0.192 0.128-0.128 0.192-0.192 0.128-0.128 0.128-0.192c0.064-0.064 0.128-0.128 0.192-0.256 0.064 0 0.128-0.064 0.128-0.128 0.064-0.064 0.128-0.128 0.192-0.192s0.128-0.128 0.192-0.192c0.064-0.128 0.128-0.192 0.192-0.256 0-0.064 0.064-0.064 0.128-0.128s0.064-0.128 0.128-0.192c0.064-0.128 0.128-0.192 0.192-0.256s0.128-0.128 0.192-0.192 0.064-0.128 0.128-0.192 0.128-0.128 0.128-0.128c0.064-0.128 0.128-0.192 0.192-0.256s0.128-0.128 0.192-0.192 0.128-0.128 0.128-0.192c0.064-0.064 0.128-0.128 0.128-0.128 0.128-0.128 0.192-0.256 0.32-0.384 0 0 0.064-0.064 0.064-0.128 0.064-0.064 0.128-0.128 0.192-0.192l0.064-0.064c0.192-0.256 0.384-0.512 0.576-0.704 0-0.064 0.064-0.064 0.064-0.128 0.192-0.256 0.384-0.448 0.576-0.704 0.064 0 0.064-0.064 0.064-0.064 0.192-0.256 0.448-0.512 0.64-0.768l0 0c0.448-0.576 0.832-1.088 1.28-1.536l0 0c10.368-12.992 19.968-26.496 28.928-40.576l0 0c0.192-0.32 0.384-0.576 0.576-0.896l0 0c0.192-0.32 0.32-0.576 0.512-0.832 0 0 0-0.064 0.064-0.064 0.128-0.256 0.32-0.576 0.448-0.832 0.064 0 0.064-0.064 0.064-0.064 0.064-0.064 0.128-0.192 0.192-0.256l0-0.064c0.128-0.128 0.192-0.32 0.32-0.448 0-0.064 0-0.064 0.064-0.128s0.064-0.128 0.128-0.256c0 0 0.064 0 0.064-0.064 0.064-0.128 0.192-0.32 0.256-0.448 0.064 0 0.064-0.064 0.064-0.064 0.064-0.128 0.128-0.192 0.128-0.256 0.064-0.064 0.064-0.128 0.128-0.128 0.064-0.128 0.128-0.256 0.192-0.384 0.064-0.064 0.064-0.128 0.128-0.128 0-0.064 0.064-0.192 0.128-0.256 0-0.064 0.064-0.064 0.064-0.128 0.064-0.128 0.192-0.256 0.256-0.384 0-0.064 0.064-0.064 0.064-0.128 0.064-0.064 0.064-0.128 0.128-0.192s0.064-0.128 0.128-0.192c0.064-0.128 0.128-0.192 0.192-0.32 0-0.064 0.064-0.128 0.128-0.192 0-0.064 0.064-0.128 0.064-0.192 0.064-0.064 0.128-0.128 0.128-0.192 0.064-0.128 0.128-0.192 0.192-0.256s0.064-0.192 0.128-0.256 0.064-0.128 0.128-0.192c0-0.064 0.064-0.128 0.128-0.192 0-0.064 0.064-0.128 0.064-0.192 0.064-0.128 0.128-0.192 0.192-0.32 0.064-0.064 0.128-0.128 0.128-0.128 0.064-0.128 0.064-0.192 0.128-0.256s0.064-0.128 0.128-0.128c0.064-0.128 0.128-0.256 0.192-0.384 0 0 0.064-0.064 0.064-0.128 0.064-0.064 0.128-0.192 0.192-0.256 0-0.064 0-0.064 0.064-0.128 0.064-0.128 0.128-0.256 0.192-0.384 0.064 0 0.064-0.064 0.064-0.128 0.064-0.064 0.128-0.128 0.192-0.256 0 0 0.064-0.064 0.064-0.128 0.064-0.128 0.128-0.256 0.192-0.384 0.064 0 0.064-0.064 0.064-0.064 0.064-0.128 0.128-0.192 0.192-0.32 0 0 0.064-0.064 0.064-0.128 0.064-0.128 0.128-0.256 0.256-0.384 0 0 0 0 0-0.064 0.064-0.064 0.128-0.192 0.192-0.32 0.064 0 0.064-0.064 0.064-0.064 0.064-0.128 0.192-0.256 0.256-0.384 0-0.064 0-0.064 0-0.064 0.064-0.128 0.128-0.256 0.256-0.384l0-0.064c0.192-0.256 0.32-0.576 0.512-0.832l0-0.064c0.192-0.256 0.32-0.576 0.512-0.832 0 0 0 0 0-0.064 0.192-0.256 0.32-0.576 0.512-0.832l0 0c0.192-0.32 0.32-0.576 0.512-0.896l0 0c0.192-0.32 0.32-0.576 0.512-0.896l0 0c6.656-11.648 12.672-23.552 18.304-35.776 7.296-16.064 0.192-35.072-15.872-42.368C899.712 653.248 895.168 652.288 890.752 652.288L890.752 652.288zM923.776 420.096c-1.472 0-3.072 0.128-4.544 0.32-17.472 2.496-29.632 18.752-27.136 36.224C894.656 474.88 896 493.44 896 512c0 18.176-1.28 36.416-3.84 54.208-2.432 17.472 9.728 33.664 27.264 36.16 1.472 0.192 3.008 0.32 4.48 0.32 15.616 0 29.312-11.52 31.616-27.392 0.512-3.328 0.96-6.656 1.344-10.048 0 0 0 0 0-0.064 0-0.064 0-0.192 0.064-0.32l0 0c0-0.192 0-0.384 0.064-0.576 0 0 0-0.064 0-0.064 0-0.064 0-0.192 0.064-0.256 0-0.064 0-0.064 0-0.128 0-0.064 0-0.128 0-0.256 0-0.128 0.064-0.256 0.064-0.384 0-0.064 0-0.128 0-0.192 0-0.064 0.064-0.128 0.064-0.192 0-0.064 0-0.128 0-0.192 0-0.064 0-0.192 0.064-0.256 0-0.064 0-0.064 0-0.128 0-0.128 0-0.256 0.064-0.384 0-0.064 0-0.128 0-0.128 0-0.128 0-0.192 0-0.32 0 0 0-0.064 0.064-0.128 0-0.128 0-0.256 0-0.448L957.376 560.512c0.064-0.128 0.064-0.256 0.064-0.384 0 0 0-0.064 0-0.128 0-0.128 0.064-0.256 0.064-0.384l0 0c0-0.128 0.064-0.32 0.064-0.448 0 0 0 0 0-0.064 0-0.128 0-0.256 0.064-0.384 0 0 0 0 0-0.064 0-0.32 0.064-0.64 0.064-0.96 0 0 0 0 0 0 1.024-9.792 1.664-19.648 1.984-29.568l0.064 0c0-0.32 0-0.64 0-0.96l0 0c0-0.512 0.064-0.96 0.064-1.472l0 0c0-0.32 0-0.64 0-0.96l0 0c0-0.128 0-0.32 0-0.448 0 0 0 0 0-0.064 0.064-0.32 0.064-0.64 0.064-0.96 0 0 0 0 0-0.064 0-0.32 0-0.64 0-0.96 0 0 0 0 0-0.064 0-0.128 0-0.256 0-0.384 0 0 0 0 0-0.064 0.064-0.32 0.064-0.64 0.064-0.96 0 0 0-0.064 0-0.064 0-0.128 0-0.256 0-0.384 0 0 0 0 0-0.064 0-0.128 0-0.32 0-0.448 0 0 0 0 0-0.064 0-0.128 0-0.256 0-0.384 0-0.064 0-0.064 0-0.128 0-0.32 0-0.576 0-0.896 0 0 0-0.064 0-0.064 0-0.128 0-0.256 0-0.384 0 0 0 0 0-0.064C960 517.312 960 517.184 960 517.056c0 0 0 0 0-0.064 0-0.128 0-0.256 0-0.384 0 0 0-0.064 0-0.064 0-0.128 0-0.256 0-0.384 0 0 0 0 0-0.064 0-0.128 0-0.32 0-0.448 0-0.064 0-0.064 0-0.128 0-0.128 0-0.256 0-0.32 0 0 0-0.064 0-0.128 0-0.128 0-0.32 0-0.448 0 0 0 0 0-0.064 0-0.128 0-0.256 0-0.384 0 0 0-0.064 0-0.128 0-0.128 0-0.256 0-0.32 0 0 0-0.064 0-0.128 0-0.128 0-0.256 0-0.448 0 0 0-0.064 0-0.128 0-0.064 0-0.192 0-0.32 0-0.064 0-0.064 0-0.128C960 512.32 960 512.128 960 512l0 0c0-0.128 0-0.32 0-0.448 0 0 0-0.064 0-0.128 0-0.128 0-0.192 0-0.32 0 0 0-0.064 0-0.128 0-0.128 0-0.256 0-0.448 0-0.064 0-0.064 0-0.128 0-0.064 0-0.192 0-0.32 0 0 0-0.064 0-0.128 0-0.128 0-0.32 0-0.448 0 0 0 0 0 0 0-0.128 0-0.256 0-0.384 0 0 0-0.128 0-0.128 0-0.128 0-0.256 0-0.384 0 0 0 0 0-0.064 0-0.128 0-0.32 0-0.448 0 0 0-0.064 0-0.128 0-0.128 0-0.192 0-0.32 0-0.064 0-0.064 0-0.128 0-0.128 0-0.256 0-0.448 0 0 0-0.064 0-0.064 0-0.128-0.064-0.256-0.064-0.448 0 0 0-0.064 0-0.064 0-0.128 0-0.256 0-0.448l0 0c0-0.128 0-0.32 0-0.448 0 0 0-0.064 0-0.128 0-0.128 0-0.256 0-0.384 0 0 0 0 0-0.064 0-0.128 0-0.32 0-0.448 0 0 0 0 0-0.064 0-0.128 0-0.256 0-0.384 0 0 0-0.064 0-0.064 0-0.32 0-0.64 0-0.96 0 0 0-0.064-0.064-0.064 0-0.128 0-0.32 0-0.448 0 0 0 0 0 0 0-0.128 0-0.32 0-0.448 0 0 0-0.064 0-0.064 0-0.128 0-0.256 0-0.384L959.872 501.248c0-0.192 0-0.32 0-0.512l0 0c0-0.128 0-0.32 0-0.448 0 0 0 0 0-0.064-0.064-0.32-0.064-0.64-0.064-0.96 0 0 0 0 0-0.064 0-0.128 0-0.256 0-0.448 0 0 0 0 0-0.064 0-0.128 0-0.32 0-0.448 0 0 0 0 0 0 0-0.128 0-0.32-0.064-0.448 0 0 0-0.064 0-0.064 0-0.32 0-0.64 0-0.96 0 0 0-0.064 0-0.064 0-0.32 0-0.64-0.064-0.96 0 0 0 0 0-0.064 0-0.128 0-0.32 0-0.448 0 0 0 0 0 0 0-0.32 0-0.64-0.064-1.024l0 0c0-0.32 0-0.64 0-1.024l0 0c0-0.192 0-0.32-0.064-0.512l0 0c0-0.32 0-0.704 0-1.024 0 0 0 0 0 0-0.448-9.28-1.152-18.496-2.112-27.648l0 0c-0.064-0.512-0.064-0.96-0.128-1.472l0 0c-0.064-0.32-0.064-0.64-0.128-0.96 0 0 0 0 0-0.064-0.064-0.32-0.064-0.64-0.128-0.96 0 0 0 0 0-0.064 0-0.128-0.064-0.256-0.064-0.384L956.992 459.968c0-0.128 0-0.32-0.064-0.448 0 0 0 0 0-0.064 0-0.128 0-0.256-0.064-0.384 0-0.064 0-0.064 0-0.128 0-0.128 0-0.256-0.064-0.384l0 0c0-0.128 0-0.32 0-0.448-0.064-0.064-0.064-0.064-0.064-0.128 0-0.128 0-0.192 0-0.32 0 0-0.064-0.064-0.064-0.128 0-0.128 0-0.256 0-0.448-0.064 0-0.064-0.064-0.064-0.128 0-0.064 0-0.192 0-0.256 0-0.064-0.064-0.128-0.064-0.192 0-0.064 0-0.192 0-0.32 0-0.064-0.064-0.128-0.064-0.256s0-0.192 0-0.256c0-0.064-0.064-0.128-0.064-0.192 0-0.064 0-0.128 0-0.192 0-0.064 0-0.128-0.064-0.192 0-0.128 0-0.256 0-0.32S956.288 454.4 956.288 454.336c0 0 0-0.064 0-0.128 0-0.064-0.064-0.192-0.064-0.256 0 0 0-0.064 0-0.064 0-0.192-0.064-0.384-0.064-0.576 0 0 0-0.064 0-0.064 0-0.064-0.064-0.192-0.064-0.32 0 0 0 0 0-0.064-0.064-0.32-0.064-0.64-0.128-1.024l0 0c-0.192-1.408-0.384-2.88-0.64-4.288C953.088 431.616 939.392 420.096 923.776 420.096L923.776 420.096zM825.92 207.04c-7.424 0-14.912 2.624-20.992 7.872-13.312 11.584-14.656 31.808-3.136 45.12 24.128 27.712 44.096 58.624 59.392 91.904 5.376 11.712 16.96 18.688 29.056 18.688 4.48 0 9.024-0.96 13.376-2.944 16-7.36 23.04-26.304 15.744-42.368-2.56-5.632-5.248-11.136-8.064-16.64 0 0 0 0 0 0-0.192-0.256-0.32-0.576-0.448-0.832 0 0-0.064 0-0.064-0.064-0.064-0.064-0.064-0.192-0.128-0.256l0 0c-0.128-0.192-0.192-0.384-0.32-0.576 0 0 0 0 0-0.064-0.064-0.064-0.128-0.128-0.128-0.256-0.064 0-0.064-0.064-0.064-0.064-0.064-0.192-0.192-0.32-0.256-0.512 0 0 0-0.064-0.064-0.064 0-0.064-0.064-0.128-0.128-0.256 0 0 0-0.064-0.064-0.064-0.064-0.128-0.128-0.32-0.192-0.448C909.44 305.088 909.44 305.024 909.44 305.024c-0.064-0.064-0.128-0.128-0.128-0.192-0.064-0.064-0.064-0.064-0.064-0.128-0.064-0.128-0.192-0.256-0.256-0.384 0-0.064 0-0.064-0.064-0.128 0-0.064-0.064-0.128-0.128-0.256 0 0 0-0.064-0.064-0.128-0.064-0.128-0.128-0.256-0.192-0.384 0-0.064-0.064-0.128-0.064-0.128-0.064-0.064-0.128-0.128-0.128-0.192-0.064-0.064-0.064-0.128-0.128-0.192 0-0.064-0.064-0.128-0.128-0.192 0-0.064-0.064-0.192-0.128-0.256 0-0.064-0.064-0.128-0.128-0.192 0-0.064-0.064-0.128-0.064-0.192-0.064-0.064-0.064-0.128-0.128-0.192-0.064-0.128-0.128-0.192-0.192-0.32 0 0-0.064-0.128-0.064-0.128-0.064-0.064-0.064-0.128-0.128-0.192 0-0.064-0.064-0.128-0.064-0.128-0.064-0.128-0.128-0.256-0.192-0.32-0.064-0.064-0.064-0.128-0.128-0.192 0-0.064-0.064-0.128-0.128-0.192 0 0-0.064-0.064-0.064-0.128-0.064-0.128-0.128-0.192-0.192-0.32 0 0-0.064-0.064-0.064-0.128-0.064-0.064-0.128-0.192-0.128-0.256-0.064 0-0.064-0.064-0.128-0.128-0.064-0.128-0.128-0.256-0.192-0.32 0-0.064 0-0.064-0.064-0.128 0-0.064-0.064-0.192-0.128-0.256-0.064-0.064-0.064-0.064-0.064-0.128-0.064-0.128-0.128-0.256-0.192-0.384-0.064 0-0.064-0.064-0.064-0.064-0.064-0.064-0.128-0.192-0.192-0.32 0 0-0.064-0.064-0.064-0.128-0.064-0.064-0.128-0.192-0.192-0.32 0 0-0.064-0.064-0.064-0.064-0.064-0.064-0.128-0.192-0.192-0.32 0 0 0-0.064-0.064-0.128-0.064-0.128-0.128-0.256-0.192-0.384l0 0c-0.064-0.128-0.128-0.256-0.192-0.384-0.064-0.064-0.064-0.064-0.064-0.128-0.064-0.128-0.192-0.256-0.256-0.384l0 0c-0.064-0.128-0.128-0.256-0.192-0.384 0 0-0.064-0.064-0.064-0.064-0.128-0.256-0.32-0.512-0.448-0.768 0 0-0.064-0.064-0.064-0.064-0.128-0.256-0.32-0.576-0.448-0.832 0 0 0-0.064-0.064-0.064-0.128-0.256-0.32-0.576-0.448-0.832 0 0 0 0 0 0-0.192-0.256-0.32-0.576-0.512-0.832l0 0c-0.192-0.256-0.32-0.576-0.512-0.896l0 0c-0.192-0.256-0.32-0.576-0.512-0.896l0 0c-12.416-21.696-26.688-42.304-42.432-61.504-0.064 0 0 0-0.064 0-0.192-0.256-0.384-0.512-0.64-0.768 0 0 0 0 0 0-0.192-0.256-0.384-0.448-0.64-0.704 0 0 0 0 0 0-0.128-0.128-0.192-0.256-0.32-0.384l0 0c-0.064-0.128-0.192-0.256-0.32-0.384l0 0c-0.128-0.128-0.192-0.192-0.32-0.32 0 0 0 0 0 0-0.128-0.128-0.192-0.192-0.32-0.32 0 0 0 0-0.064-0.064-0.064-0.064-0.128-0.192-0.256-0.256 0 0 0-0.064-0.064-0.064-0.064-0.064-0.192-0.192-0.256-0.32 0 0-0.064-0.064-0.064-0.064C855.168 224 855.04 223.936 854.976 223.808c0 0-0.064-0.064-0.064-0.128-0.064-0.064-0.192-0.192-0.256-0.256-0.064 0-0.064-0.064-0.128-0.128-0.064-0.064-0.128-0.128-0.192-0.192 0-0.064-0.064-0.064-0.064-0.128-0.128-0.064-0.192-0.192-0.256-0.32-0.064 0-0.128-0.064-0.128-0.128-0.064-0.064-0.128-0.128-0.192-0.192s-0.064-0.064-0.128-0.128c-0.064-0.064-0.128-0.128-0.192-0.256-0.064-0.064-0.128-0.128-0.192-0.192s-0.064-0.064-0.128-0.128-0.128-0.128-0.128-0.192c-0.064 0-0.128-0.064-0.128-0.128-0.128-0.064-0.192-0.192-0.32-0.32 0-0.064-0.064-0.064-0.064-0.128-0.064-0.064-0.128-0.128-0.192-0.192 0 0-0.064-0.064-0.064-0.064-0.128-0.128-0.256-0.256-0.384-0.384 0 0 0 0-0.064-0.064-0.064-0.064-0.128-0.128-0.192-0.192 0 0 0 0 0-0.064-0.128-0.128-0.256-0.256-0.384-0.448-0.064 0-0.064 0-0.064 0-0.064-0.064-0.128-0.128-0.192-0.256 0 0 0 0-0.064 0-0.256-0.32-0.576-0.704-0.896-1.024C843.776 210.752 834.88 207.04 825.92 207.04L825.92 207.04zM628.48 80.512c-13.824 0-26.624 9.088-30.656 23.04-4.928 16.96 4.8 34.688 21.824 39.68 35.072 10.24 68.48 25.472 99.456 45.312 5.312 3.392 11.328 5.056 17.28 5.056 10.496 0 20.8-5.248 26.944-14.72 9.472-14.848 5.248-34.624-9.536-44.16-1.28-0.768-2.432-1.536-3.648-2.304l0 0c-0.32-0.192-0.576-0.32-0.896-0.512 0 0 0 0 0 0-0.256-0.128-0.576-0.32-0.832-0.512l-0.064 0c-0.256-0.128-0.512-0.32-0.832-0.512 0 0 0 0-0.064 0-0.064-0.064-0.192-0.064-0.256-0.128 0 0 0 0 0 0-0.192-0.064-0.32-0.192-0.512-0.256-0.064 0-0.064-0.064-0.128-0.064-0.064-0.064-0.128-0.064-0.192-0.128-0.064 0-0.128 0-0.128-0.064-0.128-0.064-0.256-0.128-0.384-0.192-0.064 0-0.128-0.064-0.192-0.064-0.064-0.064-0.128-0.064-0.192-0.128s-0.128-0.064-0.128-0.064c-0.128-0.064-0.256-0.128-0.384-0.192-0.064 0-0.064-0.064-0.128-0.064s-0.128-0.064-0.192-0.128-0.192-0.064-0.256-0.128c0 0-0.064-0.064-0.128-0.064-0.128-0.064-0.256-0.128-0.32-0.192-0.064 0-0.128-0.064-0.192-0.064s-0.128-0.064-0.192-0.128-0.128-0.064-0.192-0.064c-0.128-0.064-0.192-0.128-0.32-0.192-0.064 0-0.128 0-0.128-0.064C742.848 128 742.784 128 742.72 127.936c-0.064 0-0.128-0.064-0.128-0.064-0.128-0.064-0.256-0.128-0.384-0.192 0 0-0.064-0.064-0.128-0.064s-0.192-0.064-0.256-0.128c-0.064 0-0.064 0-0.128-0.064-0.128-0.064-0.256-0.128-0.384-0.192l-0.064 0c-0.128-0.064-0.192-0.128-0.32-0.192 0 0-0.064-0.064-0.128-0.064-0.128-0.064-0.256-0.128-0.32-0.192-0.064 0-0.064 0-0.128-0.064-0.064-0.064-0.192-0.128-0.32-0.128 0 0-0.064-0.064-0.064-0.064-0.256-0.128-0.512-0.256-0.832-0.448 0 0-0.064 0-0.064-0.064-0.256-0.128-0.512-0.256-0.768-0.448-0.064 0-0.064 0-0.128-0.064-0.128-0.064-0.256-0.128-0.384-0.192l0 0c-0.128-0.064-0.256-0.128-0.384-0.256-0.064 0-0.064 0-0.064 0-0.128-0.064-0.256-0.128-0.384-0.192l-0.064 0c-0.128-0.064-0.256-0.128-0.384-0.256 0 0-0.064 0-0.064 0-0.128-0.064-0.256-0.128-0.384-0.192l0 0c-0.192-0.064-0.32-0.128-0.448-0.256l0 0c-0.448-0.256-0.896-0.512-1.344-0.768l0 0c-0.256-0.128-0.576-0.32-0.832-0.448l-0.064 0c-30.016-17.152-62.272-30.912-96.128-40.768C634.496 80.96 631.488 80.512 628.48 80.512L628.48 80.512zM777.024 512.064c0 22.656-19.008 41.152-42.752 41.152l-181.12 0 0 181.184c0 23.488-18.368 42.624-41.152 42.624-22.72 0.064-41.152-19.072-41.152-42.56L470.848 553.152l-181.12 0C266.24 553.216 246.976 534.656 246.976 512.064c0.128-22.656 19.264-41.152 42.88-41.088l180.992 0L470.848 289.792c0-23.68 18.496-42.688 41.152-42.752 22.72-0.064 41.152 19.136 41.152 42.688l0 181.248 181.12 0C757.888 470.784 777.024 489.344 777.024 512.064z" p-id="8946"></path></svg>