<?xml version="1.0" standalone="no"?><!DOCTYPE svg PUBLIC "-//W3C//DTD SVG 1.1//EN" "http://www.w3.org/Graphics/SVG/1.1/DTD/svg11.dtd"><svg t="1517221717528" class="icon" style="" viewBox="0 0 1026 1024" version="1.1" xmlns="http://www.w3.org/2000/svg" p-id="2005" xmlns:xlink="http://www.w3.org/1999/xlink" width="128.25" height="128"><defs><style type="text/css"></style></defs><path d="M932.736 839.424H93.312A93.376 93.376 0 0 1 0 746.176V536.32h23.296c64.32 0 116.608-52.288 116.608-116.608S87.616 303.104 23.296 303.104H0V93.312A93.44 93.44 0 0 1 93.312 0h839.488a93.44 93.44 0 0 1 93.248 93.312v209.856h-23.296c-64.256 0-116.608 52.288-116.608 116.608s52.352 116.608 116.608 116.608h23.296v209.856a93.44 93.44 0 0 1-93.312 93.184zM46.656 581.312v164.864a46.72 46.72 0 0 0 46.656 46.656h839.488a46.72 46.72 0 0 0 46.656-46.656V581.312c-78.976-11.392-139.968-79.488-139.968-161.6s60.928-150.208 139.968-161.536V93.312a46.72 46.72 0 0 0-46.656-46.656H93.312a46.72 46.72 0 0 0-46.656 46.656v164.864c79.04 11.328 139.904 79.488 139.904 161.536S125.632 569.92 46.656 581.312z" fill="#4D4D4D" p-id="2006"></path><path d="M618.112 617.92a58.368 58.368 0 0 1-27.136-6.784L518.4 572.992a11.776 11.776 0 0 0-10.752 0l-72.64 38.208a58.88 58.88 0 0 1-71.68-14.144 58.048 58.048 0 0 1-12.8-47.232l13.888-80.896a11.904 11.904 0 0 0-3.328-10.304l-58.752-57.216a57.792 57.792 0 0 1-14.72-59.648 57.792 57.792 0 0 1 46.912-39.616l81.28-11.776a11.904 11.904 0 0 0 8.768-6.4l36.224-73.6a57.92 57.92 0 0 1 52.224-32.448c22.272 0 42.368 12.416 52.16 32.384l36.288 73.6a11.776 11.776 0 0 0 8.768 6.4l81.28 11.776a57.984 57.984 0 0 1 46.976 39.68 57.92 57.92 0 0 1-14.784 59.648l-58.752 57.28a11.648 11.648 0 0 0-3.392 10.304l13.888 80.832a57.6 57.6 0 0 1-12.672 47.296 58.56 58.56 0 0 1-44.672 20.8zM513.024 524.992c9.344 0 18.752 2.304 27.072 6.656l72.704 38.272c5.12 2.624 10.88 1.28 14.336-2.88a10.88 10.88 0 0 0 2.432-9.344L615.616 476.8a57.728 57.728 0 0 1 16.832-51.52l58.688-57.28a11.136 11.136 0 0 0 2.944-11.84 11.264 11.264 0 0 0-9.344-7.872L603.52 336.448a58.112 58.112 0 0 1-43.776-31.808l-36.352-73.6c-2.88-5.824-8.256-6.464-10.368-6.464s-7.552 0.64-10.432 6.464l-36.288 73.6a58.304 58.304 0 0 1-43.776 31.808l-81.28 11.84a11.328 11.328 0 0 0-9.344 7.872 11.264 11.264 0 0 0 2.944 11.84l58.752 57.28c13.76 13.376 20.032 32.64 16.704 51.52l-13.824 80.896a10.88 10.88 0 0 0 2.432 9.344 11.648 11.648 0 0 0 14.4 2.88l72.64-38.272a58.368 58.368 0 0 1 27.072-6.656zM233.216 139.904a23.296 23.296 0 0 1-23.296-23.296V46.656a23.296 23.296 0 0 1 46.592 0v69.952a23.296 23.296 0 0 1-23.296 23.296zM233.216 816.128a23.232 23.232 0 0 1-23.296-23.296v-69.952a23.232 23.232 0 1 1 46.592 0v69.952a23.232 23.232 0 0 1-23.296 23.296z" fill="#4D4D4D" p-id="2007"></path></svg>