<?xml version="1.0" standalone="no"?><!DOCTYPE svg PUBLIC "-//W3C//DTD SVG 1.1//EN" "http://www.w3.org/Graphics/SVG/1.1/DTD/svg11.dtd"><svg t="1517304290377" class="icon" style="" viewBox="0 0 1024 1024" version="1.1" xmlns="http://www.w3.org/2000/svg" p-id="1471" xmlns:xlink="http://www.w3.org/1999/xlink" width="128" height="128"><defs><style type="text/css"></style></defs><path d="M506.942 345.921c25.259 0 42.134-16.916 42.134-42.107 0-25.477-16.848-41.956-42.134-41.956-25.299 0-50.668 16.48-50.668 41.956 0.028 25.204 25.409 42.107 50.668 42.107v0zM506.942 345.921zM271.257 261.857c-25.259 0-50.79 16.48-50.79 41.956 0 25.19 25.532 42.107 50.79 42.107 25.163 0 42.012-16.916 42.012-42.107-0.014-25.477-16.834-41.956-42.012-41.956v0zM271.257 261.857zM1010.654 615.492c0-133.202-123.563-246.702-275.237-258.512 0.205-1.652 0.301-3.373-0.068-5.092-30.406-141.79-182.886-248.695-354.7-248.695-194.15 0-352.119 135.387-352.119 301.793 0 89.279 45.574 169.725 131.946 233.158l-30.106 90.508c-1.939 5.885-0.177 12.37 4.506 16.452 2.853 2.458 6.445 3.741 10.076 3.741 2.335 0 4.697-0.546 6.867-1.625l113.036-56.565 13.926 2.827c34.802 7.154 64.853 13.353 101.868 13.353 10.895 0 40.878-3.987 43.404-7.182 40.755 101.99 153.094 175.61 285.273 175.61 33.86 0 68.13-8.164 98.891-15.866l87.136 47.636c2.307 1.257 4.847 1.911 7.359 1.911 3.441 0 6.881-1.161 9.639-3.413 4.847-3.932 6.841-10.404 5.038-16.33l-22.255-74.001c74.602-58.955 115.521-129.488 115.521-199.708v0zM409.798 665.75c-9.626 0.833-19.388 1.243-29.082 1.243-32.686 0-60.334-5.652-92.31-12.26l-18.582-3.755c-3.195-0.683-6.567-0.245-9.503 1.269l-81.687 40.892 21.231-63.775c2.076-6.24-0.205-13.053-5.57-16.821-82.07-57.207-123.659-126.894-123.659-207.093 0-144.179 139.087-261.516 310.067-261.516 151.142 0 284.959 91.955 312.579 214.261-158.475 2.076-286.706 113.487-286.706 250.32 0 19.893 3.018 39.171 8.11 57.767-1.542-0.382-3.168-0.683-4.887-0.532v0zM860.371 788.699c-4.875 3.673-6.935 10.007-5.188 15.852l13.804 45.903-56.647-30.993c-2.157-1.188-4.588-1.803-7.004-1.803-1.188 0-2.389 0.15-3.564 0.464-30.379 7.674-61.822 15.593-92.433 15.593-142.186 0-257.857-97.717-257.857-217.811 0-120.095 115.658-217.771 257.857-217.771 139.469 0 257.325 99.724 257.325 217.771 0 59.87-37.738 121.255-106.291 172.797v0zM868.181 797.178zM616.454 506.006c-16.848 0-33.696 16.971-33.696 33.792 0 16.944 16.848 33.669 33.696 33.669 25.313 0 42.038-16.725 42.038-33.669 0-16.848-16.725-33.792-42.038-33.792v0zM616.454 506.006zM801.58 506.006c-16.603 0-33.451 16.971-33.451 33.792 0 16.944 16.848 33.669 33.451 33.669 25.231 0 42.257-16.725 42.257-33.669 0-16.848-16.998-33.792-42.257-33.792v0zM801.58 506.006z" fill="#272636" p-id="1472"></path></svg>