<?xml version="1.0" standalone="no"?><!DOCTYPE svg PUBLIC "-//W3C//DTD SVG 1.1//EN" "http://www.w3.org/Graphics/SVG/1.1/DTD/svg11.dtd"><svg t="1517039970216" class="icon" style="" viewBox="0 0 1024 1024" version="1.1" xmlns="http://www.w3.org/2000/svg" p-id="5564" xmlns:xlink="http://www.w3.org/1999/xlink" width="128" height="128"><defs><style type="text/css"></style></defs><path d="M511.999488 63.645552c-246.99951 0-447.230857 200.231347-447.230857 447.230857 0 246.998487 200.23237 447.231881 447.230857 447.231881 246.99951 0 447.229834-200.233394 447.229834-447.231881C959.229323 263.876899 758.998999 63.645552 511.999488 63.645552zM272.886599 304.96469c0-16.020882 12.986779-29.007661 29.007661-29.007661l494.751151 0c16.019859 0 29.007661 12.986779 29.007661 29.007661l0 57.107649c0 16.020882-12.986779 29.007661-29.007661 29.007661L301.89426 391.08c-16.019859 0-29.007661-12.986779-29.007661-29.007661L272.886599 304.96469zM195.233008 457.593879c3.955078-18.931165 28.534893-26.094308 28.534893-26.094308l468.553489 1.276063c0.432859-0.039909 0.828878-0.049119 1.144056 0.00307l-1.144056-0.00307c-3.783163 0.349971-11.391445 3.840468-11.391445 3.840468-11.512195 2.558265-21.233604 15.093766-21.233604 15.093766-11.256368 12.279674-78.794577 100.028181-78.794577 100.028181l-355.85473 0c-25.071002-4.860704-29.814026-26.094308-29.814026-26.094308L195.233008 457.593879zM628.741329 712.013383l-402.926816 0c0 0-23.172769-1.151219-30.581506-25.838482l0-67.921949c0 0 9.859555-25.710568 31.604812-24.943089l322.085626 0c0 0-12.279674 11.768021-13.302981 25.966395 0 0-1.151219 10.105149 0 13.175067 0 0 1.407046 20.082384 13.302981 29.036313 0 0 7.930623 7.80271 16.117073 8.442276l63.700811 0L628.741329 712.013383zM821.207829 630.703519l-51.676963 1.193175c0 0-17.395182 2.90619-21.147646 20.473287l-0.341784 66.515926c0 0-0.682545 22.853497-25.241894 31.039947l-36.156478 0c0 0-17.567098-1.705851-18.931165-26.606984l0.340761-69.590961c0 0 0.341784-19.444864-17.054421-21.491477l-46.390563-0.682545c0 0-18.931165 0-13.132088-15.349593l8.868995-14.32424 80.158644-113.586988c0 0 13.474896-19.271926 22.854521-20.125363 0 0 15.689331-4.264117 27.799136 0 0 0 6.823406 2.387373 12.109806 13.132088l84.432994 134.564765C827.699684 615.865579 837.238944 630.191866 821.207829 630.703519z" p-id="5565"></path></svg>