<?xml version="1.0" standalone="no"?><!DOCTYPE svg PUBLIC "-//W3C//DTD SVG 1.1//EN" "http://www.w3.org/Graphics/SVG/1.1/DTD/svg11.dtd"><svg t="1528339752887" class="icon" style="" viewBox="0 0 1024 1024" version="1.1" xmlns="http://www.w3.org/2000/svg" p-id="4959" xmlns:xlink="http://www.w3.org/1999/xlink" width="200" height="200"><defs><style type="text/css"></style></defs><path d="M816 480c114.88 0 208-93.12 208-208S930.88 64 816 64 608 157.12 608 272s93.12 208 208 208z m-96-240a47.84 47.84 0 0 1 33.936 14.064L784 284.112l94.064-94.064a48 48 0 0 1 67.872 67.888l-128 128c-8.688 8.688-20.688 14.064-33.936 14.064s-25.248-5.376-33.936-14.064l-64-64A48 48 0 0 1 720 240z m176 544H444.448l-23.952-68.464L835.2 687.888v-0.016a47.968 47.968 0 0 0 40.576-28.192l77.28-171.728a254.416 254.416 0 0 1-122.976 39.312l-30.032 66.736-412.464 27.504L298.864 368h279.92A255.024 255.024 0 0 1 560 272H265.248l-27.952-79.856-0.176 0.064A47.84 47.84 0 0 0 192 160H48a48 48 0 1 0 0 96h109.952l184.8 528H256a96 96 0 1 0 96 96h448a96 96 0 1 0 96-96z" fill="#8a8a8a" p-id="4960"></path></svg>