<?xml version="1.0" standalone="no"?><!DOCTYPE svg PUBLIC "-//W3C//DTD SVG 1.1//EN" "http://www.w3.org/Graphics/SVG/1.1/DTD/svg11.dtd"><svg t="1524563544934" class="icon" style="" viewBox="0 0 1024 1024" version="1.1" xmlns="http://www.w3.org/2000/svg" p-id="1128" xmlns:xlink="http://www.w3.org/1999/xlink" width="200" height="200"><defs><style type="text/css"></style></defs><path d="M312.888889 995.555556c-17.066667 0-28.444444-5.688889-39.822222-17.066667-22.755556-22.755556-17.066667-56.888889 5.688889-79.644445l364.088888-329.955555c11.377778-11.377778 17.066667-22.755556 17.066667-34.133333 0-11.377778-5.688889-22.755556-17.066667-34.133334L273.066667 187.733333c-22.755556-22.755556-28.444444-56.888889-5.688889-79.644444 22.755556-22.755556 56.888889-28.444444 79.644444-5.688889l364.088889 312.888889c34.133333 28.444444 56.888889 73.955556 56.888889 119.466667s-17.066667 85.333333-51.2 119.466666l-364.088889 329.955556c-11.377778 5.688889-28.444444 11.377778-39.822222 11.377778z" p-id="1129" fill="#ffffff"></path></svg>