<?xml version="1.0" standalone="no"?><!DOCTYPE svg PUBLIC "-//W3C//DTD SVG 1.1//EN" "http://www.w3.org/Graphics/SVG/1.1/DTD/svg11.dtd"><svg t="1524626422743" class="icon" style="" viewBox="0 0 1024 1024" version="1.1" xmlns="http://www.w3.org/2000/svg" p-id="13159" xmlns:xlink="http://www.w3.org/1999/xlink" width="200" height="200"><defs><style type="text/css"></style></defs><path d="M843.156665 764.96107c-128.076619-30.1125-193.751689-101.734961-205.004864-116.77842-11.2982-15.127369-11.2982-33.931437-11.2982-56.551372 0-7.550893 3.731957-18.831697 7.492566-26.354961l3.805634-7.521218c3.730933-7.548847 18.717088-45.213264 30.140129-67.834222 0-3.789261 7.478239-15.157045 15.016853-22.64961l0 0c11.322759-7.521218 22.605609-18.860349 41.42298-41.424003 30.140129-45.213264 15.055739-86.664896-11.340155-105.525245l0-7.522241c15.11509-41.481307 22.651657-90.45518 18.903328-150.739532-3.788238-64.103289-64.003006-162.050012-218.488821-162.050012-154.413161 0-214.69956 94.214766-218.474495 162.050012-3.759586 60.283329 3.774935 109.258225 18.862396 147.007576l0 7.46289c-26.339612 22.650634-37.706372 64.103289-11.325829 109.31553 15.057785 22.564677 30.156502 33.903808 41.367722 41.424003l0 0c7.591825 7.550893 15.087461 18.860349 15.087461 22.64961 11.365737 22.620958 26.450128 56.495091 30.181061 67.834222l3.760609 7.521218c3.735027 11.311502 7.537591 18.804068 7.537591 26.354961 0 18.82965 0 41.42298-11.2982 56.551372-11.322759 15.043459-75.310415 86.665919-203.431036 116.77842-112.945157 26.38259-186.039115 91.042552-186.039115 239.793822 0 7.578522 7.550893 18.861373 18.816348 18.861373l986.314094 0c7.463913 0 18.816348-7.551917 18.816348-18.861373C1023.981069 848.4998 959.948388 791.34366 843.156665 764.96107L843.156665 764.96107 843.156665 764.96107 843.156665 764.96107zM843.156665 764.96107" p-id="13160"></path></svg>