<?xml version="1.0" standalone="no"?><!DOCTYPE svg PUBLIC "-//W3C//DTD SVG 1.1//EN" "http://www.w3.org/Graphics/SVG/1.1/DTD/svg11.dtd"><svg t="1524626359129" class="icon" style="" viewBox="0 0 1024 1024" version="1.1" xmlns="http://www.w3.org/2000/svg" p-id="10653" xmlns:xlink="http://www.w3.org/1999/xlink" width="200" height="200"><defs><style type="text/css"></style></defs><path d="M436.775226 739.449245c-31.755238 0-57.46376 25.706475-57.46376 57.399291 0 31.756261 25.708522 57.403385 57.46376 57.403385 31.69384 0 57.400315-25.647123 57.400315-57.403385C494.175541 765.15572 468.468043 739.449245 436.775226 739.449245z" p-id="10654"></path><path d="M800.55444 558.315862c-115.137297 0-208.475102-93.336782-208.475102-208.474079 0-18.576077 2.442632-36.579103 7.000438-53.719482L346.326215 274.064936c-16.004509-1.385557-24.888853 9.892301-19.784602 25.140587l86.479607 258.840186c5.134951 15.185864 22.494317 29.677926 38.498826 29.677926l361.228111 0c16.036231 0 30.591739-15.122419 32.293497-31.064506l0.340761-3.189645C830.940494 556.632523 815.944965 558.315862 800.55444 558.315862z" p-id="10655"></path><path d="M711.146131 739.449245c-31.69384 0-57.401338 25.706475-57.401338 57.399291 0 31.756261 25.707498 57.403385 57.401338 57.403385s57.432037-25.647123 57.432037-57.403385C768.578168 765.15572 742.839971 739.449245 711.146131 739.449245z" p-id="10656"></path><path d="M778.565636 633.846092 378.870422 633.846092 241.258251 226.933499c-3.969405-11.908214-15.121396-17.893532-27.66099-17.893532L91.990622 209.039967c-16.066931 0-29.141714 11.341303-29.141714 27.471678 0 16.130376 13.07376 27.471678 29.141714 27.471678l100.656491 0 137.579425 406.912593c4.033873 11.843746 15.122419 17.830087 27.66099 17.830087L778.565636 688.726004c16.131399 0 29.173436-11.340279 29.173436-27.40721C807.739073 645.186372 794.697035 633.846092 778.565636 633.846092z" p-id="10657"></path><path d="M800.55444 195.753359c-85.10019 0-154.087401 68.987211-154.087401 154.088424 0 85.10019 68.987211 154.087401 154.087401 154.087401s154.087401-68.988234 154.087401-154.087401C954.641841 264.74057 885.65463 195.753359 800.55444 195.753359zM719.816604 370.772488l0-41.718147 57.115835 0 0-57.118905 41.71917 0 0 57.118905 57.038064 0 0 41.718147-57.038064 0 0 57.037041-41.71917 0 0-57.037041L719.816604 370.772488z" p-id="10658"></path></svg>