<?xml version="1.0" standalone="no"?><!DOCTYPE svg PUBLIC "-//W3C//DTD SVG 1.1//EN" "http://www.w3.org/Graphics/SVG/1.1/DTD/svg11.dtd"><svg t="1520931714849" class="icon" style="" viewBox="0 0 1024 1024" version="1.1" xmlns="http://www.w3.org/2000/svg" p-id="705" xmlns:xlink="http://www.w3.org/1999/xlink" width="128" height="128"><defs><style type="text/css"></style></defs><path d="M1004.544 855.552l-122.88 0 0 122.88-49.152 0 0-122.88-122.88 0 0-49.152 122.88 0 0-122.88 49.152 0 0 122.88 122.88 0L1004.544 855.552zM48.64 978.432c-1.024-12.288-1.536-25.088-1.536-37.376 0-211.456 144.384-389.12 340.48-439.296-71.68-43.008-119.296-121.344-119.296-210.432 0-135.68 110.08-245.248 245.248-245.248 135.68 0 245.248 110.08 245.248 245.248 0 93.184-51.712 174.08-128 215.552 76.288 23.04 143.872 65.536 197.632 121.344l-36.352 36.352c-73.216-77.312-177.152-125.952-291.84-125.952-221.696 0-402.432 180.736-402.432 402.432 0 12.8 0.512 25.088 2.048 37.376L48.64 978.432zM513.536 485.376c107.008 0 194.048-87.04 194.048-194.048s-87.04-194.048-194.048-194.048c-107.008 0-194.048 87.04-194.048 194.048S406.016 485.376 513.536 485.376z" p-id="706"></path></svg>