<?xml version="1.0" standalone="no"?><!DOCTYPE svg PUBLIC "-//W3C//DTD SVG 1.1//EN" "http://www.w3.org/Graphics/SVG/1.1/DTD/svg11.dtd"><svg t="1520317890142" class="icon" style="" viewBox="0 0 1024 1024" version="1.1" xmlns="http://www.w3.org/2000/svg" p-id="27272" xmlns:xlink="http://www.w3.org/1999/xlink" width="128" height="128"><defs><style type="text/css"></style></defs><path d="M657.226919 263.181314a25.343556 25.343556 0 0 1 36.453762-0.281595 26.981928 26.981928 0 0 1-0.281595 37.426545l-21.324427 21.862018-0.742387-0.716788a25.061961 25.061961 0 0 1-35.40418-35.42978l-0.486391-0.486391z m-372.191886 219.567358a25.599552 25.599552 0 0 1 0-51.199104h129.636131l-123.313042-123.313042a25.599552 25.599552 0 1 1 36.197767-36.197767l159.536408 159.510809h6.092693l70.782761-72.651529 0.435193 0.435193a24.933964 24.933964 0 0 1 18.636474-8.57585 25.215559 25.215559 0 0 1 25.189959 25.189959 24.857165 24.857165 0 0 1-8.57585 18.636474l0.947183 0.972783-35.071386 35.99297h129.098541a25.599552 25.599552 0 0 1 0 51.199104h-178.992068l-0.204796 0.204796v127.792964h153.597312a25.599552 25.599552 0 0 1 0 51.199104h-153.597312v127.99776a25.599552 25.599552 0 0 1-51.199104 0v-127.99776h-153.597312a25.599552 25.599552 0 0 1 0-51.199104h153.597312v-127.99776h-179.196864zM510.771882 1024a508.688698 508.688698 0 0 1-317.69044-111.43485 24.217176 24.217176 0 0 1-5.913497-3.916731 25.599552 25.599552 0 0 1 36.197767-36.223366 24.652369 24.652369 0 0 1-5.580702 39.909701 437.905937 437.905937 0 0 0 255.201934 68.504401c253.921956 0 452.753677-189.436685 452.753676-443.97303a454.417648 454.417648 0 0 0-452.753676-460.791936 447.326572 447.326572 0 0 0-443.153845 359.673705 25.420355 25.420355 0 1 1-27.852313 25.13876H1.340797A511.99104 511.99104 0 1 1 510.771882 1024zM27.580338 537.608512a25.599552 25.599552 0 0 1 0 51.199104 23.807583 23.807583 0 0 1-4.01913-0.819186 463.351891 463.351891 0 0 0 86.500887 219.080966 24.908364 24.908364 0 0 1 40.959283-7.039877 26.111543 26.111543 0 0 1 0 36.197767 24.037979 24.037979 0 0 1-38.988118-4.198327A508.714297 508.714297 0 0 1 1.340797 563.208064H1.955187a25.599552 25.599552 0 0 1 25.625151-25.599552z" fill="#48BCF5" p-id="27273"></path><path d="M678.167353 239.655326a25.292357 25.292357 0 0 1 36.453762-0.281595 26.956328 26.956328 0 0 1-0.281595 37.400945l-21.324427 21.887617-0.742387-0.742387a25.036362 25.036362 0 0 1-35.40418-35.40418l-0.486392-0.511991z m-372.191887 219.541758a25.599552 25.599552 0 0 1 0-51.199104h129.636132l-123.313042-123.313042a25.599552 25.599552 0 0 1 36.197766-36.197767l159.536408 159.510809h6.092694l70.885159-72.625929 0.435192 0.435192a24.857165 24.857165 0 0 1 18.636474-8.57585 25.215559 25.215559 0 0 1 25.18996 25.215559 24.831565 24.831565 0 0 1-8.57585 18.610874l0.947183 0.972783-35.096986 35.992971h129.021742a25.599552 25.599552 0 0 1 0 51.199104h-178.992067l-0.204797 0.204796v127.792964h153.597312a25.599552 25.599552 0 0 1 0 51.199104h-153.597312v127.99776a25.599552 25.599552 0 0 1-51.199104 0v-127.99776h-153.597312a25.599552 25.599552 0 0 1 0-51.199104h153.597312v-127.99776h-179.196864z m204.796416 564.802916a508.688698 508.688698 0 0 1-317.69044-111.43485 28.645899 28.645899 0 0 1-5.913497-40.140097 25.215559 25.215559 0 0 1 36.197767 0l0.460792-0.460792a460.510341 460.510341 0 1 0-170.749012-411.691996V460.809856a25.599552 25.599552 0 0 1-51.199104 0H1.340797a511.99104 511.99104 0 1 1 509.431085 563.190144zM27.580338 537.608512a25.599552 25.599552 0 0 1 25.599552 25.599552v0.53759a458.692773 458.692773 0 0 0 98.225481 235.951071l-0.358394 0.332794a25.599552 25.599552 0 0 1 0 36.197767 27.033127 27.033127 0 0 1-38.988117-4.198327A508.714297 508.714297 0 0 1 1.340797 563.208064H1.955187a25.599552 25.599552 0 0 1 25.625151-25.599552z" fill="#4076FE" p-id="27274"></path></svg>