<?xml version="1.0" standalone="no"?><!DOCTYPE svg PUBLIC "-//W3C//DTD SVG 1.1//EN" "http://www.w3.org/Graphics/SVG/1.1/DTD/svg11.dtd"><svg t="1517223086407" class="icon" style="" viewBox="0 0 1024 1024" version="1.1" xmlns="http://www.w3.org/2000/svg" p-id="16947" xmlns:xlink="http://www.w3.org/1999/xlink" width="128" height="128"><defs><style type="text/css"></style></defs><path d="M197.546667 536.746667h227.413333c20.48 0 38.4 14.933333 41.813333 34.986666l27.306667 149.333334c4.266667 23.04-11.093333 45.226667-34.133333 49.493333-2.56 0.426667-5.12 0.853333-7.68 0.853333H170.666667c-23.466667 0-42.666667-19.2-42.666667-42.666666 0-2.56 0.426667-5.12 0.853333-7.68l27.306667-149.333334c3.413333-20.48 20.906667-34.986667 41.386667-34.986666z m0 42.666666l-27.306667 149.333334h281.6l-27.306667-149.333334H197.546667zM598.613333 536.746667h227.413334c20.48 0 38.4 14.933333 41.813333 34.986666l27.306667 149.333334c4.266667 23.04-11.093333 45.226667-34.133334 49.493333-2.56 0.426667-5.12 0.853333-7.68 0.853333h-281.6c-23.466667 0-42.666667-19.2-42.666666-42.666666 0-2.56 0.426667-5.12 0.853333-7.68l27.306667-149.333334c3.413333-20.48 20.906667-34.986667 41.386666-34.986666z m0 42.666666l-27.306666 149.333334h281.6l-27.306667-149.333334h-226.986667zM398.08 280.746667h227.413333c20.48 0 38.4 14.933333 41.813334 34.986666l27.306666 149.333334c4.266667 23.04-11.093333 45.226667-34.133333 49.493333-2.56 0.426667-5.12 0.853333-7.68 0.853333H371.2c-23.466667 0-42.666667-19.2-42.666667-42.666666 0-2.56 0.426667-5.12 0.853334-7.68l27.306666-149.333334c3.413333-20.48 20.906667-34.986667 41.386667-34.986666z m-26.88 192h281.6l-27.306667-149.333334H398.08l-26.88 149.333334z" fill="#666666" p-id="16948"></path><path d="M260.266667 255.146667c-9.386667 0-17.066667-7.68-17.066667-17.066667s7.68-17.066667 17.066667-17.066667 17.066667 7.68 17.066666 17.066667-7.68 17.066667-17.066666 17.066667z m29.866666 29.866666c-9.386667 0-17.066667-7.68-17.066666-17.066666s7.68-17.066667 17.066666-17.066667 17.066667 7.68 17.066667 17.066667-7.68 17.066667-17.066667 17.066666z m-59.733333 0c-9.386667 0-17.066667-7.68-17.066667-17.066666s7.68-17.066667 17.066667-17.066667 17.066667 7.68 17.066667 17.066667-7.68 17.066667-17.066667 17.066666z m29.866667 29.866667c-9.386667 0-17.066667-7.68-17.066667-17.066667s7.68-17.066667 17.066667-17.066666 17.066667 7.68 17.066666 17.066666-7.68 17.066667-17.066666 17.066667z" fill="#CFB263" p-id="16949"></path></svg>