<?xml version="1.0" standalone="no"?><!DOCTYPE svg PUBLIC "-//W3C//DTD SVG 1.1//EN" "http://www.w3.org/Graphics/SVG/1.1/DTD/svg11.dtd"><svg t="1517040029928" class="icon" style="" viewBox="0 0 1024 1024" version="1.1" xmlns="http://www.w3.org/2000/svg" p-id="6447" xmlns:xlink="http://www.w3.org/1999/xlink" width="128" height="128"><defs><style type="text/css"></style></defs><path d="M192 640l384 0c12.8 0 21.333333-8.533333 21.333333-21.333333 0-12.8-8.533333-21.333333-21.333333-21.333333L192 597.333333c-12.8 0-21.333333 8.533333-21.333333 21.333333C170.666667 631.466667 179.2 640 192 640zM938.666667 170.666667 85.333333 170.666667c-23.466667 0-42.666667 19.2-42.666667 42.666667l0 597.333333c0 23.466667 19.2 42.666667 42.666667 42.666667l853.333333 0c23.466667 0 42.666667-19.2 42.666667-42.666667L981.333333 213.333333C981.333333 189.866667 962.133333 170.666667 938.666667 170.666667zM938.666667 810.666667 85.333333 810.666667 85.333333 469.333333l853.333333 0L938.666667 810.666667zM938.666667 298.666667 85.333333 298.666667l0-85.333333 853.333333 0L938.666667 298.666667zM746.666667 725.333333l85.333333 0c12.8 0 21.333333-8.533333 21.333333-21.333333l0-85.333333c0-12.8-8.533333-21.333333-21.333333-21.333333l-85.333333 0c-12.8 0-21.333333 8.533333-21.333333 21.333333l0 85.333333C725.333333 716.8 733.866667 725.333333 746.666667 725.333333zM192 725.333333l298.666667 0c12.8 0 21.333333-8.533333 21.333333-21.333333 0-12.8-8.533333-21.333333-21.333333-21.333333L192 682.666667c-12.8 0-21.333333 8.533333-21.333333 21.333333C170.666667 716.8 179.2 725.333333 192 725.333333z" p-id="6448"></path></svg>