<?xml version="1.0" standalone="no"?><!DOCTYPE svg PUBLIC "-//W3C//DTD SVG 1.1//EN" "http://www.w3.org/Graphics/SVG/1.1/DTD/svg11.dtd"><svg t="1517051549829" class="icon" style="" viewBox="0 0 1024 1024" version="1.1" xmlns="http://www.w3.org/2000/svg" p-id="22644" xmlns:xlink="http://www.w3.org/1999/xlink" width="128" height="128"><defs><style type="text/css"></style></defs><path d="M505 89.1c237.1 0 429.9 192.9 429.9 429.9 0 237.1-192.9 429.9-429.9 429.9S75.1 756.1 75.1 519C75.1 281.9 267.9 89.1 505 89.1M505 50C246 50 36 260 36 519s210 469 469 469 469-210 469-469S764 50 505 50L505 50z" p-id="22645"></path><path d="M654 754.7 356 754.7c-5.1 0-9.2 4.1-9.2 9.2l0 19.5c0 5.1 4.1 9.2 9.2 9.2l298 0c5.1 0 9.2-4.1 9.2-9.2l0-19.5C663.2 758.8 659.1 754.7 654 754.7L654 754.7z" p-id="22646"></path><path d="M505 245.4c86.1 0 156.2 65 156.2 144.8 0 66.7-105.3 215.7-154.2 271-49.9-58.8-158.3-207.5-158.3-271C348.8 310.4 418.9 245.4 505 245.4M505.3 505c63.8 0 115.7-50.8 115.7-113.3s-51.9-113.3-115.7-113.3c-63.8 0-115.7 50.8-115.7 113.3S441.5 505 505.3 505M505 206.3c-107.9 0-195.3 82.3-195.3 183.9C309.7 491.8 496.5 715 505 715c18.9 0 195.3-223.2 195.3-324.7C700.3 288.7 612.9 206.3 505 206.3L505 206.3zM505.3 465.9c-42.3 0-76.6-33.2-76.6-74.2s34.3-74.2 76.6-74.2 76.6 33.2 76.6 74.2S547.6 465.9 505.3 465.9L505.3 465.9z" p-id="22647"></path></svg>