<?xml version="1.0" standalone="no"?><!DOCTYPE svg PUBLIC "-//W3C//DTD SVG 1.1//EN" "http://www.w3.org/Graphics/SVG/1.1/DTD/svg11.dtd"><svg t="1517221585596" class="icon" style="" viewBox="0 0 1024 1024" version="1.1" xmlns="http://www.w3.org/2000/svg" p-id="776" xmlns:xlink="http://www.w3.org/1999/xlink" width="128" height="128"><defs><style type="text/css"></style></defs><path d="M510.8 862l-19.502-12.82c-6.302-4.144-156.376-103.532-341.972-288.478l-12.306-12.3 0.462-0.456c-79.486-92.184-75.434-232 11.832-319.2A235.106 235.106 0 0 1 456.6 207.09l1.558-1.55 21.674 21.57q0.832 0.812 1.654 1.636 0.264 0.264 0.522 0.528l29.906 29.878 53.114-53.078 1.6 1.564a235.4 235.4 0 0 1 307.908 21.506c87.658 87.6 91.462 228.2 11.2 320.372l0.4 0.4-0.452 0.456-0.374-0.372-0.014 0.016 0.37 0.368-0.372-0.366-0.096 0.11 0.362 0.36-0.158-0.158 0.158 0.158-0.362-0.36-0.142 0.162 0.35 0.352-0.09-0.09 0.09 0.09-0.352-0.35 0.352 0.35-0.352-0.35 0.352 0.348-0.352-0.348 0.352 0.348-0.104-0.102 0.104 0.104-0.354-0.348a5.854 5.854 0 0 0-0.146 0.168l0.34 0.338-0.014 0.016-10.688 10.68C686.894 748.672 536.776 845.4 530.47 849.434zM315.4 231.914a162.8 162.8 0 0 0-115.692 277.43c142.506 142.088 265.376 233.518 311.6 266.25 46.346-32.17 169.478-122.334 312.964-265.564A163.156 163.156 0 0 0 592.836 280l-0.316 0.342c-0.452 0.484-0.908 0.968-1.372 1.446l-25.2 25.958-0.442-0.432-53.582 53.546-53.8-53.76-0.386 0.384-25.444-26.096c-0.466-0.478-0.92-0.962-1.372-1.446l-0.4-0.426A161.84 161.84 0 0 0 315.4 231.914z m541.114 289.448l3.646 3.656z m0 0l3.638 3.648z m-572.484-127.4H212c0-80.44 67-116.268 102.442-123.974l15.224 70.824 0.332-0.074a79.05 79.05 0 0 0-25.74 12.494c-13.796 10.338-20.22 23.28-20.22 40.734z" p-id="777"></path></svg>