<?xml version="1.0" standalone="no"?><!DOCTYPE svg PUBLIC "-//W3C//DTD SVG 1.1//EN" "http://www.w3.org/Graphics/SVG/1.1/DTD/svg11.dtd"><svg t="1525933271254" class="icon" style="" viewBox="0 0 1024 1024" version="1.1" xmlns="http://www.w3.org/2000/svg" p-id="869" xmlns:xlink="http://www.w3.org/1999/xlink" width="200" height="200"><defs><style type="text/css"></style></defs><path d="M511.998465 64.021106c-247.270686 0-447.724091 200.454428-447.724091 447.724091 0 247.272733 200.453405 447.724091 447.724091 447.724091 247.27171 0 447.725114-200.452381 447.725114-447.724091C959.723579 264.47451 759.270175 64.021106 511.998465 64.021106zM792.407899 792.155654c-36.434817 36.434817-78.850859 65.036225-126.066207 85.006046-48.856731 20.664645-100.785427 31.143301-154.343227 31.143301S406.511969 897.826346 357.655238 877.1617c-47.216371-19.970844-89.630367-48.570205-126.066207-85.006046-36.434817-36.434817-65.036225-78.850859-85.007069-126.066207-20.664645-48.856731-31.142278-100.785427-31.142278-154.343227s10.477632-105.485473 31.142278-154.342204c19.970844-47.216371 48.571229-89.63139 85.007069-126.06723s78.850859-65.036225 126.066207-85.007069c48.856731-20.664645 100.785427-31.143301 154.343227-31.143301s105.486496 10.477632 154.343227 31.143301c47.216371 19.970844 89.63139 48.571229 126.066207 85.007069 36.435841 36.435841 65.037249 78.850859 85.007069 126.06723 20.664645 48.856731 31.143301 100.785427 31.143301 154.342204 0 53.5578-10.477632 105.486496-31.143301 154.343227C857.445148 713.304795 828.844763 755.719814 792.407899 792.155654z" p-id="870"></path><path d="M316.888765 434.057837m-60.375066 0a59 59 0 1 0 120.750131 0 59 59 0 1 0-120.750131 0Z" p-id="871"></path><path d="M705.745121 434.057837m-60.375066 0a59 59 0 1 0 120.750131 0 59 59 0 1 0-120.750131 0Z" p-id="872"></path><path d="M674.911882 644.861984c-45.686529 19.464307-103.604636 30.184463-163.083286 30.184463-59.479673 0-117.398804-10.721179-163.086355-30.18651-13.000082-5.53404-28.025287 0.511653-33.56342 13.508665-5.538133 12.998035 0.509606 28.025287 13.507642 33.562397 52.636824 22.426779 115.966175 34.280758 183.142134 34.280758 67.174935 0 130.502239-11.852956 183.13804-34.277688 12.998035-5.538133 19.045775-20.565385 13.508665-33.56342C702.937169 645.372613 687.91094 639.325897 674.911882 644.861984z" p-id="873"></path></svg>