<?xml version="1.0" standalone="no"?><!DOCTYPE svg PUBLIC "-//W3C//DTD SVG 1.1//EN" "http://www.w3.org/Graphics/SVG/1.1/DTD/svg11.dtd"><svg t="1525933248973" class="icon" style="" viewBox="0 0 1024 1024" version="1.1" xmlns="http://www.w3.org/2000/svg" p-id="2498" xmlns:xlink="http://www.w3.org/1999/xlink" width="200" height="200"><defs><style type="text/css"></style></defs><path d="M511.998465 64.021106c-247.270686 0-447.724091 200.454428-447.724091 447.724091 0 247.272733 200.453405 447.724091 447.724091 447.724091 247.27171 0 447.725114-200.452381 447.725114-447.724091C959.723579 264.47451 759.270175 64.021106 511.998465 64.021106zM792.407899 792.155654c-36.434817 36.434817-78.850859 65.036225-126.066207 85.006046-48.856731 20.664645-100.785427 31.143301-154.343227 31.143301S406.511969 897.826346 357.655238 877.1617c-47.216371-19.970844-89.630367-48.570205-126.066207-85.006046-36.434817-36.434817-65.036225-78.850859-85.007069-126.066207-20.664645-48.856731-31.142278-100.785427-31.142278-154.343227s10.477632-105.485473 31.142278-154.342204c19.970844-47.216371 48.571229-89.63139 85.007069-126.06723s78.850859-65.036225 126.066207-85.007069c48.856731-20.664645 100.785427-31.143301 154.343227-31.143301s105.486496 10.477632 154.343227 31.143301c47.216371 19.970844 89.63139 48.571229 126.066207 85.007069 36.435841 36.435841 65.037249 78.850859 85.007069 126.06723 20.664645 48.856731 31.143301 100.785427 31.143301 154.342204 0 53.5578-10.477632 105.486496-31.143301 154.343227C857.445148 713.304795 828.844763 755.719814 792.407899 792.155654z" p-id="2499"></path><path d="M344.518033 402.335345m-60.375066 0a59 59 0 1 0 120.750131 0 59 59 0 1 0-120.750131 0Z" p-id="2500"></path><path d="M677.092547 402.335345m-60.375066 0a59 59 0 1 0 120.750131 0 59 59 0 1 0-120.750131 0Z" p-id="2501"></path><path d="M742.406089 552.750099c-13.464663-4.291746-27.852348 3.146667-32.141024 16.609283-28.623921 89.839121-108.420315 150.19986-198.564381 150.19986-89.972151 0-169.721473-60.210313-198.445678-149.824307-4.312212-13.453407-18.715247-20.86726-32.1707-16.553001-13.45443 4.312212-20.866237 18.715247-16.553001 32.1707 17.121959 53.41556 49.303916 99.350752 93.068675 132.837424 44.917002 34.368762 98.204649 52.535517 154.100704 52.535517 55.978942 0 109.330034-18.215874 154.284899-52.677756 43.806715-33.579793 75.975369-79.625502 93.030813-133.156696C763.305071 571.429531 755.868705 557.039799 742.406089 552.750099z" p-id="2502"></path></svg>