<?xml version="1.0" standalone="no"?><!DOCTYPE svg PUBLIC "-//W3C//DTD SVG 1.1//EN" "http://www.w3.org/Graphics/SVG/1.1/DTD/svg11.dtd"><svg t="1517221834823" class="icon" style="" viewBox="0 0 1024 1024" version="1.1" xmlns="http://www.w3.org/2000/svg" p-id="3418" xmlns:xlink="http://www.w3.org/1999/xlink" width="128" height="128"><defs><style type="text/css"></style></defs><path d="M480 64C215.04 64 0 279.04 0 544 0 808.96 215.04 1024 480 1024c264.96 0 480-215.04 480-480C960 279.04 744.96 64 480 64zM480 960C250.24 960 64 773.76 64 544 64 314.24 250.24 128 480 128 709.76 128 896 314.24 896 544 896 773.76 709.76 960 480 960zM539.52 320c39.04 0 77.44 10.24 111.36 30.08 14.72 8.96 34.56 3.84 43.52-11.52 8.96-15.36 3.84-34.56-11.52-43.52C639.36 269.44 590.08 256 539.52 256 416 256 311.04 336.64 271.36 448L224 448C206.08 448 192 462.08 192 480 192 497.92 206.08 512 224 512l33.28 0C256 522.88 254.08 533.12 254.08 544 254.08 554.88 256 565.12 257.28 576L224 576C206.08 576 192 590.08 192 608 192 625.92 206.08 640 224 640l47.36 0c39.68 111.36 144 192 268.16 192 50.56 0 99.84-13.44 142.72-38.4 15.36-8.96 20.48-28.16 11.52-43.52-8.96-15.36-28.16-20.48-43.52-11.52C616.96 757.76 578.56 768 539.52 768c-88.32 0-163.84-52.48-199.68-128L544 640C561.92 640 576 625.92 576 608 576 590.08 561.92 576 544 576L320.64 576C319.36 565.76 317.44 554.88 317.44 544S319.36 522.24 320.64 512L544 512C561.92 512 576 497.92 576 480 576 462.08 561.92 448 544 448L339.84 448C375.68 372.48 451.2 320 539.52 320z" p-id="3419"></path></svg>