<?xml version="1.0" standalone="no"?><!DOCTYPE svg PUBLIC "-//W3C//DTD SVG 1.1//EN" "http://www.w3.org/Graphics/SVG/1.1/DTD/svg11.dtd"><svg t="1525933262729" class="icon" style="" viewBox="0 0 1024 1024" version="1.1" xmlns="http://www.w3.org/2000/svg" p-id="1032" xmlns:xlink="http://www.w3.org/1999/xlink" width="200" height="200"><defs><style type="text/css"></style></defs><path d="M348.16 430.08m-61.44 0a61.44 61.44 0 1 0 122.88 0 61.44 61.44 0 1 0-122.88 0Z" fill="#4C4C4C" p-id="1033"></path><path d="M512 930.816c-228.352 0-413.696-185.856-413.696-413.696 0-228.352 185.856-413.696 413.696-413.696 228.352 0 413.696 185.856 413.696 413.696 0 228.352-185.344 413.696-413.696 413.696z m0-786.432c-205.824 0-372.736 167.424-372.736 372.736 0 205.824 167.424 372.736 372.736 372.736 205.824 0 372.736-167.424 372.736-372.736 0-205.824-166.912-372.736-372.736-372.736z" fill="#4C4C4C" p-id="1034"></path><path d="M701.44 430.08m-61.44 0a61.44 61.44 0 1 0 122.88 0 61.44 61.44 0 1 0-122.88 0Z" fill="#4C4C4C" p-id="1035"></path><path d="M291.328 732.16c-4.608 0-9.216-1.536-13.312-4.608-8.704-7.168-9.728-20.48-2.56-28.672C334.848 628.736 420.864 588.8 512 588.8c91.136 0 177.152 39.936 236.032 109.568 7.168 8.704 6.144 21.504-2.56 28.672-8.704 7.168-21.504 6.144-28.672-2.56-51.2-60.416-125.952-94.72-204.8-94.72-78.848 0-153.6 34.816-204.8 94.72-4.096 5.12-9.728 7.68-15.872 7.68z" fill="#4C4C4C" p-id="1036"></path></svg>