<?xml version="1.0" standalone="no"?><!DOCTYPE svg PUBLIC "-//W3C//DTD SVG 1.1//EN" "http://www.w3.org/Graphics/SVG/1.1/DTD/svg11.dtd"><svg t="1517048549967" class="icon" style="" viewBox="0 0 1025 1024" version="1.1" xmlns="http://www.w3.org/2000/svg" p-id="18326" xmlns:xlink="http://www.w3.org/1999/xlink" width="128.125" height="128"><defs><style type="text/css"></style></defs><path d="M512.007376 512" p-id="18327"></path><path d="M512.007376 512" p-id="18328"></path><path d="M633.937075 571.935923 547.580961 571.935923l0-55.119511c0.118013-0.110637 0.236026-0.191771 0.346664-0.309784 0.6712-0.6712 1.25389-1.386654 1.762821-2.146364l84.246629 0c7.943759 0 14.390227-6.439092 14.390227-14.390227 0-7.936384-6.446468-14.390227-14.390227-14.390227l-65.047367 0 56.152126-56.159502c5.627752-5.620376 5.627752-14.714763 0-20.349891-5.635127-5.627752-14.722139-5.627752-20.349891 0l-71.921632 71.929008-71.914256-71.929008c-5.635127-5.627752-14.729515-5.627752-20.357266 0-5.627752 5.635127-5.627752 14.729515 0 20.349891l56.152126 56.159502L432.444393 485.579809c-7.951135 0-14.397603 6.453843-14.397603 14.390227 0 7.951135 6.446468 14.390227 14.397603 14.390227l83.413161 0c0.501556 0.75971 1.084246 1.475164 1.755445 2.146364 0.376167 0.383543 0.767085 0.72283 1.172756 1.054742l0 54.374553L432.444393 571.935923c-7.951135 0-14.397603 6.446468-14.397603 14.390227s6.446468 14.397603 14.397603 14.397603l86.341362 0L518.785755 672.674888c0 7.951135 6.453843 14.397603 14.397603 14.397603S547.580961 680.640774 547.580961 672.674888l0-71.951135 86.356114 0c7.943759 0 14.390227-6.453843 14.390227-14.397603S641.880834 571.935923 633.937075 571.935923z" p-id="18329"></path><path d="M268.361876 562.694019c-7.759364 0-14.146825-4.454996-14.375475-12.258615l-0.140141-1.74807c-0.125389-1.703815-0.236026-2.987208-0.236026-4.720526 0-160.549499 125.809381-289.368215 286.403135-293.557681 7.840498-0.435173 14.552495 6.173562 14.751642 14.117322 0.213899 7.943759-6.055549 14.604126-14.01406 14.810649-144.875879 3.77642-258.367639 120.203757-258.367639 265.020629 0 1.07687 0.08851 2.146364 0.154892 3.215858 0.08851 1.231762 0.169644 0.767085 0.199147 2.043102 0.22865 7.936384-6.026046 13.077331-13.969805 13.077331L268.361876 562.694019 268.361876 562.694019z" p-id="18330"></path><path d="M605.488533 773.613c-5.731013 0-11.152242-3.444508-13.387115-9.079636-2.928201-7.397949 0.663824-15.769506 8.061773-18.697707 64.066382-25.453959 114.775153-72.703469 142.810649-133.037686 3.341247-7.206177 11.889824-10.363029 19.118128-6.984903 7.213553 3.341247 10.32615 11.904575 6.970151 19.118128-31.140717 67.024087-87.359226 119.473551-158.262994 147.671315C609.043679 773.281088 607.243978 773.613 605.488533 773.613L605.488533 773.613z" p-id="18331"></path><path d="M512.014752 0C229.240521 0 0 229.233145 0 512.014752c0 282.759479 229.240521 511.985248 512.014752 511.985248 282.774231 0 512.007376-229.225769 512.007376-511.985248C1024.022127 229.233145 794.788982 0 512.014752 0zM512.014752 999.032845c-268.981445 0-487.040221-218.0514-487.040221-487.018094 0-268.981445 218.058776-487.032845 487.040221-487.032845 268.988821 0 487.032845 218.0514 487.032845 487.032845C999.054973 780.988821 781.003573 999.032845 512.014752 999.032845z" p-id="18332"></path></svg>