<?xml version="1.0" standalone="no"?><!DOCTYPE svg PUBLIC "-//W3C//DTD SVG 1.1//EN" "http://www.w3.org/Graphics/SVG/1.1/DTD/svg11.dtd"><svg t="1517051470072" class="icon" style="" viewBox="0 0 1024 1024" version="1.1" xmlns="http://www.w3.org/2000/svg" p-id="22231" xmlns:xlink="http://www.w3.org/1999/xlink" width="128" height="128"><defs><style type="text/css"></style></defs><path d="M953.396477 402.931932c-8.67559-24.558325-30.676673-42.290175-57.410548-46.233997l-222.378763-32.525788-96.626711-197.686385c-11.694343-24.068162-37.176714-39.677675-64.998363-39.677675-27.713178 0-53.140291 15.610536-64.834634 39.624463l-96.626711 197.739597-222.596727 32.635281c-26.624381 3.943822-48.571229 21.621437-57.301054 46.287209-8.621355 24.937972-2.175549 51.944046 16.806781 70.599941l163.28283 160.426783-37.938054 222.543515c-4.623297 26.353205 6.662747 52.433186 29.643134 68.097958 12.047384 8.132214 26.297946 12.429077 41.201377 12.429077 12.047384 0 23.959691-2.88163 34.647101-8.457626l193.660698-102.908788 194.422038 103.180987c10.388605 5.357008 22.082948 8.022721 33.80492 8.022721 14.657838 0 29.370935-4.133134 41.772382-12.319583 22.653953-15.501042 33.885761-41.582047 29.316699-67.935252l-37.883819-222.543515 163.392324-160.644747C955.572026 454.930213 961.963597 427.979398 953.396477 402.931932zM897.699967 433.879782 734.307643 594.525552l-20.722974 20.369933 4.867868 28.691459 37.910425 222.706221c1.14201 6.554276-3.209088 10.606569-5.112438 11.938913-2.991124 1.985214-7.043417 3.099594-11.095709 3.099594-3.046383 0-5.983271-0.624217-7.696286-1.52268l-194.422038-103.179964-26.13524-13.869892-26.107611 13.869892L292.512588 879.347482c-2.692319 1.414209-5.765307 2.148943-8.892531 2.148943-3.807722 0-7.207146-0.979304-9.8176-2.747577-2.800789-1.90335-7.28901-6.036483-6.118348-12.727882l37.938054-222.543515 4.895497-28.691459-20.777209-20.397562L126.483204 433.961646c-3.671623-3.589758-4.813632-8.077979-3.345188-12.292977 1.822508-5.194302 6.662747-8.838296 12.862959-9.763364L358.598726 379.271046l29.072129-4.242627 12.890588-26.40744 96.653317-197.794855c2.393513-4.894474 8.458649-8.321526 14.768355-8.321526 6.390547 0 12.509918 3.427052 14.956643 8.429996l96.627734 197.686385 12.917194 26.40744 29.072129 4.242627 222.297922 32.525788c6.254447 0.925069 11.231809 4.624321 12.836353 9.165754C902.322242 425.74859 901.207861 430.399517 897.699967 433.879782z" p-id="22232"></path></svg>