<?xml version="1.0" standalone="no"?><!DOCTYPE svg PUBLIC "-//W3C//DTD SVG 1.1//EN" "http://www.w3.org/Graphics/SVG/1.1/DTD/svg11.dtd"><svg t="1517041144616" class="icon" style="" viewBox="0 0 1025 1024" version="1.1" xmlns="http://www.w3.org/2000/svg" p-id="7504" xmlns:xlink="http://www.w3.org/1999/xlink" width="128.125" height="128"><defs><style type="text/css"></style></defs><path d="M511.645702 0.004243A511.999293 511.999293 0 1 0 1025.412948 511.649945 511.645702 511.645702 0 0 0 511.645702 0.004243m0 972.020757a459.667873 459.667873 0 1 1 459.667874-459.667873 459.667873 459.667873 0 0 1-459.667874 459.667873" fill="#515151" p-id="7505"></path><path d="M263.778641 484.777054h-67.182227a20.508259 20.508259 0 0 0-20.154669 20.154668v176.795336A379.756382 379.756382 0 0 0 282.872537 809.726882v-304.79516a20.508259 20.508259 0 0 0-20.154668-20.154668zM451.535288 605.351473h-67.182228a20.508259 20.508259 0 0 0-20.154668 20.154669v231.248299a366.673527 366.673527 0 0 0 97.944616 26.872891 19.447487 19.447487 0 0 0 9.546948-16.618762v-241.502428a20.508259 20.508259 0 0 0-20.154668-20.154669zM638.938344 605.351473h-66.828637a20.508259 20.508259 0 0 0-20.154668 20.154669v241.502428a19.447487 19.447487 0 0 0 9.193357 16.618762 359.601713 359.601713 0 0 0 97.944616-26.872891v-231.248299a20.154668 20.154668 0 0 0-20.154668-20.154669zM848.617612 680.666286v-176.795336a20.154668 20.154668 0 0 0-20.154668-20.154668h-68.59659a20.154668 20.154668 0 0 0-20.154669 20.154668v305.855932a374.806112 374.806112 0 0 0 106.077202-129.060596zM511.999293 149.573097A195.182051 195.182051 0 1 0 707.181344 344.755148a195.182051 195.182051 0 0 0-195.182051-195.182051z" fill="#515151" p-id="7506"></path><path d="M589.082059 330.965112a16.618762 16.618762 0 0 0 0-32.883933h-56.574507v-2.828725l60.464005-53.745782a16.265171 16.265171 0 0 0-21.922622-24.397756L516.595972 265.197247l-49.502695-47.734741a16.618762 16.618762 0 0 0-22.983393 23.690575l55.513735 53.392192v3.535906h-56.574507a16.618762 16.618762 0 0 0 0 32.883933h56.574507v25.458528h-56.574507a16.265171 16.265171 0 0 0-16.265171 16.265171 16.618762 16.618762 0 0 0 16.265171 16.618762h56.574507v70.718134a16.618762 16.618762 0 1 0 32.883933 0V388.953982h56.574507a16.618762 16.618762 0 0 0 16.265171-16.618761 16.265171 16.265171 0 0 0-16.265171-16.265171h-56.574507v-25.104938z" fill="#515151" p-id="7507"></path></svg>