<?xml version="1.0" standalone="no"?><!DOCTYPE svg PUBLIC "-//W3C//DTD SVG 1.1//EN" "http://www.w3.org/Graphics/SVG/1.1/DTD/svg11.dtd"><svg t="1528365480894" class="icon" style="" viewBox="0 0 1024 1024" version="1.1" xmlns="http://www.w3.org/2000/svg" p-id="2001" xmlns:xlink="http://www.w3.org/1999/xlink" width="200" height="200"><defs><style type="text/css"></style></defs><path d="M512.377 34.962c-263.47 0-477.056 213.575-477.056 477.038 0 263.46 213.586 477.038 477.056 477.038 263.472 0 477.057-213.577 477.057-477.038-0.001-263.461-213.586-477.038-477.057-477.038zM512.377 918.681c-224.613 0-406.698-182.079-406.698-406.681 0-224.605 182.084-406.682 406.698-406.682 224.613 0 406.699 182.078 406.699 406.682-0.001 224.604-182.085 406.681-406.699 406.681zM661.676 760.333l23.762-13.092c-18.793-22.924-35.971-46.513-51.867-70.642-15.77-23.931-30.315-48.506-43.934-73.533l-34.862 19.2c-46-64.805-85.26-134.524-116.384-210.127l35.317-19.455c-13.636-24.518-26.411-49.552-38.034-75.264-12.077-26.729-22.991-54.283-32.429-82.878l-23.456 12.918c-39.821 22.741-56.798 51.244-50.941 85.526l0.346 1.452-0.17 0.099c1.89 8.321 3.901 16.576 6.023 24.78l0.086 0.364 0.009 0.016c37.065 142.912 109.395 266.4 206.939 375.996 0.318 0.823 0.612 1.633 0.879 2.429 6.402 6.526 12.807 13.056 19.211 19.578 25.84 23.267 59.011 24.144 99.505 2.633v0zM705.572 736.147c-19.361-23.354-36.954-47.388-53.138-71.955-15.571-23.641-29.817-47.661-43.073-71.996l26.783-14.751c13.613 3.409 78.14 78.5 94.662 144.802l-25.235 13.901zM493.438 381.812c-13.237-23.83-25.723-48.338-37.197-73.713-12.302-27.206-23.361-55.347-32.851-84.65l22.652-12.48c31.294 24.83 75.062 134.087 70.47 158.132l-23.073 12.71z" p-id="2002"></path></svg>