<?xml version="1.0" standalone="no"?><!DOCTYPE svg PUBLIC "-//W3C//DTD SVG 1.1//EN" "http://www.w3.org/Graphics/SVG/1.1/DTD/svg11.dtd"><svg t="1517553683535" class="icon" style="" viewBox="0 0 1025 1024" version="1.1" xmlns="http://www.w3.org/2000/svg" p-id="4565" xmlns:xlink="http://www.w3.org/1999/xlink" width="128.125" height="128"><defs><style type="text/css"></style></defs><path d="M472.602335 316.265556c11.454568 0 20.777538-9.315595 20.777538-20.762787s-9.322971-20.762787-20.777538-20.762787c-11.447192 0-20.762787 9.315595-20.762787 20.762787S461.155143 316.265556 472.602335 316.265556z" p-id="4566"></path><path d="M371.318289 273.191071c16.971642 0 34.983268 2.721658 53.5407 8.083842 6.298906 1.821815 13.187873-2.02096 14.987561-8.268236 1.851318-6.409542-1.858694-13.136243-8.275612-15.002312-20.497259-5.922742-40.544597-8.924679-59.574078-8.924679-92.860919 0-134.88067 69.855899-135.278961 70.549221-3.392853 5.730972-1.497281 13.165746 4.226315 16.558599 1.866069 1.113741 4.005042 1.703802 6.188269 1.703802 4.241067 0 8.231357-2.264361 10.414584-5.900614C258.977966 329.586193 293.791591 273.191071 371.318289 273.191071z" p-id="4567"></path><path d="M551.419792 295.495394m-20.762787 0a2.815 2.815 0 1 0 41.525574 0 2.815 2.815 0 1 0-41.525574 0Z" p-id="4568"></path><path d="M787.289477 319.621531c-0.420419-0.700698-42.92697-70.541845-135.278961-70.541845-19.029481 0-39.069443 3.001938-59.566702 8.924679-3.127326 0.907219-5.701469 2.965059-7.265131 5.812105-1.556287 2.824919-1.9177 6.092384-1.017856 9.182831 1.799687 6.247276 8.69603 10.097426 14.987561 8.275612 18.564808-5.362183 36.569058-8.083842 53.5407-8.083842 77.416061 0 112.332947 56.395122 113.778597 58.784871 2.183227 3.651005 6.173518 5.915366 10.414584 5.915366 2.183227 0 4.3222-0.590061 6.173518-1.703802C788.779382 332.787277 790.682331 325.359878 787.289477 319.621531z" p-id="4569"></path><path d="M479.557684 638.616122c-46.644357-43.428522-15.784144-122.850792-5.340056-145.900067 1.563663-2.817543 1.880821-3.724763 2.308615-5.081904 0.088509-0.258152 0.184394-0.560558 0.265528-0.833462l2.898677-5.517074c5.546578-13.505031 8.364121-27.725512 8.364121-42.255775 0-61.36639-49.933949-111.292963-111.300339-111.292963s-111.300339 49.926574-111.300339 111.292963c0 7.589665 0.781831 15.223585 2.35287 22.828002 0.354037 1.53416 2.441379 9.93516 8.327242 24.369538L360.778316 726.14436c0 0 2.87655 6.254651 5.08928 10.267069 13.49028 23.749973 38.907176 38.508885 66.337657 38.508885 42.152514 0 76.44246-34.297321 76.44246-76.449835C508.640338 674.565615 497.938098 652.66696 479.557684 638.616122zM432.197878 750.690916c-21.699509 0-40.802749-13.10674-48.69482-33.463859l-84.747574-239.616575c-5.583456-13.704177-7.287259-20.895551-7.294635-20.895551-1.187499-5.826857-1.792312-11.779102-1.792312-17.701843 0-48.01625 39.062067-87.085693 87.070941-87.085693 48.01625 0 87.078317 39.062067 87.078317 87.085693 0 11.174289-2.131597 22.333826-6.003875 31.944451l-3.068319 5.804729c-0.744953 1.814439-1.032608 2.692155-1.541536 3.916533l-0.612189 1.157996c-12.354411 27.150202-48.06788 120.011121 11.336555 175.233496 13.018231 10.001541 20.482508 25.084987 20.482508 41.385434C484.418316 727.265477 460.992876 750.690916 432.197878 750.690916z" p-id="4570"></path><path d="M647.267897 327.720124c-61.373766 0-111.307715 49.926574-111.307715 111.300339 0 14.55239 2.810168 28.772871 8.511636 42.580309l2.751161 5.185165c0.081133 0.287655 0.184394 0.597437 0.272903 0.855589 0.398291 1.298135 0.700698 2.168476 2.1611 4.809001 10.569476 23.314803 41.422313 102.751824-4.927013 145.92957-18.660693 14.279487-29.355557 36.178142-29.355557 60.083006 0 42.152514 34.289945 76.449835 76.435084 76.449835 27.437857 0 52.854754-14.751536 66.374536-38.560515 0.044255-0.081133 3.99029-7.361016 5.104031-10.5621l0.081133 0.029503 84.452544-239.446933c5.952245-14.596645 8.039587-22.997645 8.430503-24.67932 1.526784-7.479029 2.308615-15.112949 2.308615-22.680487C758.553485 377.646698 708.626911 327.720124 647.267897 327.720124zM591.802122 750.690916c-28.787623 0-52.213062-23.432815-52.213062-52.227813 0-16.300447 7.464277-31.383893 20.748035-41.614083 59.131532-55.001102 23.425439-147.854646 10.982519-175.181866l-0.759704-1.305511c-0.265528-0.877716-0.553183-1.770184-1.467778-3.916533L566.355722 471.311576c-4.034545-9.957287-6.166142-21.1242-6.166142-32.291112 0-48.01625 39.062067-87.078317 87.078317-87.078317 48.008874 0 87.070941 39.062067 87.070941 87.078317 0 5.900614-0.604813 11.852859-1.770184 17.605958-0.014752 0.073758-1.718554 7.257756-7.383144 21.153703L642.090108 713.399033l-1.607917 3.901781C632.612246 737.584177 613.509007 750.690916 591.802122 750.690916z" p-id="4571"></path><path d="M512.011064 0C229.231494 0 0 229.231494 0 512.011064c0 282.764818 229.231494 511.988936 512.011064 511.988936 282.772194 0 511.996312-229.224118 511.996312-511.988936C1024.007376 229.231494 794.783258 0 512.011064 0zM512.011064 999.033025c-268.979508 0-487.029337-218.04983-487.029337-487.021962S243.031556 24.981726 512.011064 24.981726c268.986884 0 487.029337 218.04983 487.029337 487.029337S780.997947 999.033025 512.011064 999.033025z" p-id="4572"></path></svg>