<?xml version="1.0" standalone="no"?><!DOCTYPE svg PUBLIC "-//W3C//DTD SVG 1.1//EN" "http://www.w3.org/Graphics/SVG/1.1/DTD/svg11.dtd"><svg t="1517223262148" class="icon" style="" viewBox="0 0 1024 1024" version="1.1" xmlns="http://www.w3.org/2000/svg" p-id="18090" xmlns:xlink="http://www.w3.org/1999/xlink" width="128" height="128"><defs><style type="text/css"></style></defs><path d="M810.666667 533.461333l77.994666 77.994667-30.165333 30.165333L810.666667 593.834667V853.333333H170.666667V213.333333h640v320.128zM512 597.333333h85.333333v42.666667h-85.333333v42.666667h-42.666667v-42.666667H384v-42.666667h85.333333v-42.666666H384v-42.666667h85.034667L363.861333 406.869333l30.208-30.208 96.896 96.938667 96.896-96.938667 30.208 30.208L512.853333 512H597.333333v42.666667h-85.333333v42.666666zM213.333333 256v554.666667h554.666667V256H213.333333z m554.666667 170.666667v64l42.666667 42.666666V469.333333l-42.666667-42.666666z" fill="#444444" p-id="18091"></path></svg>