<?xml version="1.0" standalone="no"?><!DOCTYPE svg PUBLIC "-//W3C//DTD SVG 1.1//EN" "http://www.w3.org/Graphics/SVG/1.1/DTD/svg11.dtd"><svg t="1526029767944" class="icon" style="" viewBox="0 0 1024 1024" version="1.1" xmlns="http://www.w3.org/2000/svg" p-id="3206" xmlns:xlink="http://www.w3.org/1999/xlink" width="200" height="200"><defs><style type="text/css"></style></defs><path d="M906.3 242.3H224.5c-8.5 0-16.5 3.9-21.8 10.5-5.3 6.6-7.3 15.3-5.4 23.6l60.9 269.7c0 0.2-0.1 0.4-0.1 0.6 0 3 0.8 5.8 2.1 8.3l33.6 149c2.9 12.7 14.2 21.8 27.3 21.8h488.7c13.1 0 24.4-9.1 27.3-21.8l96.5-427.6c1.9-8.3-0.1-17-5.5-23.6-5.3-6.6-13.3-10.5-21.8-10.5zM467.4 669.9l-12.8-104.5h86.9v104.5h-74.1z m-17.3-141.8l-10.9-89.3h102.4v89.3h-91.5z m-158.9-89.4h110.4l10.9 89.3H311.4l-20.2-89.3z m143.4-37.2L422 298.3h119.5v103.2H434.6z m-50.2-103.2L397 401.5H282.8l-23.3-103.2h124.9z m-64.6 267.1H417l12.8 104.5h-86.4l-23.6-104.5z m467.6 104.5H578.8V565.4h127c10.3 0 18.6-8.3 18.6-18.6s-8.4-18.6-18.6-18.6h-127v-89.3h164.4c10.3 0 18.6-8.4 18.6-18.6s-8.3-18.6-18.6-18.6H578.8V298.3h292.4l-83.8 371.6zM425 770.4c-51.5 0-93.3 41.9-93.3 93.3 0 51.5 41.9 93.3 93.3 93.3 51.5 0 93.3-41.9 93.3-93.3s-41.9-93.3-93.3-93.3z m0 130.7c-20.6 0-37.4-16.8-37.4-37.4 0-20.6 16.8-37.4 37.4-37.4 20.6 0 37.4 16.8 37.4 37.4 0 20.6-16.8 37.4-37.4 37.4zM705.8 770.4c-51.5 0-93.4 41.9-93.4 93.3 0 51.5 41.9 93.3 93.4 93.3 51.5 0 93.3-41.9 93.3-93.3s-41.8-93.3-93.3-93.3z m0 130.7c-20.6 0-37.4-16.8-37.4-37.4 0-20.6 16.8-37.4 37.4-37.4 20.6 0 37.4 16.8 37.4 37.4 0 20.6-16.8 37.4-37.4 37.4zM930.3 149.5H227.4l-14.1-62.7c-0.2-0.7-0.5-1.3-0.7-2-0.3-1-0.6-2.1-1-3-0.4-0.8-0.8-1.6-1.3-2.3-0.4-0.8-0.8-1.6-1.4-2.4-0.5-0.8-1.1-1.4-1.7-2.1-0.6-0.7-1.2-1.4-1.8-2-0.6-0.6-1.2-1-1.9-1.5-0.8-0.6-1.5-1.3-2.4-1.8-0.6-0.4-1.2-0.7-1.8-1-1-0.5-1.9-1.1-3-1.5-0.6-0.2-1.3-0.4-2-0.6-1.1-0.3-2.1-0.7-3.2-0.9-0.9-0.2-1.7-0.2-2.6-0.3-0.9-0.1-1.7-0.3-2.6-0.3H89.7c-15.4 0-28 12.5-28 28 0 15.4 12.5 28 28 28h74l14.1 62.7c0.4 1.6 0.9 3.2 1.5 4.7 0 0.1 0.1 0.2 0.2 0.4 0.6 1.5 1.4 2.9 2.2 4.2l0.9 1.2c0.7 1 1.4 1.9 2.3 2.8 0.4 0.4 0.9 0.8 1.4 1.3 0.8 0.7 1.6 1.4 2.5 2 0.5 0.4 1.1 0.8 1.7 1.1l2.7 1.5c0.6 0.3 1.2 0.6 1.8 0.8 1.1 0.4 2.2 0.7 3.3 1 0.5 0.1 1 0.3 1.6 0.4 1.7 0.3 3.4 0.5 5.2 0.5h725.2c15.4 0 28-12.5 28-28 0-15.7-12.6-28.2-28-28.2z" fill="#4F4F4F" p-id="3207"></path></svg>