<?xml version="1.0" standalone="no"?><!DOCTYPE svg PUBLIC "-//W3C//DTD SVG 1.1//EN" "http://www.w3.org/Graphics/SVG/1.1/DTD/svg11.dtd"><svg t="1523258141284" class="icon" style="" viewBox="0 0 1024 1024" version="1.1" xmlns="http://www.w3.org/2000/svg" p-id="56310" xmlns:xlink="http://www.w3.org/1999/xlink" width="128" height="128"><defs><style type="text/css"></style></defs><path d="M512 46.545455C254.929455 46.545455 46.545455 254.929455 46.545455 512c0 257.070545 208.384 465.454545 465.454545 465.454545 257.070545 0 465.454545-208.384 465.454545-465.454545C977.454545 254.929455 769.070545 46.545455 512 46.545455zM512 930.909091c-231.377455 0-418.909091-187.531636-418.909091-418.909091 0-231.377455 187.531636-418.909091 418.909091-418.909091 231.377455 0 418.909091 187.531636 418.909091 418.909091C930.909091 743.377455 743.377455 930.909091 512 930.909091zM512 674.909091c-25.693091 0-46.545455 20.852364-46.545455 46.545455s20.852364 46.545455 46.545455 46.545455 46.545455-20.852364 46.545455-46.545455S537.693091 674.909091 512 674.909091zM512 256c-77.125818 0-139.636364 62.510545-139.636364 139.636364l46.545455 0c0-51.386182 41.658182-93.090909 93.090909-93.090909s93.090909 41.704727 93.090909 93.090909-41.658182 93.090909-93.090909 93.090909c-8.098909 0-15.778909-1.349818-23.272727-3.304727L488.727273 605.090909c0 12.846545 10.426182 23.272727 23.272727 23.272727 12.846545 0 23.272727-10.426182 23.272727-23.272727l0-72.145455C601.274182 521.774545 651.636364 464.802909 651.636364 395.636364 651.636364 318.510545 589.125818 256 512 256z" p-id="56311"></path></svg>