<?xml version="1.0" standalone="no"?><!DOCTYPE svg PUBLIC "-//W3C//DTD SVG 1.1//EN" "http://www.w3.org/Graphics/SVG/1.1/DTD/svg11.dtd"><svg t="1517051358535" class="icon" style="" viewBox="0 0 1024 1024" version="1.1" xmlns="http://www.w3.org/2000/svg" p-id="21714" xmlns:xlink="http://www.w3.org/1999/xlink" width="128" height="128"><defs><style type="text/css"></style></defs><path d="M512 1024C229.2224 1024 0 794.7776 0 512S229.2224 0 512 0s512 229.2224 512 512-229.2224 512-512 512z m0-998.4C243.3792 25.6 25.6 243.3792 25.6 512s217.7792 486.4 486.4 486.4 486.4-217.7792 486.4-486.4S780.6208 25.6 512 25.6z" fill="" p-id="21715"></path><path d="M512 1024C229.2224 1024 0 794.7776 0 512S229.2224 0 512 0s512 229.2224 512 512-229.2224 512-512 512z m0-998.4C243.3792 25.6 25.6 243.3792 25.6 512s217.7792 486.4 486.4 486.4 486.4-217.7792 486.4-486.4S780.6208 25.6 512 25.6z" fill="" p-id="21716"></path><path d="M670.72 742.3744c-10.24 0-17.92-7.68-17.92-17.92 0-10.24 7.68-17.92 17.92-17.92h107.52c2.56 0 5.12-2.56 5.12-5.12V322.56c0-2.56-2.56-5.12-5.12-5.12h-248.32c-10.24 0-17.92-7.68-17.92-17.92 0-10.24 7.68-17.92 17.92-17.92h248.32c23.04 0 40.96 17.92 40.96 40.96v378.8544c0 23.04-17.92 40.96-40.96 40.96h-107.52z m-92.16-2.56c-10.24 0-17.92-7.68-17.92-17.92-5.12-81.92-76.8-148.48-158.72-148.48s-153.6 64-158.72 148.48c0 10.24-10.24 17.92-17.92 17.92-5.12 0-10.24-2.56-12.8-5.12-5.12-5.12-7.68-10.24-7.68-15.36 5.12-79.36 58.88-145.92 133.12-171.52-56.32-30.72-87.04-92.16-71.68-156.1344 12.8-48.64 51.2-89.6 102.4-99.84 10.24-2.56 20.48-2.56 33.28-2.56 76.8 0 138.24 61.44 138.24 138.24 0 51.1744-28.16 99.8144-74.24 122.8544 74.24 25.6 128 92.16 133.12 171.52 0 5.12-2.56 10.24-5.12 15.36-5.12 0-7.68 2.56-15.36 2.56zM401.92 325.12c-56.32 0-99.84 46.08-99.84 99.84 0 56.2944 46.08 99.8144 99.84 99.8144 56.32 0 99.84-46.08 99.84-99.8144 0-56.32-43.52-99.84-99.84-99.84z m217.6 289.2544c-10.24 0-20.48-7.68-20.48-20.48 0-10.24 7.68-20.48 20.48-20.48h110.08c10.24 0 20.48 7.68 20.48 20.48 0 10.24-7.68 20.48-20.48 20.48h-110.08z m-30.72-92.16c-10.24 0-20.48-7.68-20.48-20.48s7.68-20.48 20.48-20.48h143.36c10.24 0 20.48 7.68 20.48 20.48s-7.68 20.48-20.48 20.48H588.8z m0-84.4544c-10.24 0-20.48-7.68-20.48-20.48s7.68-20.48 20.48-20.48h143.36c10.24 0 20.48 7.68 20.48 20.48s-7.68 20.48-20.48 20.48H588.8z" fill="" p-id="21717"></path></svg>