<?xml version="1.0" standalone="no"?><!DOCTYPE svg PUBLIC "-//W3C//DTD SVG 1.1//EN" "http://www.w3.org/Graphics/SVG/1.1/DTD/svg11.dtd"><svg t="1517051410639" class="icon" style="" viewBox="0 0 1024 1024" version="1.1" xmlns="http://www.w3.org/2000/svg" p-id="21845" xmlns:xlink="http://www.w3.org/1999/xlink" width="128" height="128"><defs><style type="text/css"></style></defs><path d="M940.176952 881.789315l-854.172071 0c-47.145036 0-85.971711-38.826076-85.971711-85.972111l0-604.578296c0-47.146235 38.826875-85.972111 85.971711-85.972111l851.40095 0c47.144236 0 85.972111 38.826076 85.972111 85.972111L1023.377942 795.817204C1026.149862 845.736559 987.324186 881.789315 940.176952 881.789315zM86.004881 149.642111c-22.186957 0-41.601794 19.412638-41.601794 41.596797L44.403087 795.817204c0 22.186158 19.415037 41.599196 41.601794 41.599196l851.40095 0c22.186158 0 41.597997-19.413038 41.597997-41.599196l0-604.578296c0-22.184159-19.411839-41.596797-41.597997-41.596797L86.004881 149.642111zM407.705568 740.35081l-194.130779 0c-38.825676 0-77.651552-22.187357-77.651552-69.332193 0-44.371916 36.053756-61.011834 61.012833-74.878432 27.730399-13.865599 36.053756-19.412638 36.053756-36.051357 0-8.320559-8.323357-22.189156-19.415037-38.827875-19.41064-30.505517-44.373115-69.332992-44.373115-130.346025 0-85.971711 58.240513-144.208427 138.667384-144.208427 80.421674 0 138.662587 61.010635 138.662587 144.208427 0 63.787952-24.958478 102.613628-44.373115 130.346025-11.09168 13.865599-19.411839 27.733197-19.411839 38.827875 0 16.638719 11.092479 22.185758 36.052556 36.051357 24.962076 11.092479 61.011834 27.732397 61.011834 74.878432C485.359119 718.163653 446.531644 740.35081 407.705568 740.35081zM310.639379 291.078217c-58.236716 0-94.29147 38.826875-94.29147 99.836511 0 49.920354 19.414237 80.42787 38.826076 108.159068 13.867598 19.412638 24.962076 38.825676 24.962076 61.014832 0 47.143836-36.053756 63.783755-63.787952 74.877433-24.960077 13.867598-36.050558 19.412638-36.050558 36.052556 0 19.413038 16.638719 24.960077 33.277438 24.960077l194.130779 0c13.867598 0 33.279836-5.547039 33.279836-24.960077 0-16.639918-11.092479-22.184959-36.051757-33.278637-27.733597-11.093279-63.786753-27.733197-63.786753-74.878233 0-22.188156 11.094478-41.600995 24.960877-61.014032 16.639119-27.731998 38.826076-58.238714 38.826076-108.158668C407.705568 329.904892 368.879891 291.078217 310.639379 291.078217zM757.14165 632.192941l-146.984744 0c-11.094478 0-22.186957 11.092479-22.186957 22.185758 0 11.093678 11.092479 22.187357 22.186957 22.187357l146.984744 0c11.092479 0 22.186957-11.093678 22.186957-22.187357C779.328607 640.512301 771.00605 632.192941 757.14165 632.192941zM845.885881 521.260753l-235.728776 0c-11.094478 0-22.186957 11.094478-22.186957 22.188156 0 11.090481 11.092479 22.184959 22.186957 22.184959l235.728776 0c11.096477 0 22.186957-11.094478 22.186957-22.184959C868.072639 532.355231 856.982158 521.260753 845.885881 521.260753zM845.885881 413.101685l-235.728776 0c-11.094478 0-22.186957 11.094878-22.186957 22.188156 0 11.092479 11.092479 22.186158 22.186957 22.186158l235.728776 0c11.096477 0 22.186957-11.093678 22.186957-22.186158C868.072639 421.422244 856.982158 413.101685 845.885881 413.101685zM845.885881 302.170696l-235.728776 0c-11.094478 0-22.186957 11.094878-22.186957 22.184959 0 11.094878 11.092479 22.189156 22.186957 22.189156l235.728776 0c11.096477 0 22.186957-11.094478 22.186957-22.189156C868.072639 313.265374 856.982158 302.170696 845.885881 302.170696z" p-id="21846"></path></svg>