<?xml version="1.0" standalone="no"?><!DOCTYPE svg PUBLIC "-//W3C//DTD SVG 1.1//EN" "http://www.w3.org/Graphics/SVG/1.1/DTD/svg11.dtd"><svg t="1517222234742" class="icon" style="" viewBox="0 0 1024 1024" version="1.1" xmlns="http://www.w3.org/2000/svg" p-id="10685" xmlns:xlink="http://www.w3.org/1999/xlink" width="128" height="128"><defs><style type="text/css"></style></defs><path d="M512.1 960C265 960 64 759 64 512c0-119.7 46.6-232.2 131.3-317 84.9-84.5 197.3-131 316.8-131 90.1 0 177.1 26.7 251.5 77.3C886.5 224.8 960 363.4 960 512c0 11-0.4 21-1.2 30.6C943.4 776.4 747.2 960 512.1 960z m0-840.1c-104.5 0-203 40.7-277.3 114.7-74.1 74.1-114.9 172.6-114.9 277.4 0 216.2 176 392.1 392.2 392.1 205.8 0 377.5-160.7 391.1-365.8 0.7-8.4 1-16.9 1-26.4 0-130-64.3-251.4-172-324.5-65.1-44.2-141.2-67.5-220.1-67.5z" p-id="10686"></path><path d="M177.1 551.9c-7.2 0-13.3-5.5-13.9-12.8-0.7-9-1.1-18.1-1.1-27.1 0-7.7 6.2-14 14-14 7.7 0 14 6.2 14 14 0 8.2 0.3 16.6 1 24.8 0.6 7.7-5.1 14.4-12.8 15.1h-1.2zM302.1 776.3c-2.9 0-5.8-0.9-8.3-2.8-55.3-41-95.6-97.2-116.4-162.5-2.3-7.3 1.7-15.2 9.1-17.6 7.4-2.4 15.2 1.7 17.5 9.1 19 59.7 55.8 111 106.4 148.6 6.2 4.6 7.5 13.3 2.9 19.5-2.7 3.8-7 5.7-11.2 5.7zM512.1 526c-3.7 0-7.3-1.5-9.9-4.1L207.5 227.1c-5.5-5.5-5.5-14.3 0-19.7 5.5-5.5 14.3-5.5 19.7 0L511.8 492l278.7-294.7c5.3-5.6 14.1-5.8 19.7-0.5s5.9 14.1 0.5 19.7L522.2 521.6c-2.6 2.7-6.2 4.3-9.9 4.4h-0.2z" p-id="10687"></path><path d="M512.1 526c-7.5 0-13.7-6-13.9-13.6-0.2-7.7 5.8-14.1 13.6-14.4l404.5-11.6c7.6-0.1 14.1 5.9 14.4 13.6 0.2 7.7-5.9 14.1-13.6 14.4L512.5 526h-0.4z" p-id="10688"></path></svg>