<?xml version="1.0" standalone="no"?><!DOCTYPE svg PUBLIC "-//W3C//DTD SVG 1.1//EN" "http://www.w3.org/Graphics/SVG/1.1/DTD/svg11.dtd"><svg t="1520317778084" class="icon" style="" viewBox="0 0 1024 1024" version="1.1" xmlns="http://www.w3.org/2000/svg" p-id="19663" xmlns:xlink="http://www.w3.org/1999/xlink" width="128" height="128"><defs><style type="text/css"></style></defs><path d="M512 1024C229.239467 1024 0 794.760533 0 512 0 229.239467 229.239467 0 512 0c282.760533 0 512 229.239467 512 512 0 282.760533-229.239467 512-512 512z m108.202667-273.066667c128.341333 0 232.448-114.449067 232.448-255.624533 0-141.141333-104.106667-255.5904-232.448-255.5904h-155.0336V750.933333h154.999466zM201.6256 750.933333c102.741333 0 186.026667-80.7936 186.026667-180.4288V239.7184H325.666133v330.752c0 66.4576-55.5008 120.32-124.0064 120.32H170.666667V750.933333h30.993066z" p-id="19664" fill="#d81e06"></path><path d="M620.202667 299.861333h-93.047467v390.894934h93.013333c94.173867 0 170.496-87.517867 170.496-195.447467s-76.322133-195.447467-170.496-195.447467z" p-id="19665" fill="#d81e06"></path></svg>