<?xml version="1.0" standalone="no"?><!DOCTYPE svg PUBLIC "-//W3C//DTD SVG 1.1//EN" "http://www.w3.org/Graphics/SVG/1.1/DTD/svg11.dtd"><svg t="1517008209474" class="icon" style="" viewBox="0 0 1026 1024" version="1.1" xmlns="http://www.w3.org/2000/svg" p-id="3858" xmlns:xlink="http://www.w3.org/1999/xlink" width="64.125" height="64"><defs><style type="text/css"></style></defs><path d="M515.897088 53.76 515.897088 53.76c74.24 0 143.36 35.84 192 99.84 15.36 17.92 17.92 30.72 17.92 33.28l0 2.56c0 84.48 0 168.96-7.68 250.88-7.68 61.44-35.84 115.2-84.48 161.28-30.72 28.16-43.52 61.44-38.4 94.72 5.12 33.28 30.72 64 69.12 81.92 43.52 20.48 89.6 40.96 133.12 64 51.2 23.04 104.96 48.64 156.16 74.24 5.12 2.56 12.8 7.68 20.48 10.24 2.56 12.8 0 28.16 0 43.52-89.6 0-179.2 0-271.36 0l-94.72 0-94.72 0-5.12 0-79.36 0-192 0-184.32 0c0 0-2.56 0-2.56 0l0-5.12c-2.56-28.16 0-40.96 40.96-58.88 71.68-30.72 143.36-64 212.48-99.84 20.48-10.24 38.4-17.92 58.88-28.16 38.4-17.92 61.44-46.08 66.56-81.92 5.12-33.28-7.68-66.56-35.84-97.28-64-61.44-92.16-140.8-97.28-248.32 0-15.36 0-28.16 0-43.52 0-25.6 0-51.2-2.56-76.8-5.12-51.2 15.36-87.04 66.56-125.44C410.937088 71.68 464.697088 53.76 515.897088 53.76M515.897088 2.56c-61.44 0-125.44 20.48-181.76 64-56.32 43.52-94.72 94.72-87.04 171.52 2.56 38.4 0 79.36 0 117.76 2.56 107.52 30.72 204.8 112.64 284.16 35.84 35.84 28.16 71.68-17.92 94.72-89.6 43.52-179.2 87.04-268.8 125.44-53.76 23.04-79.36 51.2-71.68 112.64 5.12 51.2 0 51.2 53.76 51.2 61.44 0 122.88 0 184.32 0 89.6 0 181.76 0 271.36 0 2.56 0 2.56 0 5.12 0 61.44 0 125.44 0 186.88 0 94.72 0 186.88 0 281.6 0 12.8 0 35.84-5.12 35.84-10.24 2.56-33.28 7.68-69.12 0-102.4-2.56-15.36-28.16-28.16-46.08-35.84-97.28-46.08-192-92.16-289.28-138.24-46.08-23.04-53.76-58.88-17.92-94.72 56.32-53.76 92.16-120.32 99.84-194.56 10.24-87.04 10.24-174.08 7.68-261.12 0-20.48-15.36-46.08-28.16-64C689.977088 43.52 602.937088 2.56 515.897088 2.56L515.897088 2.56z" p-id="3859"></path></svg>