<?xml version="1.0" standalone="no"?><!DOCTYPE svg PUBLIC "-//W3C//DTD SVG 1.1//EN" "http://www.w3.org/Graphics/SVG/1.1/DTD/svg11.dtd"><svg t="1523085478984" class="icon" style="" viewBox="0 0 1024 1024" version="1.1" xmlns="http://www.w3.org/2000/svg" p-id="2044" xmlns:xlink="http://www.w3.org/1999/xlink" width="200" height="200"><defs><style type="text/css"></style></defs><path d="M909 752H759a30 30 0 0 1 0-60h120a20 20 0 0 0 20-20V232a20 20 0 0 0-20-20H145a20 20 0 0 0-20 20v440a20 20 0 0 0 20 20h115a30 30 0 0 1 0 60H115a50 50 0 0 1-50-50V202a50 50 0 0 1 50-50h794a50 50 0 0 1 50 50v500a50 50 0 0 1-50 50zM370.754 580.763a29.963 29.963 0 0 1 42.369 0l98.861 98.851 98.861-98.851a29.958 29.958 0 1 1 42.369 42.365l-98.861 98.851 98.861 98.851a29.958 29.958 0 0 1-42.369 42.364l-98.861-98.85-98.861 98.85a29.958 29.958 0 0 1-42.369-42.364l98.861-98.851-98.861-98.851a29.954 29.954 0 0 1 0-42.365z" fill="#333333" p-id="2045"></path></svg>