<?xml version="1.0" standalone="no"?><!DOCTYPE svg PUBLIC "-//W3C//DTD SVG 1.1//EN" "http://www.w3.org/Graphics/SVG/1.1/DTD/svg11.dtd"><svg t="1517899818367" class="icon" style="" viewBox="0 0 1024 1024" version="1.1" xmlns="http://www.w3.org/2000/svg" p-id="6742" xmlns:xlink="http://www.w3.org/1999/xlink" width="128" height="128"><defs><style type="text/css"></style></defs><path d="M857.8048 128 597.2992 128 426.7008 128 166.1952 128c-44.4416 0-80.7936 40.96-80.7936 91.0336l0 585.9328c0 50.0736 36.352 91.0336 80.7936 91.0336l691.6096 0c44.4416 0 80.7936-40.96 80.7936-91.0336L938.5984 219.0336C938.7008 168.96 902.2464 128 857.8048 128zM857.8048 170.7008c20.6848 0 38.1952 22.1184 38.1952 48.3328l0 79.6672L640 298.7008l0-128L857.8048 170.7008zM597.2992 170.7008l0 378.9824-66.2528-33.0752-19.0464-9.5232-19.0464 9.5232-66.2528 33.0752L426.7008 170.7008 597.2992 170.7008zM166.1952 170.7008 384 170.7008l0 128L128 298.7008l0-79.6672C128 192.8192 145.5104 170.7008 166.1952 170.7008zM857.8048 853.2992 166.1952 853.2992c-20.6848 0-38.1952-22.1184-38.1952-48.3328L128 341.2992l256 0 0 213.2992c0 23.4496 19.2512 42.7008 42.7008 42.7008l85.2992-42.7008 85.2992 42.7008c23.4496 0 42.7008-19.2512 42.7008-42.7008L640 341.2992l256 0 0 463.6672C896 831.1808 878.4896 853.2992 857.8048 853.2992z" p-id="6743"></path></svg>