<?xml version="1.0" standalone="no"?><!DOCTYPE svg PUBLIC "-//W3C//DTD SVG 1.1//EN" "http://www.w3.org/Graphics/SVG/1.1/DTD/svg11.dtd"><svg t="1517556084832" class="icon" style="" viewBox="0 0 1025 1024" version="1.1" xmlns="http://www.w3.org/2000/svg" p-id="6589" xmlns:xlink="http://www.w3.org/1999/xlink" width="128.125" height="128"><defs><style type="text/css"></style></defs><path d="M117.081291 814.616154c-64.160121 0-116.358377-52.19928-116.358377-116.359401L0.722914 209.56099c0-64.160121 52.198256-116.358377 116.358377-116.358377l418.891591 0c64.160121 0 116.359401 52.198256 116.359401 116.358377l0 535.238704c0 12.852708-10.419786 23.272495-23.272495 23.272495s-23.272495-10.419786-23.272495-23.272495L605.787293 209.56099c0-38.495663-31.318749-69.814412-69.815436-69.814412L117.081291 139.746579c-38.495663 0-69.814412 31.318749-69.814412 69.814412L47.266879 698.256753c0 38.496687 31.318749 69.815436 69.814412 69.815436 12.852708 0 23.272495 10.419786 23.272495 23.272495S129.933999 814.616154 117.081291 814.616154zM629.059787 814.616154 396.343034 814.616154c-12.852708 0-23.271471-10.419786-23.271471-23.272495s10.418762-23.272495 23.271471-23.272495l232.716754 0c12.852708 0 23.272495 10.419786 23.272495 23.272495S641.912496 814.616154 629.059787 814.616154zM954.864472 814.616154 908.32153 814.616154c-12.852708 0-23.272495-10.419786-23.272495-23.272495s10.419786-23.272495 23.272495-23.272495l46.542941 0c12.832229 0 23.272495-10.439242 23.272495-23.272495L978.136966 581.898376c0-20.66038-10.875447-53.27853-23.273519-69.803148l-83.772994-111.703468c-10.964531-14.613914-37.589461-27.927403-55.85583-27.927403L652.332282 372.464356c-12.852708 0-23.272495-10.419786-23.272495-23.272495s10.419786-23.271471 23.272495-23.271471L815.2336 325.920391c33.161871 0 73.181182 20.009144 93.088954 46.541917l83.772994 111.703468c18.57458 24.757232 32.584359 66.774283 32.584359 97.731575l0 162.902342C1024.679907 783.296382 993.360135 814.616154 954.864472 814.616154zM954.864472 605.169847 768.690659 605.169847c-25.663434 0-46.543965-20.880531-46.543965-46.543965l0-93.075643c0-25.663434 20.880531-46.543965 46.543965-46.543965l116.358377 0c12.852708 0 23.272495 10.419786 23.272495 23.272495s-10.419786 23.271471-23.272495 23.271471L768.690659 465.550239l0 93.075643 186.172789 0c12.852708 0 23.272495 10.419786 23.272495 23.272495S967.716156 605.169847 954.864472 605.169847zM256.712162 930.974531c-64.160121 0-116.358377-52.19928-116.358377-116.359401s52.198256-116.359401 116.358377-116.359401 116.358377 52.19928 116.358377 116.359401S320.872283 930.974531 256.712162 930.974531zM256.712162 744.800718c-38.496687 0-69.815436 31.318749-69.815436 69.815436s31.318749 69.815436 69.815436 69.815436 69.815436-31.318749 69.815436-69.815436S295.208849 744.800718 256.712162 744.800718zM768.690659 930.974531c-64.160121 0-116.359401-52.19928-116.359401-116.359401s52.19928-116.359401 116.359401-116.359401 116.358377 52.19928 116.358377 116.359401S832.85078 930.974531 768.690659 930.974531zM768.690659 744.800718c-38.496687 0-69.815436 31.318749-69.815436 69.815436s31.318749 69.815436 69.815436 69.815436c38.495663 0 69.814412-31.318749 69.814412-69.815436S807.186322 744.800718 768.690659 744.800718zM396.343034 488.822733 279.983633 488.822733c-12.852708 0-23.271471-10.419786-23.271471-23.272495L256.712162 279.376426c0-12.852708 10.418762-23.271471 23.271471-23.271471s23.271471 10.418762 23.271471 23.271471l0 162.901318 93.086906 0c12.852708 0 23.271471 10.419786 23.271471 23.272495S409.194718 488.822733 396.343034 488.822733z" p-id="6590"></path></svg>