<?xml version="1.0" standalone="no"?><!DOCTYPE svg PUBLIC "-//W3C//DTD SVG 1.1//EN" "http://www.w3.org/Graphics/SVG/1.1/DTD/svg11.dtd"><svg t="1517900215205" class="icon" style="" viewBox="0 0 1024 1024" version="1.1" xmlns="http://www.w3.org/2000/svg" p-id="14695" xmlns:xlink="http://www.w3.org/1999/xlink" width="128" height="128"><defs><style type="text/css"></style></defs><path d="M665.6 243.2c-6.4 0-12.8 0-12.8-6.4l-134.4-128h-12.8L371.2 243.2c-6.4 6.4-19.2 6.4-25.6 0s-6.4-19.2 0-25.6l134.4-134.4c19.2-19.2 44.8-19.2 64 0l134.4 134.4c6.4 6.4 6.4 19.2 0 25.6h-12.8z" fill="" p-id="14696"></path><path d="M512 678.4c-12.8 0-19.2-6.4-19.2-19.2V96c0-12.8 6.4-19.2 19.2-19.2s19.2 6.4 19.2 19.2v556.8c0 12.8-6.4 25.6-19.2 25.6z" fill="" p-id="14697"></path><path d="M819.2 960H204.8C128 960 64 902.4 64 832V448c0-70.4 64-128 140.8-128H384c12.8 0 19.2 6.4 19.2 19.2s-6.4 19.2-19.2 19.2H204.8c-57.6 0-102.4 38.4-102.4 89.6v384c0 51.2 44.8 89.6 102.4 89.6h614.4c57.6 0 102.4-38.4 102.4-89.6V448c0-51.2-44.8-89.6-102.4-89.6h-153.6c-12.8 0-19.2-6.4-19.2-19.2s6.4-19.2 19.2-19.2h153.6C896 320 960 377.6 960 448v384c0 70.4-64 128-140.8 128z" fill="" p-id="14698"></path></svg>