<?xml version="1.0" standalone="no"?><!DOCTYPE svg PUBLIC "-//W3C//DTD SVG 1.1//EN" "http://www.w3.org/Graphics/SVG/1.1/DTD/svg11.dtd"><svg t="1517053505394" class="icon" style="" viewBox="0 0 1024 1024" version="1.1" xmlns="http://www.w3.org/2000/svg" p-id="29074" xmlns:xlink="http://www.w3.org/1999/xlink" width="128" height="128"><defs><style type="text/css"></style></defs><path d="M786.954701 590.084403c34.137495 0 61.910025 27.77253 61.910025 61.910025 0 34.137495-27.77253 61.910025-61.910025 61.910025s-61.910025-27.77253-61.910025-61.910025C725.044676 617.856933 752.817206 590.084403 786.954701 590.084403M786.954701 553.24538c-54.537104 0-98.749048 44.211944-98.749048 98.749048s44.211944 98.749048 98.749048 98.749048 98.749048-44.211944 98.749048-98.749048S841.492828 553.24538 786.954701 553.24538L786.954701 553.24538z" p-id="29075"></path><path d="M906.313136 336.275813l-82.223676 0 18.887163-18.816554c14.353916-14.300704 14.397918-37.744649 0.097214-52.098565L632.903116 54.405097c-7.16826-7.194866-16.631796-10.794857-26.098401-10.793834-9.41851 0.001023-18.841114 3.565199-25.999141 10.69662l-58.95267 58.732659L415.357428 48.865941c-5.910617-3.562129-12.447497-5.255701-18.911722-5.255701-12.516058 0-24.759917 6.351662-31.654954 17.795295l-165.635411 274.870278-82.83459 0c-40.522925 0-73.678046 33.155121-73.678046 73.678046l0 497.326812c0 40.522925 33.155121 73.678046 73.678046 73.678046l789.992385 0c40.522925 0 73.678046-33.155121 73.678046-73.678046l0-497.326812C979.991182 369.430934 946.836061 336.275813 906.313136 336.275813zM606.758666 80.452333c0.013303-0.001023 0.029676-0.002047 0.047072-0.002047l0.002047 0 0.001023 0c0.016373 0 0.031722 0.001023 0.044002 0.002047L816.929386 291.314809c0.00307 0.029676 0.002047 0.063445 0 0.093121l-45.035706 44.867884L349.976348 336.275813 606.758666 80.452333zM396.309606 80.475869c0.026606-0.00921 0.059352-0.017396 0.090051-0.022513l98.552573 59.386552L297.780569 336.275813l-55.614645 0L396.309606 80.475869zM943.152159 907.280672c0 9.758248-3.854794 18.987447-10.853186 25.985838s-16.22759 10.853186-25.985838 10.853186l-789.992385 0c-9.758248 0-18.987447-3.854794-25.985838-10.853186s-10.853186-16.22759-10.853186-25.985838l0-497.326812c0-9.758248 3.854794-18.987447 10.853186-25.985838s16.22759-10.853186 25.985838-10.853186l789.992385 0c9.758248 0 18.987447 3.854794 25.985838 10.853186s10.853186 16.22759 10.853186 25.985838L943.152159 907.280672z" p-id="29076"></path></svg>