<?xml version="1.0" standalone="no"?><!DOCTYPE svg PUBLIC "-//W3C//DTD SVG 1.1//EN" "http://www.w3.org/Graphics/SVG/1.1/DTD/svg11.dtd"><svg t="1517220315365" class="icon" style="" viewBox="0 0 1024 1024" version="1.1" xmlns="http://www.w3.org/2000/svg" p-id="8348" xmlns:xlink="http://www.w3.org/1999/xlink" width="128" height="128"><defs><style type="text/css"></style></defs><path d="M197.12 1002.666c-40.107 0-72.533-32.427-72.533-72.533v-352.427h52.053v351.573c0 11.093 9.387 20.48 20.48 20.48h605.867c11.093 0 20.48-9.387 20.48-20.48v-339.627h52.053v340.48c0 40.107-32.427 72.533-72.533 72.533h-605.867z" fill="" p-id="8349"></path><path d="M127.147 580.266v349.013c0 38.4 31.573 69.973 69.973 69.973h605.867c38.4 0 69.973-30.72 69.973-69.973v-337.067h-46.933v337.92c0 12.8-10.24 23.040-23.040 23.040h-605.867c-12.8 0-23.040-10.24-23.040-23.040v-349.867h-46.933z" fill="" p-id="8350"></path><path d="M497.493 309.76h52.053v669.013h-52.053z" fill="" p-id="8351"></path><path d="M546.133 976.213v-663.893h-46.933v663.893h46.933z" fill="" p-id="8352"></path><path d="M150.187 594.773c-65.707 0-118.613-53.76-118.613-118.613v-189.44h817.493c65.707 0 118.613 53.76 118.613 118.613v188.587h-817.493zM83.627 475.306c0 37.547 29.867 67.413 67.413 67.413h766.293v-136.533c0-37.547-29.867-67.413-67.413-67.413h-766.293v136.533z" fill="" p-id="8353"></path><path d="M57.173 336.213h791.893c38.4 0 69.973 31.573 69.973 69.973v162.987l23.040-23.040h-791.893c-38.4 0-69.973-31.573-69.973-69.973v-163.84l-23.040 23.893zM57.173 289.28h-23.040v186.027c0 64 52.053 116.053 116.053 116.053h814.933v-185.173c0-64-52.053-116.053-116.053-116.053h-791.893v-0.853z" fill="" p-id="8354"></path><path d="M427.52 338.773v-122.027h191.147v121.173h-191.147zM567.467 286.72v-17.92h-88.747v17.92h88.747z" fill="" p-id="8355"></path><path d="M453.12 266.24h139.947l-23.040-23.040v69.973l23.040-23.040h-139.947l23.040 23.040v-69.973l-23.040 23.040zM453.12 219.306h-23.040v116.907h186.027v-116.053h-162.987v-0.853z" fill="" p-id="8356"></path><path d="M244.053 329.386c-2.56-3.413-6.827-8.533-12.8-16.213-10.24-13.653-19.627-27.307-27.307-40.107-10.24-15.36-17.92-30.72-24.747-44.373-22.187-46.933-23.893-81.067-5.12-105.813 42.667-57.173 120.32-103.253 172.373-103.253 25.6 0 53.76 21.333 98.987 75.947 8.533 10.24 17.067 21.333 26.453 33.28 14.507 20.48 31.573 43.52 48.64 68.267 5.973 8.533 11.093 16.213 15.36 23.040 2.56 4.267 6.827 11.093 6.827 11.093l-43.52 28.16s-4.267-6.827-6.827-10.24c-3.413-6.827-8.533-14.507-14.507-23.040-17.067-23.893-33.28-46.933-48.64-66.56-8.533-11.093-17.067-22.187-24.747-31.573-31.573-38.4-54.613-57.173-58.88-57.173-34.987 0-98.987 40.107-130.56 82.773-4.267 5.973-2.56 23.893 11.093 52.907 5.973 11.947 12.8 24.747 21.333 38.4 7.68 11.947 16.213 24.747 25.6 36.693 5.12 6.827 9.387 11.947 11.093 14.507l1.707 1.707-40.107 32.427-1.707-0.853z" fill="" p-id="8357"></path><path d="M505.173 230.4l39.253 25.6c0.853-1.707 2.56-4.267 5.12-8.533 4.267-6.827 9.387-14.507 15.36-22.187 15.36-23.040 32.427-46.080 48.64-67.413 8.533-11.093 17.067-22.187 25.6-31.573 29.867-35.84 55.467-58.027 61.44-58.027 36.693 0 99.84 40.107 133.12 83.627 5.12 6.827 2.56 27.307-11.093 55.467-5.973 11.947-12.8 25.6-21.333 39.253-7.68 12.8-17.067 25.6-25.6 36.693-5.12 6.827-9.387 11.947-11.093 14.507l35.84 29.867c2.56-3.413 6.827-8.533 12.8-16.213 9.387-12.8 18.773-26.453 27.307-40.107 9.387-15.36 17.92-29.867 24.747-44.373 19.627-42.667 24.747-77.653 5.973-103.253-42.667-53.76-119.467-102.4-172.373-102.4-26.453 0-56.32 26.453-97.28 75.093-8.533 10.24-17.067 21.333-26.453 33.28-17.067 22.187-33.28 45.227-49.493 69.12-5.973 8.533-11.093 16.213-15.36 23.040-2.56 3.413-4.267 6.827-5.12 8.533z" fill="" p-id="8358"></path></svg>