<?xml version="1.0" standalone="no"?><!DOCTYPE svg PUBLIC "-//W3C//DTD SVG 1.1//EN" "http://www.w3.org/Graphics/SVG/1.1/DTD/svg11.dtd"><svg t="1520650830978" class="icon" style="" viewBox="0 0 1024 1024" version="1.1" xmlns="http://www.w3.org/2000/svg" p-id="2403" xmlns:xlink="http://www.w3.org/1999/xlink" width="128" height="128"><defs><style type="text/css"></style></defs><path d="M365.504 426.368 148.704 426.368c-37.44 0-67.872-30.432-67.872-67.872L80.832 147.04c0-37.44 30.432-67.872 67.872-67.872l216.768 0c37.44 0 67.872 30.432 67.872 67.872l0 211.456C433.376 395.936 402.944 426.368 365.504 426.368zM148.704 127.136c-10.976 0-19.872 8.896-19.872 19.872l0 211.456c0 10.976 8.896 19.872 19.872 19.872l216.768 0c10.976 0 19.872-8.896 19.872-19.872L385.344 147.04c0-10.976-8.896-19.872-19.872-19.872L148.704 127.168zM901.728 428.736l-226.048 0c-34.848 0-63.232-28.352-63.232-63.2l0-219.84c0-35.36 28.768-64.16 64.16-64.16l225.12 0c34.848 0 63.232 28.352 63.232 63.2l0 220.8C964.96 400.416 936.576 428.736 901.728 428.736zM676.608 129.568c-8.896 0-16.16 7.264-16.16 16.16l0 219.84c0 8.384 6.816 15.2 15.232 15.2l226.048 0c8.416 0 15.232-6.816 15.232-15.2l0-220.8c0-8.384-6.816-15.2-15.232-15.2L676.608 129.568zM361.216 960.992 141.152 960.992c-36.512 0-66.208-29.728-66.208-66.208L74.944 680c0-36.512 29.728-66.208 66.208-66.208l220.064 0c36.512 0 66.208 29.728 66.208 66.208l0 214.784C427.424 931.264 397.696 960.992 361.216 960.992zM141.152 661.792c-10.016 0-18.208 8.192-18.208 18.208l0 214.784c0 10.016 8.192 18.208 18.208 18.208l220.064 0c10.016 0 18.208-8.192 18.208-18.208L379.424 680c0-10.016-8.192-18.208-18.208-18.208L141.152 661.792zM943.616 537.344 80.384 537.344c-13.248 0-24-10.752-24-24s10.752-24 24-24l863.232 0c13.248 0 24 10.752 24 24S956.864 537.344 943.616 537.344zM512 434.048c-13.248 0-24-10.752-24-24L488 87.008c0-13.248 10.752-24 24-24 13.248 0 24 10.752 24 24l0 323.072C536 423.296 525.248 434.048 512 434.048zM514.656 876.256c-13.248 0-24-10.752-24-24l0-232.992c0-13.248 10.752-24 24-24 13.248 0 24 10.752 24 24l0 232.992C538.656 865.504 527.904 876.256 514.656 876.256zM662.944 948.288c-13.248 0-24-10.752-24-24l0-246.112c0-13.248 10.752-24 24-24s24 10.752 24 24l0 246.112C686.944 937.536 676.192 948.288 662.944 948.288zM784.736 948.288c-13.248 0-24-10.752-24-24l0-251.52c0-13.248 10.752-24 24-24s24 10.752 24 24l0 251.52C808.736 937.536 797.984 948.288 784.736 948.288zM903.904 948.288c-13.248 0-24-10.752-24-24L879.904 601.248c0-13.248 10.752-24 24-24s24 10.752 24 24l0 323.04C927.904 937.536 917.152 948.288 903.904 948.288z" p-id="2404"></path></svg>