<?xml version="1.0" standalone="no"?><!DOCTYPE svg PUBLIC "-//W3C//DTD SVG 1.1//EN" "http://www.w3.org/Graphics/SVG/1.1/DTD/svg11.dtd"><svg t="1517906150075" class="icon" style="" viewBox="0 0 1024 1024" version="1.1" xmlns="http://www.w3.org/2000/svg" p-id="1889" xmlns:xlink="http://www.w3.org/1999/xlink" width="200" height="200"><defs><style type="text/css"></style></defs><path d="M453.5 168.6c0 132.7-84 216.5-120.1 246.4l-9.6 7.9-8.4-9.2c-5-5.5-25.7-11.1-40.9-11.1H111.3c-7.6 0-14.2 6.6-14.2 14.2v489.8c0 9.4 4.8 14.2 14.2 14.2h517.1c175.8 0 228.5-93.4 286.7-316.8 19-72.7 15.2-126.8-11.1-160.9-27.3-35.3-73.7-42.7-107.9-42.7-17.3 0-29.4 2-29.5 2l-2.2 0.2H609.7l6.4-17.5c0.3-0.7 26-71.5 26-113.1 0-152.3-78.6-168.8-112.3-168.8-6.6 0-10.7 0.7-10.8 0.7l-2.1 0.2c-6.5 0-63.4 2.6-63.4 64.5zM287.6 892.4H125.4V431h162.1v461.4z m241.9-762.7c40 0 87.6 22.4 87.6 129.3 0 76.6-42.1 139.9-68.4 171.9h214c4.5-1 17.4-3.5 33.4-3.5 35.3 0 63.2 11.9 80.5 34.5 23.9 31.1 27 81.1 9 148.7-47.4 178.5-104.7 281.8-257.5 281.8H315.9V464.3l5.7-3.9c1.6-1.1 156.7-107.9 156.7-291.8 0-25.8 17.3-38.9 51.2-38.9z" fill="#515151" p-id="1890"></path></svg>