<?xml version="1.0" standalone="no"?><!DOCTYPE svg PUBLIC "-//W3C//DTD SVG 1.1//EN" "http://www.w3.org/Graphics/SVG/1.1/DTD/svg11.dtd"><svg t="1517305279348" class="icon" style="" viewBox="0 0 1024 1024" version="1.1" xmlns="http://www.w3.org/2000/svg" p-id="5062" xmlns:xlink="http://www.w3.org/1999/xlink" width="128" height="128"><defs><style type="text/css"></style></defs><path d="M511.953455 1002.146909c-142.987636 0-408.901818-218.763636-408.901818-425.634909L103.051636 164.421818l40.657455-0.674909c0.861091 0 91.624727-1.931636 185.274182-39.936 96.046545-39.028364 157.998545-83.828364 158.580364-84.247273l24.273455-17.687273 24.482909 17.687273c0.581818 0.442182 62.533818 45.218909 158.580364 84.247273 93.649455 38.004364 184.413091 39.936 185.367273 39.936l40.471273 0.674909 0.186182 412.090182C920.948364 783.36 655.034182 1002.146909 511.953455 1002.146909L511.953455 1002.146909zM185.623273 243.409455l0 333.079273c0 159.953455 231.633455 343.063273 326.330182 343.063273 94.72 0 326.330182-183.109818 326.330182-343.063273L838.283636 243.409455c-40.471273-4.375273-106.170182-15.429818-174.405818-43.124364-69.934545-28.439273-123.042909-59.345455-151.947636-77.754182-28.811636 18.408727-81.989818 49.314909-151.854545 77.754182C291.793455 228.002909 226.071273 239.034182 185.623273 243.409455L185.623273 243.409455zM490.077091 731.345455l-173.614545-147.898182 53.387636-62.813091 111.383273 94.813091 211.386182-243.525818 62.417455 54.155636L490.077091 731.345455 490.077091 731.345455zM490.077091 731.345455" p-id="5063"></path></svg>