<?xml version="1.0" standalone="no"?><!DOCTYPE svg PUBLIC "-//W3C//DTD SVG 1.1//EN" "http://www.w3.org/Graphics/SVG/1.1/DTD/svg11.dtd"><svg t="1517050747486" class="icon" style="" viewBox="0 0 1024 1024" version="1.1" xmlns="http://www.w3.org/2000/svg" p-id="19092" xmlns:xlink="http://www.w3.org/1999/xlink" width="128" height="128"><defs><style type="text/css"></style></defs><path d="M807.29725 861.820549 214.048821 861.820549c-12.050191 0-21.84577 10.854284-21.84577 24.17615s9.796603 24.160791 21.84577 24.160791l593.247405 0c12.050191 0 21.861129-10.838926 21.861129-24.160791S819.346417 861.820549 807.29725 861.820549z" p-id="19093"></path><path d="M912.245206 285.515493c-43.535909 0-78.829483 35.283335-78.829483 78.819244 0 0.460752 0.133106 0.880548 0.143345 1.341299-0.040956 0.962459-0.28669 1.873723-0.28669 2.85666 0 13.290125 3.52219 26.28332 10.18773 37.832828-49.976192 30.675819-99.972863 61.23901-150.051445 91.81244l1.638228 2.682598-0.010239 0-0.511946-0.102389-139.228901-253.741037c20.600717-14.211628 34.146815-37.935217 34.146815-64.85335 0-43.535909-35.293574-78.819244-78.819244-78.819244-43.535909 0-78.819244 35.283335-78.819244 78.819244 0 27.952265 14.641663 52.361862 36.583679 66.348233l-136.95586 249.655706c-6.358372-3.788402-142.771569-87.286835-153.655546-93.942136 8.027317-12.348143 12.798656-27.010284 12.798656-42.839662 0-43.52567-35.293574-78.819244-78.819244-78.819244-43.535909 0-78.819244 35.293574-78.819244 78.819244 0 39.80894 29.600732 72.37896 67.925028 77.723679l95.344869 326.877678c6.604107 22.658741 19.023922 31.90449 42.86014 31.90449l547.321731 0c22.883997 0 35.416441-9.532439 41.90792-31.90449l94.054764-322.904975c1.894201-0.337885 3.655296-1.023892 5.498303-1.505122 0.542663-0.112628 1.054609-0.317407 1.597272-0.440274 2.395908-0.675769 4.812295-1.300343 7.116053-2.201369 31.546128-10.300358 54.501797-39.6144 54.501797-74.600807C991.06445 320.798828 955.770876 285.515493 912.245206 285.515493zM511.994369 147.750758c18.296959 0 33.133161 14.836202 33.133161 33.133161 0 18.296959-14.836202 33.133161-33.133161 33.133161-18.296959 0-33.133161-14.836202-33.133161-33.133161C478.862231 162.58696 493.698434 147.750758 511.994369 147.750758zM113.014182 392.194852c-18.296959 0-33.133161-14.825963-33.133161-33.122922s14.836202-33.133161 33.133161-33.133161c18.296959 0 33.133161 14.836202 33.133161 33.133161S131.312164 392.194852 113.014182 392.194852zM779.139182 754.816616c-0.696247 0.061434-1.781573 0.102389-3.470996 0.102389 0 0-529.680064 0-529.895081 0.081911-0.358362-0.819114-0.819114-2.047785-1.382255-3.911269l-89.795371-304.95614c2.467581-0.972698 4.873728-2.027307 7.218442-3.255978l120.829553 73.177596c0 0 30.563191 18.552932 40.300408 24.296969 6.348133 3.696252 12.5734 5.580214 18.501737 5.580214 2.651882 0 5.24233-0.348123 7.648477-1.04437 5.733798-1.5256 13.832788-5.641648 19.791842-16.443713 34.699717-62.447203 137.559956-248.28369 137.559956-248.28369 1.5256 0.09215 3.020483 0.153584 4.546083 0.153584 2.344714 0 4.627994-0.122867 6.889773-0.337885l135.399543 244.136926c4.423216 8.088751 10.965889 17.754296 22.617785 20.897646 2.447103 0.614335 4.802056 0.921503 6.941991 0.921503 8.938581 0 16.914704-4.18772 22.863519-7.8123l151.771584-91.955785c3.696252 2.068263 7.290115 3.726969 10.924933 5.006834C847.555679 522.311109 779.230309 754.21252 779.139182 754.816616zM913.095037 397.170969c-18.296959 0-33.133161-14.836202-33.133161-33.133161 0-18.296959 14.836202-33.133161 33.133161-33.133161s33.133161 14.836202 33.133161 33.133161C946.227174 382.334767 931.391996 397.170969 913.095037 397.170969z" p-id="19094"></path></svg>