<?xml version="1.0" standalone="no"?><!DOCTYPE svg PUBLIC "-//W3C//DTD SVG 1.1//EN" "http://www.w3.org/Graphics/SVG/1.1/DTD/svg11.dtd"><svg t="1518449891738" class="icon" style="" viewBox="0 0 1024 1024" version="1.1" xmlns="http://www.w3.org/2000/svg" p-id="1920" xmlns:xlink="http://www.w3.org/1999/xlink" width="128" height="128"><defs><style type="text/css"></style></defs><path d="M571.738192 56.483986v90.746078a27.330961 27.330961 0 0 0 20.665851 26.503744 342.635502 342.635502 0 0 1 100.093267 43.059018 27.330961 27.330961 0 0 0 33.974206-3.749808l65.382947-65.382947 84.485466 84.485466-67.281538 67.281538a27.330961 27.330961 0 0 0-4.190747 33.252669 342.365836 342.365836 0 0 1 39.239972 98.329509 27.330961 27.330961 0 0 0 26.645864 21.252555H967.516014v119.476384h-98.661124a27.330961 27.330961 0 0 0-26.507388 20.665851 342.53711 342.53711 0 0 1-40.238463 95.578192 27.330961 27.330961 0 0 0 3.9721 33.613438l70.25879 70.25879-84.485466 84.485466-70.25879-70.25879a27.330961 27.330961 0 0 0-33.613438-3.9721 342.53711 342.53711 0 0 1-95.578192 40.238463 27.330961 27.330961 0 0 0-20.662207 26.507388V967.516014h-119.480028v-96.762534a27.330961 27.330961 0 0 0-21.252555-26.645864 342.365836 342.365836 0 0 1-98.329509-39.239972 27.330961 27.330961 0 0 0-33.252669 4.190747L232.145537 876.339929 147.660071 791.854463l65.382947-65.382947a27.330961 27.330961 0 0 0 3.753452-33.974206 342.635502 342.635502 0 0 1-43.062662-100.093267 27.330961 27.330961 0 0 0-26.503744-20.662207H56.483986v-119.480028h88.847487a27.330961 27.330961 0 0 0 26.645865-21.252555 342.453295 342.453295 0 0 1 41.998577-102.906534 27.330961 27.330961 0 0 0-3.9721-33.613438L147.660071 232.145537 232.145537 147.660071l62.343744 62.343744a27.330961 27.330961 0 0 0 33.613438 3.9721 342.453295 342.453295 0 0 1 102.910178-41.998577 27.330961 27.330961 0 0 0 21.245267-26.645865V56.483986h119.480028z m-253.412669 100.053181L251.473993 89.681993a27.330961 27.330961 0 0 0-38.653267 0L89.681993 212.817082a27.330961 27.330961 0 0 0 0 38.653267l66.855174 66.858818a396.991317 396.991317 0 0 0-32.381722 79.270719H29.153025a27.330961 27.330961 0 0 0-27.330961 27.330961v174.138306a27.330961 27.330961 0 0 0 27.330961 27.330961h97.367459a397.184456 397.184456 0 0 0 32.826306 76.461096L89.681993 772.529651a27.330961 27.330961 0 0 0 0 38.653267l123.135089 123.135089a27.330961 27.330961 0 0 0 38.653267 0l72.026192-72.026192a396.907502 396.907502 0 0 0 74.103345 29.63405V994.846975a27.330961 27.330961 0 0 0 27.330961 27.330961h174.138306a27.330961 27.330961 0 0 0 27.330961-27.330961v-105.282505a397.089708 397.089708 0 0 0 71.355672-30.020328l74.777509 74.777509a27.330961 27.330961 0 0 0 38.649623 0l123.135089-123.138733a27.330961 27.330961 0 0 0 0-38.653267l-74.773865-74.773865a397.089708 397.089708 0 0 0 30.020328-71.352028H994.846975a27.330961 27.330961 0 0 0 27.330961-27.330961v-174.14195a27.330961 27.330961 0 0 0-27.330961-27.330961h-102.92111a396.907502 396.907502 0 0 0-29.63405-74.103345l72.026192-72.026192a27.330961 27.330961 0 0 0 0-38.653267L811.182918 89.681993a27.330961 27.330961 0 0 0-38.653267 0l-69.668441 69.664797a397.184456 397.184456 0 0 0-76.461096-32.826306V29.153025a27.330961 27.330961 0 0 0-27.330961-27.330961h-174.138306a27.330961 27.330961 0 0 0-27.330961 27.330961v95.00242a396.991317 396.991317 0 0 0-79.270719 32.381722z" p-id="1921" fill="#ffffff"></path><path d="M659.849566 649.361765A208.859559 208.859559 0 0 0 716.071174 506.533808c0-115.722932-93.814434-209.537367-209.537366-209.537367S296.996441 390.810875 296.996441 506.533808s93.814434 209.537367 209.537367 209.537366a27.330961 27.330961 0 1 0 0-54.661921c-85.534975 0-154.875445-69.34047-154.875445-154.875445s69.34047-154.875445 154.875445-154.875445 154.875445 69.34047 154.875445 154.875445a154.208569 154.208569 0 0 1-41.546705 105.563103 27.330961 27.330961 0 0 0 39.987018 37.264854z" p-id="1922" fill="#ffffff"></path></svg>