<?xml version="1.0" standalone="no"?><!DOCTYPE svg PUBLIC "-//W3C//DTD SVG 1.1//EN" "http://www.w3.org/Graphics/SVG/1.1/DTD/svg11.dtd"><svg t="1517305102150" class="icon" style="" viewBox="0 0 1024 1024" version="1.1" xmlns="http://www.w3.org/2000/svg" p-id="3998" xmlns:xlink="http://www.w3.org/1999/xlink" width="128" height="128"><defs><style type="text/css"></style></defs><path d="M662.673274 484.030886 662.673274 303.360148l88.620491 88.613115c2.338135 2.345511 5.406477 3.518267 8.482194 3.518267 3.068342 0 6.144059-1.16538 8.48957-3.518267 4.691022-4.691022 4.691022-12.288118 0-16.97914L650.665437 257.401406l-117.570589 117.585341c-4.698398 4.691022-4.698398 12.295494 0 16.97914 4.683646 4.691022 12.280742 4.691022 16.971764 0l88.598363-88.613115 0 180.670739c-72.445315 6.129307-129.563674 66.972456-129.563674 140.996197 0 78.065691 63.513196 141.578887 141.571511 141.578887 78.065691 0 141.601014-63.513196 141.586263-141.578887C792.2517 550.995966 735.125965 490.160194 662.673274 484.030886zM650.665437 742.590296c-64.818716 0-117.563213-52.737121-117.563213-117.563213 0-64.833468 52.744497-117.585341 117.563213-117.585341 64.833468 0 117.585341 52.751873 117.585341 117.585341C768.250778 689.845799 715.498905 742.590296 650.665437 742.590296zM487.689294 620.631094 385.342399 620.631094 385.342399 544.940417c72.467443-6.121932 129.593177-66.957704 129.593177-140.981445 0-78.065691-63.520572-141.586263-141.593638-141.586263s-141.586263 63.520572-141.586263 141.586263c0 74.023741 57.118359 134.852138 129.578426 140.981445l0 75.683301L258.994583 620.623718c-6.623487 0-12.000461 5.384349-12.000461 12.007837 0 6.630863 5.376974 12.000461 12.000461 12.000461l102.339518 0 0 109.951366c0 6.638239 5.376974 12.015213 12.007837 12.015213 6.623487 0 12.000461-5.376974 12.000461-12.015213L385.342399 644.632016 487.689294 644.632016c6.623487 0 12.007837-5.369598 12.007837-12.000461C499.69713 626.015443 494.320157 620.631094 487.689294 620.631094zM255.77135 403.966348c0-64.826092 52.729745-117.577965 117.570589-117.577965 64.833468 0 117.577965 52.751873 117.577965 117.577965 0 64.833468-52.744497 117.570589-117.577965 117.570589C308.501095 521.536937 255.77135 468.799816 255.77135 403.966348zM512.014752 0C229.233145 0 0 229.233145 0 512.014752c0 282.759479 229.233145 511.985248 512.014752 511.985248 282.759479 0 511.985248-229.225769 511.985248-511.985248C1024 229.233145 794.774231 0 512.014752 0zM512.014752 999.032845c-268.981445 0-487.032845-218.0514-487.032845-487.018094 0-268.981445 218.0514-487.032845 487.032845-487.032845 268.974069 0 487.018094 218.0514 487.018094 487.032845C999.032845 780.988821 780.988821 999.032845 512.014752 999.032845z" p-id="3999"></path></svg>