<?xml version="1.0" standalone="no"?><!DOCTYPE svg PUBLIC "-//W3C//DTD SVG 1.1//EN" "http://www.w3.org/Graphics/SVG/1.1/DTD/svg11.dtd"><svg t="1517045298439" class="icon" style="" viewBox="0 0 1024 1024" version="1.1" xmlns="http://www.w3.org/2000/svg" p-id="10733" xmlns:xlink="http://www.w3.org/1999/xlink" width="128" height="128"><defs><style type="text/css"></style></defs><path d="M1001.472 917.504L731.136 647.168c-5.12-5.12-11.264-9.216-17.408-12.288 49.152-65.536 78.848-147.456 78.848-236.544C792.576 181.248 616.448 5.12 399.36 5.12S5.12 181.248 5.12 399.36c0 217.088 176.128 394.24 394.24 394.24 89.088 0 171.008-29.696 236.544-78.848 3.072 6.144 7.168 12.288 12.288 17.408l270.336 270.336c23.552 23.552 60.416 23.552 83.968 0 22.528-24.576 22.528-61.44-1.024-84.992zM399.36 713.728c-174.08 0-315.392-141.312-315.392-314.368 0-174.08 141.312-315.392 315.392-315.392S713.728 225.28 713.728 399.36c0 173.056-141.312 314.368-314.368 314.368z" p-id="10734"></path></svg>