<?xml version="1.0" standalone="no"?><!DOCTYPE svg PUBLIC "-//W3C//DTD SVG 1.1//EN" "http://www.w3.org/Graphics/SVG/1.1/DTD/svg11.dtd"><svg t="1517223386320" class="icon" style="" viewBox="0 0 1024 1024" version="1.1" xmlns="http://www.w3.org/2000/svg" p-id="19284" xmlns:xlink="http://www.w3.org/1999/xlink" width="128" height="128"><defs><style type="text/css"></style></defs><path d="M563.120125 384.99844C550.340094 372.218409 537.560062 359.438378 524.780031 353.048362L492.829953 404.168487C499.219969 410.558502 512 423.338534 518.390016 429.728549l12.780031 12.780031c70.290172 70.290172 70.290172 185.310452 0 255.600624L384.199688 838.689548c-70.290172 70.290172-185.310452 70.290172-255.600624 0L115.819033 832.299532C83.868955 793.959438 64.698908 749.229329 64.698908 704.49922c0-51.120125 19.170047-95.850234 51.120125-127.800312L256.399376 436.118565 211.669267 391.388456 71.088924 525.578783C26.358814 576.698908 0.798752 634.209048 0.798752 704.49922c0 63.900156 25.560062 127.800312 70.290172 172.530421l12.780031 12.780031C128.599064 934.539782 192.49922 960.099844 256.399376 960.099844c63.900156 0 127.800312-25.560062 172.530421-70.290172L575.900156 742.839314c95.850234-95.850234 95.850234-249.210608 0-345.060842L563.120125 384.99844z" p-id="19285"></path><path d="M889.01092 84.667707l-12.780031-12.780031c-95.850234-95.850234-255.600624-95.850234-345.060842 0L384.199688 212.468019C288.349454 308.318253 288.349454 468.068643 384.199688 563.918877l12.780031 12.780031c12.780031 12.780031 25.560062 25.560062 38.340094 31.950078l31.950078-51.120125C460.879875 544.74883 448.099844 538.358814 441.709828 525.578783L428.929797 519.188768C358.639626 448.898596 358.639626 333.878315 428.929797 257.198128L575.900156 116.617785c70.290172-70.290172 191.700468-70.290172 255.600624 0L844.280811 129.397816c70.290172 70.290172 70.290172 185.310452 0 255.600624L703.700468 525.578783l44.730109 44.730109 140.580343-140.580343C984.861154 333.878315 984.861154 174.127925 889.01092 84.667707z" p-id="19286"></path></svg>