<?xml version="1.0" standalone="no"?><!DOCTYPE svg PUBLIC "-//W3C//DTD SVG 1.1//EN" "http://www.w3.org/Graphics/SVG/1.1/DTD/svg11.dtd"><svg t="1517218709773" class="icon" style="" viewBox="0 0 1024 1024" version="1.1" xmlns="http://www.w3.org/2000/svg" p-id="4184" xmlns:xlink="http://www.w3.org/1999/xlink" width="128" height="128"><defs><style type="text/css"></style></defs><path d="M932.68783 274.825252c0-16.020882-12.053524-29.007661-26.923186-29.007661l-652.037407-0.684592-25.382087-87.215364c-6.013971-20.665669-28.418236-32.651654-51.786457-28.729322l-78.534658 0c-20.169365 0-36.519752 23.223934-36.519752 51.872415 0 28.64848 16.349363 51.872415 36.519752 51.872415l51.961442 0 140.956336 484.33901c3.710508 12.750395 13.663184 22.195511 26.228361 26.644847 4.669346 2.00261 9.727549 3.107781 15.015995 3.107781l493.168096 0c23.438828 0 42.441625-21.535479 42.441625-48.101531C867.794867 672.359244 932.68783 274.825252 932.68783 274.825252zM409.784502 883.039571m-74.507948 0a72.811 72.811 0 1 0 149.015895 0 72.811 72.811 0 1 0-149.015895 0ZM791.736611 882.878912m-74.507948 0a72.811 72.811 0 1 0 149.015895 0 72.811 72.811 0 1 0-149.015895 0Z" p-id="4185" fill="#515151"></path></svg>