<?xml version="1.0" standalone="no"?><!DOCTYPE svg PUBLIC "-//W3C//DTD SVG 1.1//EN" "http://www.w3.org/Graphics/SVG/1.1/DTD/svg11.dtd"><svg t="1523603857420" class="icon" style="" viewBox="0 0 1024 1024" version="1.1" xmlns="http://www.w3.org/2000/svg" p-id="1939" xmlns:xlink="http://www.w3.org/1999/xlink" width="200" height="200"><defs><style type="text/css"></style></defs><path d="M1004.79998 1004.799969c-25.599999 25.599999-63.999998 25.599999-89.599997 0l-198.399994-198.399994c-172.799995 127.999996-409.599987 121.599996-569.599982-25.599999-179.199994-166.399995-191.999994-460.799986-19.199999-639.99998 172.799995-179.199994 460.799986-185.599994 639.99998-6.4 159.999995 159.999995 172.799995 409.599987 38.399999 582.399982l198.399994 198.399994C1030.399979 940.799971 1030.399979 979.199969 1004.79998 1004.799969zM703.999989 262.399992c-127.999996-179.199994-390.399988-179.199994-518.399984 0-83.199997 108.799997-83.199997 268.799992 0 377.599988 127.999996 179.199994 390.399988 179.199994 518.399984 0C787.199987 524.799984 787.199987 371.199988 703.999989 262.399992z" p-id="1940" fill="#6c757d"></path></svg>