<?xml version="1.0" standalone="no"?><!DOCTYPE svg PUBLIC "-//W3C//DTD SVG 1.1//EN" "http://www.w3.org/Graphics/SVG/1.1/DTD/svg11.dtd"><svg t="1528358329320" class="icon" style="" viewBox="0 0 1024 1024" version="1.1" xmlns="http://www.w3.org/2000/svg" p-id="2367" xmlns:xlink="http://www.w3.org/1999/xlink" width="200" height="200"><defs><style type="text/css"></style></defs><path d="M512 114.674763c53.661154 0 105.690134 10.498098 154.641009 31.202653 47.307446 20.009729 89.804329 48.665373 126.309754 85.170798 36.506449 36.506449 65.162092 79.003332 85.170798 126.309754 20.704554 48.951899 31.202653 100.979856 31.202653 154.641009s-10.498098 105.690134-31.202653 154.641009c-20.009729 47.306422-48.665373 89.804329-85.170798 126.309754-36.506449 36.506449-79.003332 65.162092-126.309754 85.170798-48.951899 20.704554-100.979856 31.202653-154.641009 31.202653s-105.690134-10.498098-154.641009-31.202653c-47.307446-20.009729-89.804329-48.665373-126.309754-85.170798-36.506449-36.506449-65.162092-79.003332-85.170798-126.309754-20.704554-48.951899-31.202653-100.979856-31.202653-154.641009s10.498098-105.690134 31.202653-154.641009c20.009729-47.307446 48.665373-89.804329 85.170798-126.309754 36.506449-36.506449 79.003332-65.162092 126.309754-85.170798C406.309866 125.172861 458.338846 114.674763 512 114.674763M512 63.509453c-247.694335 0-448.490547 200.796212-448.490547 448.490547s200.796212 448.490547 448.490547 448.490547 448.490547-200.796212 448.490547-448.490547S759.694335 63.509453 512 63.509453L512 63.509453z" p-id="2368"></path><path d="M581.778226 246.458181l-17.907858 341.680916c-0.481977 15.758915-5.978155 28.89919-16.477276 39.397289-10.509355 10.510378-23.280216 15.758915-38.321794 15.758915-15.041578 0-27.700899-5.0142-37.963637-15.042601-10.275018-10.028401-15.882736-23.391756-16.833387-40.113603l-18.624173-341.680916c-0.961908-18.143219 6.088672-34.853809 21.131273-50.142004 15.042601-15.277962 32.346709-22.922059 51.93279-22.922059 19.574824 0 36.889165 7.521301 51.93279 22.563902C575.688531 211.000622 582.729901 227.834009 581.778226 246.458181zM508.714164 709.912535c19.092847 0 35.570123 6.804986 49.424666 20.414959 13.846356 13.609972 20.774139 29.961382 20.774139 49.067532 0 19.09387-6.927783 35.691897-20.774139 49.782823-13.854543 14.080693-30.331819 21.131273-49.424666 21.131273-19.104103 0-35.45756-6.928806-49.067532-20.773116-13.609972-13.856589-20.414959-30.443359-20.414959-49.783847 0-19.339464 6.804986-35.815717 20.414959-49.425689C473.256604 716.718545 489.609037 709.912535 508.714164 709.912535z" p-id="2369"></path></svg>