<?xml version="1.0" standalone="no"?><!DOCTYPE svg PUBLIC "-//W3C//DTD SVG 1.1//EN" "http://www.w3.org/Graphics/SVG/1.1/DTD/svg11.dtd"><svg t="1517039895246" class="icon" style="" viewBox="0 0 1025 1024" version="1.1" xmlns="http://www.w3.org/2000/svg" p-id="4937" xmlns:xlink="http://www.w3.org/1999/xlink" width="128.125" height="128"><defs><style type="text/css"></style></defs><path d="M656.8 618 656.8 618c15.6 0 29.6-14 29.6-29.6s-14-29.6-29.6-29.6l-118.4 0 108.4-110.4c12-12 12-29.6 0-41.6-12-12-29.6-12-41.6 0L512.4 504l-94.8-96.8c-12-12-29.6-12-41.6 0s-12 29.6 0 41.6l108.4 110.4L366.4 559.2c-15.6 0-29.6 14-29.6 29.6s14 29.6 29.6 29.6l114.4 0 0 29.6L366.4 648c-15.6 0-29.6 14-29.6 29.6s14 29.6 29.6 29.6l114.4 0 0 84.8c0 12 14 21.6 29.6 21.6s29.6-10 29.6-21.6l0-84.8 114.4 0c15.6 0 29.6-14 29.6-29.6s-14-29.6-29.6-29.6l-114.4 0 0-29.6L656.8 618.4zM926.8 42.4 96.8 42.4C43.6 42.4 0 86 0 139.2l0 128.4c0 53.2 43.6 96.8 96.8 96.8l72.8 0 0 520.4c0 53.2 43.6 96.8 96.8 96.8l493.2 0c53.2 0 96.8-43.6 96.8-96.8L856.4 364l73.2 0c53.2 0 94.8-43.6 94.8-96.8L1024.4 138.8C1023.6 86 980 42.4 926.8 42.4zM790.8 888.4 790.8 888.4c0 27.6-25.6 31.6-55.2 31.6L266.4 920c-17.6 0-31.6-14-31.6-31.6L234.8 298.8c0-17.6 14-31.6 31.6-31.6l493.2 0c17.6 0 31.6 14 31.6 31.6L791.2 888.4zM960.4 135.2l0 136c0 17.6-14 31.6-31.6 31.6L852 302.8c0-10-2-25.6-6-35.6 25.6 0 47.2-21.6 47.2-47.2 0-25.6-21.6-47.2-47.2-47.2L175.6 172.8c-25.6 0-47.2 21.6-47.2 47.2 0 25.6 21.6 47.2 47.2 47.2-4 10-6 23.6-6 35.6L92.8 302.8c-17.6 0-31.6-14-31.6-31.6l0-136c0-17.6 14-31.6 31.6-31.6l840 0c17.6 0 31.6 14 31.6 31.6L960.4 135.2z" p-id="4938"></path></svg>