<?xml version="1.0" standalone="no"?><!DOCTYPE svg PUBLIC "-//W3C//DTD SVG 1.1//EN" "http://www.w3.org/Graphics/SVG/1.1/DTD/svg11.dtd"><svg t="1517223224469" class="icon" style="" viewBox="0 0 1024 1024" version="1.1" xmlns="http://www.w3.org/2000/svg" p-id="17847" xmlns:xlink="http://www.w3.org/1999/xlink" width="128" height="128"><defs><style type="text/css"></style></defs><path d="M828.517817 333.208964l-31.974225 0 25.576515-25.576515c6.495948-6.495948 6.495948-17.018605 0-23.514553L605.458555 67.456345c-6.495948-6.495948-17.018605-6.495948-23.514553 0l-43.488467 43.478234L427.607938 63.900356c-4.075829-1.704828-8.638751-1.77032-12.730952-0.097214-4.075829 1.64036-7.340175 4.855588-9.061376 8.915044L295.2924 333.208964l-102.176101 0c-55.018058 0-99.772354 44.75532-99.772354 99.772354l0 331.764056c0 55.018058 44.75532 99.772354 99.772354 99.772354l635.401518 0c55.018058 0 99.772354-44.75532 99.772354-99.772354L928.290171 432.981319C928.291195 377.964284 883.535875 333.208964 828.517817 333.208964zM861.775268 650.0174 635.370819 650.0174c-19.276019 0-34.96228-15.687284-34.96228-34.96228l0-32.396851c0-19.276019 15.687284-34.94693 34.96228-34.94693l226.405473 0L861.776292 650.0174zM593.70179 102.727663l193.146998 193.146998-37.33328 37.33328L363.220489 333.207941 593.70179 102.727663zM429.92982 101.022835l83.160002 35.285644L342.629521 306.761616 429.92982 101.022835zM828.517817 798.003849l-635.401518 0c-18.349927 0-33.257451-14.923898-33.257451-33.257451L159.858848 432.981319c0-18.333554 14.907525-33.257451 33.257451-33.257451l635.401518 0c18.349927 0 33.257451 14.923898 33.257451 33.257451l0 81.471546L635.370819 514.452865c-37.609573 0-68.220754 30.594809-68.220754 68.204381l0 32.396851c0 37.609573 30.610158 68.220754 68.220754 68.220754l226.405473 0 0 81.471546C861.775268 783.079952 846.868767 798.003849 828.517817 798.003849z" p-id="17848"></path><path d="M625.968681 598.860277c0 16.616446 13.477966 30.089295 30.091342 30.089295s30.091342-13.472849 30.091342-30.089295-13.477966-30.087249-30.091342-30.087249S625.968681 582.242807 625.968681 598.860277z" p-id="17849"></path></svg>