<?xml version="1.0" standalone="no"?><!DOCTYPE svg PUBLIC "-//W3C//DTD SVG 1.1//EN" "http://www.w3.org/Graphics/SVG/1.1/DTD/svg11.dtd"><svg t="1517618993501" class="icon" style="" viewBox="0 0 1024 1024" version="1.1" xmlns="http://www.w3.org/2000/svg" p-id="10644" xmlns:xlink="http://www.w3.org/1999/xlink" width="200" height="200"><defs><style type="text/css"></style></defs><path d="M511.999 95.003c-230.524 0-418.076 187.552-418.075 418.077 0 230.527 187.552 418.077 418.075 418.077s418.077-187.55 418.077-418.077c0-230.525-187.552-418.077-418.077-418.077zM512 722.12c-28.86 0-52.26-23.399-52.26-52.263 0-28.858 23.399-52.257 52.26-52.257s52.26 23.399 52.26 52.257c0 28.863-23.399 52.263-52.26 52.263zM564.26 513.078c0 28.86-23.399 52.26-52.26 52.26s-52.26-23.399-52.26-52.26l0-156.775c0-28.86 23.399-52.26 52.26-52.26s52.26 23.399 52.26 52.26l0 156.775z" fill="#F43530" p-id="10645"></path></svg>