<?xml version="1.0" standalone="no"?><!DOCTYPE svg PUBLIC "-//W3C//DTD SVG 1.1//EN" "http://www.w3.org/Graphics/SVG/1.1/DTD/svg11.dtd"><svg t="1520321028322" class="icon" style="" viewBox="0 0 1024 1024" version="1.1" xmlns="http://www.w3.org/2000/svg" p-id="17339" xmlns:xlink="http://www.w3.org/1999/xlink" width="128" height="128"><defs><style type="text/css"></style></defs><path d="M942.07785 322.426975a51.029078 51.029078 0 0 0-60.347432-50.039217c-24.71241 4.522644-41.471793 28.00626-41.471793 53.128268v156.824816a33.94543 33.94543 0 1 1-67.89086 0V257.642232c0-25.122008-16.759383-48.62269-41.471793-53.128268a51.029078 51.029078 0 0 0-60.347431 50.039217v193.84223a33.94543 33.94543 0 1 1-67.890861 0V172.787189c0-25.122008-16.759383-48.62269-41.471793-53.128267a51.029078 51.029078 0 0 0-60.347431 50.039216v295.661455a33.94543 33.94543 0 1 1-67.890861 0V53.986717c0-25.122008-16.759383-48.62269-41.471792-53.128268a51.029078 51.029078 0 0 0-60.347432 50.039217v601.972456l-130.525214-130.525214c-23.688415-23.688415-61.627425-30.037183-89.189954-10.990878a68.061526 68.061526 0 0 0-9.710885 104.089079l316.892282 316.892283c1.39946 1.416526 2.781853 2.815986 4.215446 4.215445l2.59412 2.594121c0.785063 0.785063 1.706658 1.314127 2.525854 2.065056 54.647193 51.199744 127.896961 82.789986 208.690157 82.789986h93.3542C847.102324 1024 942.07785 929.041541 942.07785 811.896527v-489.469552z" fill="#1afa29" p-id="17340"></path></svg>